{"glyphs":{"0":{"ha":851,"x_min":0,"x_max":0,"o":"m 382 -7 l 469 -7 b 758 275 669 -7 758 96 l 758 697 b 469 979 758 876 669 979 l 382 979 b 93 697 182 979 93 876 l 93 275 b 382 -7 93 96 182 -7 z m 386 111 b 222 275 278 111 222 157 l 222 697 b 386 861 222 815 278 861 l 465 861 b 628 697 574 861 628 815 l 628 275 b 465 111 628 157 574 111 z "},"1":{"ha":413,"x_min":0,"x_max":0,"o":"m 300 972 l 68 972 b 49 953 56 972 49 967 l 49 876 b 68 856 49 863 56 856 l 190 856 l 190 19 b 208 0 190 7 196 0 l 300 0 b 319 19 314 0 319 7 l 319 953 b 300 972 319 965 314 972 z "},"2":{"ha":803,"x_min":0,"x_max":0,"o":"m 90 0 l 706 0 b 725 19 719 0 725 6 l 725 96 b 706 117 725 110 719 117 l 203 117 l 203 169 b 339 338 203 250 236 292 l 514 414 b 733 715 683 486 733 538 b 461 979 733 876 656 979 l 369 979 b 82 724 182 979 82 900 l 82 700 b 100 681 82 688 88 681 l 192 681 b 211 700 206 681 211 688 b 372 861 211 819 267 861 l 454 861 b 603 715 558 861 603 814 b 461 525 603 617 578 578 l 268 440 b 69 131 104 368 69 292 l 69 21 b 90 0 69 7 76 0 z "},"3":{"ha":801,"x_min":0,"x_max":0,"o":"m 558 497 l 558 510 b 710 715 660 536 710 582 b 435 979 710 876 629 979 l 372 979 b 83 724 185 979 83 900 l 83 700 b 103 681 83 688 89 681 l 194 681 b 213 700 207 681 213 688 b 374 861 213 819 268 861 l 428 861 b 581 715 532 861 581 814 b 406 561 581 617 544 561 l 333 561 b 313 542 319 561 313 556 l 313 465 b 333 444 313 451 319 444 l 406 444 b 600 261 544 444 600 393 b 446 111 600 164 549 111 l 363 111 b 201 272 257 111 201 153 b 183 292 201 285 196 292 l 92 292 b 72 272 78 292 72 285 l 72 249 b 361 -7 72 72 174 -7 l 453 -7 b 729 261 646 -7 729 100 b 558 497 729 431 660 474 z "},"4":{"ha":761,"x_min":0,"x_max":0,"o":"m 679 344 l 599 344 l 599 531 b 581 550 599 543 593 550 l 489 550 b 469 531 475 550 469 543 l 469 344 l 188 344 l 508 947 b 496 972 515 961 513 972 l 396 972 b 369 956 385 972 376 968 l 47 346 b 47 313 39 332 40 326 l 78 247 b 100 229 85 233 90 229 l 469 229 l 469 19 b 489 0 469 7 475 0 l 581 0 b 599 19 593 0 599 7 l 599 229 l 679 229 b 699 249 693 229 699 235 l 699 325 b 679 344 699 339 693 344 z "},"5":{"ha":803,"x_min":0,"x_max":0,"o":"m 358 -7 l 451 -7 b 731 276 644 -7 731 96 l 731 351 b 469 631 731 499 675 631 l 403 631 b 221 558 317 631 246 594 l 213 558 l 240 856 l 654 856 b 674 876 668 856 674 863 l 674 953 b 654 972 674 967 668 972 l 147 972 b 126 951 133 972 128 965 l 82 458 b 101 433 81 442 88 433 l 213 433 b 361 513 233 469 271 513 l 440 513 b 601 349 549 513 601 467 l 601 276 b 444 111 601 157 549 111 l 360 111 b 199 272 254 111 199 153 b 181 292 199 285 193 292 l 89 292 b 69 272 75 292 69 285 l 69 249 b 358 -7 69 72 171 -7 z "},"6":{"ha":832,"x_min":0,"x_max":0,"o":"m 379 -7 l 474 -7 b 760 276 674 -7 760 96 l 760 346 b 499 624 760 493 704 624 l 410 624 b 233 549 329 624 258 588 l 224 549 l 222 715 b 374 861 222 814 269 861 l 449 861 b 607 750 557 861 607 840 b 626 732 607 738 613 732 l 717 732 b 736 750 731 732 736 738 l 736 772 b 451 979 736 918 640 979 l 368 979 b 93 715 174 979 93 879 l 93 275 b 379 -7 93 96 179 -7 z m 383 111 b 222 276 275 111 222 157 l 222 342 b 383 506 222 461 275 506 l 469 506 b 631 342 576 506 631 461 l 631 276 b 469 111 631 157 576 111 z "},"7":{"ha":744,"x_min":0,"x_max":0,"o":"m 129 0 l 217 0 b 243 24 231 0 240 11 b 668 806 313 332 461 574 b 696 856 686 826 696 839 l 696 953 b 676 972 696 967 689 972 l 82 972 b 63 953 69 972 63 967 l 63 876 b 82 856 63 863 69 856 l 557 856 l 557 846 b 113 26 332 594 179 329 b 129 0 110 14 114 0 z "},"8":{"ha":853,"x_min":0,"x_max":0,"o":"m 631 535 b 726 729 696 567 726 628 b 471 979 726 892 644 979 l 382 979 b 126 729 208 979 126 892 b 222 535 126 628 157 567 b 93 307 133 500 93 426 l 93 267 b 379 -7 93 96 179 -7 l 474 -7 b 760 268 674 -7 760 96 l 760 307 b 631 535 760 426 719 500 z m 390 867 l 463 867 b 603 729 567 867 603 818 b 463 590 603 640 567 590 l 390 590 b 250 729 286 590 250 640 b 390 867 250 818 286 867 z m 631 268 b 469 111 631 157 576 111 l 383 111 b 222 268 275 111 222 157 l 222 307 b 383 468 222 421 275 468 l 469 468 b 631 307 576 468 631 421 z "},"9":{"ha":832,"x_min":0,"x_max":0,"o":"m 453 979 l 358 979 b 72 696 158 979 72 876 l 72 626 b 333 349 72 479 128 349 l 422 349 b 599 424 503 349 574 385 l 608 424 l 610 257 b 458 111 610 158 563 111 l 383 111 b 225 222 275 111 225 132 b 206 240 225 235 219 240 l 115 240 b 96 222 101 240 96 235 l 96 200 b 381 -7 96 54 192 -7 l 464 -7 b 739 257 658 -7 739 93 l 739 697 b 453 979 739 876 653 979 z m 449 861 b 610 696 557 861 610 815 l 610 631 b 449 467 610 511 557 467 l 363 467 b 201 631 256 467 201 511 l 201 696 b 363 861 201 815 256 861 z "},"A":{"ha":843,"x_min":0,"x_max":0,"o":"m 790 25 l 529 950 b 504 972 525 964 517 972 l 339 972 b 314 950 326 972 318 964 l 53 25 b 69 0 49 10 57 0 l 164 0 b 189 25 178 0 185 10 l 233 182 l 610 182 l 654 25 b 679 0 658 10 665 0 l 774 0 b 790 25 788 0 794 10 z m 265 297 l 413 822 l 431 822 l 578 297 z "},"Á":{"ha":843,"x_min":0,"x_max":0,"o":"m 386 1040 l 464 1040 b 494 1065 478 1040 485 1051 l 619 1225 b 606 1250 632 1240 621 1250 l 485 1250 b 456 1225 471 1250 465 1242 l 372 1065 b 386 1040 364 1049 371 1040 z m 790 25 l 529 950 b 504 972 525 964 517 972 l 339 972 b 314 950 326 972 318 964 l 53 25 b 69 0 49 10 57 0 l 164 0 b 189 25 178 0 185 10 l 233 182 l 610 182 l 654 25 b 679 0 658 10 665 0 l 774 0 b 790 25 788 0 794 10 z m 265 297 l 413 822 l 431 822 l 578 297 z "},"Ă":{"ha":843,"x_min":0,"x_max":0,"o":"m 385 1046 l 456 1046 b 635 1232 578 1046 635 1107 b 615 1250 635 1244 629 1250 l 546 1250 b 526 1232 532 1250 528 1244 b 442 1138 524 1179 501 1138 l 400 1138 b 315 1232 340 1138 318 1179 b 294 1250 314 1244 308 1250 l 226 1250 b 207 1232 213 1250 207 1244 b 385 1046 207 1107 265 1046 z m 790 25 l 529 950 b 504 972 525 964 517 972 l 339 972 b 314 950 326 972 318 964 l 53 25 b 69 0 49 10 57 0 l 164 0 b 189 25 178 0 185 10 l 233 182 l 610 182 l 654 25 b 679 0 658 10 665 0 l 774 0 b 790 25 788 0 794 10 z m 265 297 l 413 822 l 431 822 l 578 297 z "},"Ǎ":{"ha":843,"x_min":0,"x_max":0,"o":"m 336 1060 b 372 1042 347 1046 357 1042 l 468 1042 b 507 1060 483 1042 496 1047 l 651 1225 b 642 1250 661 1238 656 1250 l 554 1250 b 514 1226 538 1250 529 1243 l 428 1128 l 414 1128 l 328 1226 b 288 1250 314 1243 306 1250 l 201 1250 b 192 1225 188 1250 181 1238 z m 790 25 l 529 950 b 504 972 525 964 517 972 l 339 972 b 314 950 326 972 318 964 l 53 25 b 69 0 49 10 57 0 l 164 0 b 189 25 178 0 185 10 l 233 182 l 610 182 l 654 25 b 679 0 658 10 665 0 l 774 0 b 790 25 788 0 794 10 z m 265 297 l 413 822 l 431 822 l 578 297 z "},"Â":{"ha":843,"x_min":0,"x_max":0,"o":"m 199 1042 l 285 1042 b 325 1065 303 1042 311 1049 l 411 1164 l 425 1164 l 511 1065 b 551 1042 526 1049 535 1042 l 639 1042 b 649 1067 653 1042 658 1054 l 504 1231 b 465 1250 493 1244 481 1250 l 369 1250 b 333 1231 354 1250 344 1244 l 189 1067 b 199 1042 178 1054 185 1042 z m 790 25 l 529 950 b 504 972 525 964 517 972 l 339 972 b 314 950 326 972 318 964 l 53 25 b 69 0 49 10 57 0 l 164 0 b 189 25 178 0 185 10 l 233 182 l 610 182 l 654 25 b 679 0 658 10 665 0 l 774 0 b 790 25 788 0 794 10 z m 265 297 l 413 822 l 431 822 l 578 297 z "},"Ä":{"ha":843,"x_min":0,"x_max":0,"o":"m 176 1113 l 274 1113 b 294 1133 288 1113 294 1119 l 294 1231 b 274 1250 294 1244 288 1250 l 176 1250 b 157 1231 163 1250 157 1244 l 157 1133 b 176 1113 157 1119 163 1113 z m 571 1113 l 668 1113 b 688 1133 682 1113 688 1119 l 688 1231 b 668 1250 688 1244 682 1250 l 571 1250 b 550 1231 557 1250 550 1244 l 550 1133 b 571 1113 550 1119 557 1113 z m 790 25 l 529 950 b 504 972 525 964 517 972 l 339 972 b 314 950 326 972 318 964 l 53 25 b 69 0 49 10 57 0 l 164 0 b 189 25 178 0 185 10 l 233 182 l 610 182 l 654 25 b 679 0 658 10 665 0 l 774 0 b 790 25 788 0 794 10 z m 265 297 l 413 822 l 431 822 l 578 297 z "},"À":{"ha":843,"x_min":0,"x_max":0,"o":"m 354 1065 b 386 1040 365 1051 372 1040 l 463 1040 b 476 1065 478 1040 486 1049 l 393 1225 b 364 1250 385 1242 378 1250 l 243 1250 b 229 1225 228 1250 217 1240 z m 790 25 l 529 950 b 504 972 525 964 517 972 l 339 972 b 314 950 326 972 318 964 l 53 25 b 69 0 49 10 57 0 l 164 0 b 189 25 178 0 185 10 l 233 182 l 610 182 l 654 25 b 679 0 658 10 665 0 l 774 0 b 790 25 788 0 794 10 z m 265 297 l 413 822 l 431 822 l 578 297 z "},"Ā":{"ha":843,"x_min":0,"x_max":0,"o":"m 197 1131 l 647 1131 b 668 1151 660 1131 668 1138 l 668 1229 b 647 1250 668 1243 660 1250 l 197 1250 b 176 1229 183 1250 176 1243 l 176 1151 b 197 1131 176 1138 183 1131 z m 790 25 l 529 950 b 504 972 525 964 517 972 l 339 972 b 314 950 326 972 318 964 l 53 25 b 69 0 49 10 57 0 l 164 0 b 189 25 178 0 185 10 l 233 182 l 610 182 l 654 25 b 679 0 658 10 665 0 l 774 0 b 790 25 788 0 794 10 z m 265 297 l 413 822 l 431 822 l 578 297 z "},"Ą":{"ha":824,"x_min":0,"x_max":0,"o":"m 594 -139 l 713 -125 b 800 -43 771 -118 818 -106 l 788 4 b 790 25 792 8 793 17 l 529 950 b 504 972 525 964 517 972 l 339 972 b 314 950 326 972 318 964 l 53 25 b 69 0 49 10 57 0 l 164 0 b 189 25 178 0 185 10 l 233 182 l 610 182 l 654 26 l 643 26 l 656 -15 b 611 -54 664 -43 646 -50 l 557 -60 b 451 -168 476 -68 451 -82 b 585 -283 451 -261 481 -283 l 757 -283 b 771 -269 767 -283 771 -278 l 771 -211 b 757 -196 771 -201 765 -196 l 607 -196 b 568 -167 576 -196 568 -187 b 594 -139 568 -144 575 -140 z m 265 297 l 413 822 l 431 822 l 578 297 z "},"Å":{"ha":843,"x_min":0,"x_max":0,"o":"m 413 1025 l 431 1025 b 547 1140 499 1025 547 1075 l 547 1156 b 431 1272 547 1221 499 1272 l 413 1272 b 296 1156 344 1272 296 1221 l 296 1140 b 413 1025 296 1075 344 1025 z m 374 1154 b 415 1196 374 1179 389 1196 l 428 1196 b 471 1154 456 1196 471 1179 l 471 1144 b 428 1101 471 1118 456 1101 l 415 1101 b 374 1144 389 1101 374 1118 z m 790 25 l 529 950 b 504 972 525 964 517 972 l 339 972 b 314 950 326 972 318 964 l 53 25 b 69 0 49 10 57 0 l 164 0 b 189 25 178 0 185 10 l 233 182 l 610 182 l 654 25 b 679 0 658 10 665 0 l 774 0 b 790 25 788 0 794 10 z m 265 297 l 413 822 l 431 822 l 578 297 z "},"Ã":{"ha":843,"x_min":0,"x_max":0,"o":"m 215 1122 b 239 1117 219 1114 226 1108 b 321 1143 271 1136 290 1143 b 518 1082 397 1143 425 1082 b 646 1124 561 1082 601 1093 b 657 1151 657 1132 661 1140 l 629 1217 b 606 1224 625 1226 618 1231 b 522 1196 572 1203 553 1196 b 326 1257 447 1196 419 1257 b 199 1215 283 1257 243 1246 b 188 1188 188 1207 182 1200 z m 790 25 l 529 950 b 504 972 525 964 517 972 l 339 972 b 314 950 326 972 318 964 l 53 25 b 69 0 49 10 57 0 l 164 0 b 189 25 178 0 185 10 l 233 182 l 610 182 l 654 25 b 679 0 658 10 665 0 l 774 0 b 790 25 788 0 794 10 z m 265 297 l 413 822 l 431 822 l 578 297 z "},"Æ":{"ha":1253,"x_min":0,"x_max":0,"o":"m 1181 121 l 749 121 l 749 429 l 1140 429 b 1161 449 1154 429 1161 435 l 1161 526 b 1140 546 1161 540 1154 546 l 749 546 l 749 851 l 1176 851 b 1196 871 1190 851 1196 857 l 1196 953 b 1176 972 1196 967 1190 972 l 592 972 b 564 951 578 972 572 965 l 46 22 b 57 0 38 8 43 0 l 158 0 b 186 21 172 0 178 7 l 275 182 l 615 182 l 615 19 b 636 0 615 6 622 0 l 1181 0 b 1201 19 1194 0 1201 6 l 1201 101 b 1181 121 1201 115 1194 121 z m 339 297 l 615 799 l 615 297 z "},"B":{"ha":829,"x_min":0,"x_max":0,"o":"m 618 510 l 618 519 b 724 722 699 557 724 621 b 475 972 724 899 650 972 l 113 972 b 93 953 99 972 93 967 l 93 19 b 113 0 93 6 99 0 l 476 0 b 757 257 661 0 757 68 l 757 306 b 618 510 757 411 708 478 z m 590 719 l 590 692 b 460 557 590 589 547 557 l 226 557 l 226 851 l 460 851 b 590 719 550 851 590 822 z m 624 263 b 469 121 624 153 574 121 l 226 121 l 226 449 l 469 449 b 624 307 574 449 624 417 z "},"C":{"ha":861,"x_min":0,"x_max":0,"o":"m 382 -7 l 496 -7 b 782 263 697 -7 782 90 l 782 269 b 764 288 782 281 775 288 l 667 288 b 649 269 656 288 649 281 b 486 114 649 154 590 114 l 389 114 b 226 279 282 114 226 160 l 226 693 b 389 858 226 811 282 858 l 486 858 b 649 694 590 858 649 817 b 667 676 649 683 656 676 l 764 676 b 782 694 775 676 782 683 l 782 701 b 496 979 782 881 697 979 l 382 979 b 93 697 182 979 93 876 l 93 275 b 382 -7 93 96 182 -7 z "},"Ć":{"ha":861,"x_min":0,"x_max":0,"o":"m 469 1225 l 386 1065 b 400 1040 378 1049 385 1040 l 478 1040 b 508 1065 492 1040 499 1051 l 633 1225 b 619 1250 646 1240 635 1250 l 499 1250 b 469 1225 485 1250 479 1242 z m 382 -7 l 496 -7 b 782 263 697 -7 782 90 l 782 269 b 764 288 782 281 775 288 l 667 288 b 649 269 656 288 649 281 b 486 114 649 154 590 114 l 389 114 b 226 279 282 114 226 160 l 226 693 b 389 858 226 811 282 858 l 486 858 b 649 694 590 858 649 817 b 667 676 649 683 656 676 l 764 676 b 782 694 775 676 782 683 l 782 701 b 496 979 782 881 697 979 l 382 979 b 93 697 182 979 93 876 l 93 275 b 382 -7 93 96 182 -7 z "},"Č":{"ha":861,"x_min":0,"x_max":0,"o":"m 388 1042 l 483 1042 b 522 1060 499 1042 511 1047 l 667 1225 b 657 1250 676 1238 671 1250 l 569 1250 b 529 1226 553 1250 544 1243 l 443 1128 l 429 1128 l 343 1226 b 303 1250 329 1243 321 1250 l 217 1250 b 207 1225 203 1250 196 1238 l 351 1060 b 388 1042 363 1046 372 1042 z m 382 -7 l 496 -7 b 782 263 697 -7 782 90 l 782 269 b 764 288 782 281 775 288 l 667 288 b 649 269 656 288 649 281 b 486 114 649 154 590 114 l 389 114 b 226 279 282 114 226 160 l 226 693 b 389 858 226 811 282 858 l 486 858 b 649 694 590 858 649 817 b 667 676 649 683 656 676 l 764 676 b 782 694 775 676 782 683 l 782 701 b 496 979 782 881 697 979 l 382 979 b 93 697 182 979 93 876 l 93 275 b 382 -7 93 96 182 -7 z "},"Ç":{"ha":861,"x_min":0,"x_max":0,"o":"m 389 858 l 486 858 b 649 694 590 858 649 817 b 667 676 649 683 656 676 l 764 676 b 782 694 775 676 782 683 l 782 701 b 496 979 782 881 697 979 l 382 979 b 93 697 182 979 93 876 l 93 275 b 382 -7 93 96 182 -7 l 400 -7 b 349 -82 363 -42 349 -58 b 403 -131 349 -114 374 -128 b 544 -169 514 -142 544 -143 b 490 -201 544 -197 526 -201 l 463 -201 b 410 -168 426 -201 411 -190 b 394 -154 408 -160 403 -154 l 321 -154 b 307 -171 310 -154 307 -161 b 428 -282 307 -240 338 -282 l 517 -282 b 647 -169 607 -282 647 -243 b 514 -60 647 -83 601 -69 b 514 -7 479 -56 456 -50 b 782 263 703 -1 782 96 l 782 269 b 764 288 782 281 775 288 l 667 288 b 649 269 656 288 649 281 b 486 114 649 154 590 114 l 389 114 b 226 279 282 114 226 160 l 226 693 b 389 858 226 811 282 858 z "},"Ĉ":{"ha":861,"x_min":0,"x_max":0,"o":"m 383 1250 b 347 1231 368 1250 358 1244 l 203 1067 b 213 1042 192 1054 199 1042 l 299 1042 b 339 1065 317 1042 325 1049 l 425 1164 l 439 1164 l 525 1065 b 565 1042 540 1049 549 1042 l 653 1042 b 663 1067 667 1042 672 1054 l 518 1231 b 479 1250 507 1244 494 1250 z m 382 -7 l 496 -7 b 782 263 697 -7 782 90 l 782 269 b 764 288 782 281 775 288 l 667 288 b 649 269 656 288 649 281 b 486 114 649 154 590 114 l 389 114 b 226 279 282 114 226 160 l 226 693 b 389 858 226 811 282 858 l 486 858 b 649 694 590 858 649 817 b 667 676 649 683 656 676 l 764 676 b 782 694 775 676 782 683 l 782 701 b 496 979 782 881 697 979 l 382 979 b 93 697 182 979 93 876 l 93 275 b 382 -7 93 96 182 -7 z "},"Ċ":{"ha":861,"x_min":0,"x_max":0,"o":"m 386 1113 l 483 1113 b 504 1133 497 1113 504 1119 l 504 1231 b 483 1250 504 1244 497 1250 l 386 1250 b 367 1231 372 1250 367 1244 l 367 1133 b 386 1113 367 1119 372 1113 z m 382 -7 l 496 -7 b 782 263 697 -7 782 90 l 782 269 b 764 288 782 281 775 288 l 667 288 b 649 269 656 288 649 281 b 486 114 649 154 590 114 l 389 114 b 226 279 282 114 226 160 l 226 693 b 389 858 226 811 282 858 l 486 858 b 649 694 590 858 649 817 b 667 676 649 683 656 676 l 764 676 b 782 694 775 676 782 683 l 782 701 b 496 979 782 881 697 979 l 382 979 b 93 697 182 979 93 876 l 93 275 b 382 -7 93 96 182 -7 z "},"D":{"ha":864,"x_min":0,"x_max":0,"o":"m 482 972 l 113 972 b 93 953 99 972 93 967 l 93 19 b 113 0 93 6 99 0 l 482 0 b 771 282 682 0 771 103 l 771 690 b 482 972 771 869 682 972 z m 638 286 b 475 121 638 167 582 121 l 226 121 l 226 851 l 475 851 b 638 686 582 851 638 804 z "},"Ð":{"ha":885,"x_min":0,"x_max":0,"o":"m 504 972 l 135 972 b 114 953 121 972 114 967 l 114 546 l 31 546 b 11 526 18 546 11 540 l 11 450 b 31 429 11 436 18 429 l 114 429 l 114 19 b 135 0 114 6 121 0 l 504 0 b 792 282 703 0 792 103 l 792 690 b 504 972 792 869 703 972 z m 658 286 b 496 121 658 167 604 121 l 247 121 l 247 429 l 386 429 b 406 450 399 429 406 436 l 406 526 b 386 546 406 540 399 546 l 247 546 l 247 851 l 496 851 b 658 686 604 851 658 804 z "},"Ď":{"ha":864,"x_min":0,"x_max":0,"o":"m 333 1060 b 369 1042 344 1046 354 1042 l 465 1042 b 504 1060 481 1042 493 1047 l 649 1225 b 639 1250 658 1238 653 1250 l 551 1250 b 511 1226 535 1250 526 1243 l 425 1128 l 411 1128 l 325 1226 b 285 1250 311 1243 303 1250 l 199 1250 b 189 1225 185 1250 178 1238 z m 482 972 l 113 972 b 93 953 99 972 93 967 l 93 19 b 113 0 93 6 99 0 l 482 0 b 771 282 682 0 771 103 l 771 690 b 482 972 771 869 682 972 z m 638 286 b 475 121 638 167 582 121 l 226 121 l 226 851 l 475 851 b 638 686 582 851 638 804 z "},"Đ":{"ha":885,"x_min":0,"x_max":0,"o":"m 504 972 l 135 972 b 114 953 121 972 114 967 l 114 546 l 31 546 b 11 526 18 546 11 540 l 11 450 b 31 429 11 436 18 429 l 114 429 l 114 19 b 135 0 114 6 121 0 l 504 0 b 792 282 703 0 792 103 l 792 690 b 504 972 792 869 703 972 z m 658 286 b 496 121 658 167 604 121 l 247 121 l 247 429 l 386 429 b 406 450 399 429 406 436 l 406 526 b 386 546 406 540 399 546 l 247 546 l 247 851 l 496 851 b 658 686 604 851 658 804 z "},"E":{"ha":731,"x_min":0,"x_max":0,"o":"m 114 0 l 658 0 b 679 19 672 0 679 6 l 679 101 b 658 121 679 115 672 121 l 226 121 l 226 429 l 618 429 b 639 449 632 429 639 435 l 639 526 b 618 546 639 540 632 546 l 226 546 l 226 851 l 654 851 b 674 871 668 851 674 857 l 674 953 b 654 972 674 967 668 972 l 114 972 b 93 953 100 972 93 967 l 93 19 b 114 0 93 6 100 0 z "},"É":{"ha":731,"x_min":0,"x_max":0,"o":"m 419 1225 l 336 1065 b 350 1040 328 1049 335 1040 l 428 1040 b 458 1065 442 1040 449 1051 l 583 1225 b 569 1250 596 1240 585 1250 l 449 1250 b 419 1225 435 1250 429 1242 z m 114 0 l 658 0 b 679 19 672 0 679 6 l 679 101 b 658 121 679 115 672 121 l 226 121 l 226 429 l 618 429 b 639 449 632 429 639 435 l 639 526 b 618 546 639 540 632 546 l 226 546 l 226 851 l 654 851 b 674 871 668 851 674 857 l 674 953 b 654 972 674 967 668 972 l 114 972 b 93 953 100 972 93 967 l 93 19 b 114 0 93 6 100 0 z "},"Ě":{"ha":731,"x_min":0,"x_max":0,"o":"m 336 1042 l 432 1042 b 471 1060 447 1042 460 1047 l 615 1225 b 606 1250 625 1238 619 1250 l 518 1250 b 478 1226 501 1250 493 1243 l 392 1128 l 378 1128 l 292 1226 b 251 1250 278 1243 269 1250 l 165 1250 b 156 1225 151 1250 144 1238 l 300 1060 b 336 1042 311 1046 321 1042 z m 114 0 l 658 0 b 679 19 672 0 679 6 l 679 101 b 658 121 679 115 672 121 l 226 121 l 226 429 l 618 429 b 639 449 632 429 639 435 l 639 526 b 618 546 639 540 632 546 l 226 546 l 226 851 l 654 851 b 674 871 668 851 674 857 l 674 953 b 654 972 674 967 668 972 l 114 972 b 93 953 100 972 93 967 l 93 19 b 114 0 93 6 100 0 z "},"Ȩ":{"ha":731,"x_min":0,"x_max":0,"o":"m 658 121 l 226 121 l 226 429 l 618 429 b 639 449 632 429 639 435 l 639 526 b 618 546 639 540 632 546 l 226 546 l 226 851 l 654 851 b 674 871 668 851 674 857 l 674 953 b 654 972 674 967 668 972 l 114 972 b 93 953 100 972 93 967 l 93 19 b 114 0 93 6 100 0 l 342 0 b 283 -82 299 -40 283 -57 b 338 -131 283 -114 308 -128 b 479 -169 449 -142 479 -143 b 425 -201 479 -197 461 -201 l 397 -201 b 344 -168 361 -201 346 -190 b 329 -154 343 -160 338 -154 l 256 -154 b 242 -171 244 -154 242 -161 b 363 -282 242 -240 272 -282 l 451 -282 b 582 -169 542 -282 582 -243 b 449 -60 582 -83 536 -69 b 458 0 413 -56 388 -50 l 658 0 b 679 19 672 0 679 6 l 679 101 b 658 121 679 115 672 121 z "},"Ê":{"ha":731,"x_min":0,"x_max":0,"o":"m 333 1250 b 297 1231 318 1250 308 1244 l 153 1067 b 163 1042 142 1054 149 1042 l 249 1042 b 289 1065 267 1042 275 1049 l 375 1164 l 389 1164 l 475 1065 b 515 1042 490 1049 499 1042 l 603 1042 b 613 1067 617 1042 622 1054 l 468 1231 b 429 1250 457 1244 444 1250 z m 114 0 l 658 0 b 679 19 672 0 679 6 l 679 101 b 658 121 679 115 672 121 l 226 121 l 226 429 l 618 429 b 639 449 632 429 639 435 l 639 526 b 618 546 639 540 632 546 l 226 546 l 226 851 l 654 851 b 674 871 668 851 674 857 l 674 953 b 654 972 674 967 668 972 l 114 972 b 93 953 100 972 93 967 l 93 19 b 114 0 93 6 100 0 z "},"Ë":{"ha":731,"x_min":0,"x_max":0,"o":"m 139 1113 l 236 1113 b 257 1133 250 1113 257 1119 l 257 1231 b 236 1250 257 1244 250 1250 l 139 1250 b 119 1231 125 1250 119 1244 l 119 1133 b 139 1113 119 1119 125 1113 z m 533 1113 l 631 1113 b 650 1133 644 1113 650 1119 l 650 1231 b 631 1250 650 1244 644 1250 l 533 1250 b 513 1231 519 1250 513 1244 l 513 1133 b 533 1113 513 1119 519 1113 z m 114 0 l 658 0 b 679 19 672 0 679 6 l 679 101 b 658 121 679 115 672 121 l 226 121 l 226 429 l 618 429 b 639 449 632 429 639 435 l 639 526 b 618 546 639 540 632 546 l 226 546 l 226 851 l 654 851 b 674 871 668 851 674 857 l 674 953 b 654 972 674 967 668 972 l 114 972 b 93 953 100 972 93 967 l 93 19 b 114 0 93 6 100 0 z "},"Ė":{"ha":731,"x_min":0,"x_max":0,"o":"m 336 1113 l 433 1113 b 454 1133 447 1113 454 1119 l 454 1231 b 433 1250 454 1244 447 1250 l 336 1250 b 317 1231 322 1250 317 1244 l 317 1133 b 336 1113 317 1119 322 1113 z m 114 0 l 658 0 b 679 19 672 0 679 6 l 679 101 b 658 121 679 115 672 121 l 226 121 l 226 429 l 618 429 b 639 449 632 429 639 435 l 639 526 b 618 546 639 540 632 546 l 226 546 l 226 851 l 654 851 b 674 871 668 851 674 857 l 674 953 b 654 972 674 967 668 972 l 114 972 b 93 953 100 972 93 967 l 93 19 b 114 0 93 6 100 0 z "},"È":{"ha":731,"x_min":0,"x_max":0,"o":"m 356 1225 b 326 1250 347 1242 340 1250 l 206 1250 b 192 1225 190 1250 179 1240 l 317 1065 b 349 1040 328 1051 335 1040 l 425 1040 b 439 1065 440 1040 449 1049 z m 114 0 l 658 0 b 679 19 672 0 679 6 l 679 101 b 658 121 679 115 672 121 l 226 121 l 226 429 l 618 429 b 639 449 632 429 639 435 l 639 526 b 618 546 639 540 632 546 l 226 546 l 226 851 l 654 851 b 674 871 668 851 674 857 l 674 953 b 654 972 674 967 668 972 l 114 972 b 93 953 100 972 93 967 l 93 19 b 114 0 93 6 100 0 z "},"Ē":{"ha":731,"x_min":0,"x_max":0,"o":"m 160 1131 l 610 1131 b 631 1151 622 1131 631 1138 l 631 1229 b 610 1250 631 1243 622 1250 l 160 1250 b 139 1229 146 1250 139 1243 l 139 1151 b 160 1131 139 1138 146 1131 z m 114 0 l 658 0 b 679 19 672 0 679 6 l 679 101 b 658 121 679 115 672 121 l 226 121 l 226 429 l 618 429 b 639 449 632 429 639 435 l 639 526 b 618 546 639 540 632 546 l 226 546 l 226 851 l 654 851 b 674 871 668 851 674 857 l 674 953 b 654 972 674 967 668 972 l 114 972 b 93 953 100 972 93 967 l 93 19 b 114 0 93 6 100 0 z "},"Ę":{"ha":731,"x_min":0,"x_max":0,"o":"m 658 121 l 226 121 l 226 429 l 618 429 b 639 449 632 429 639 435 l 639 526 b 618 546 639 540 632 546 l 226 546 l 226 851 l 654 851 b 674 871 668 851 674 857 l 674 953 b 654 972 674 967 668 972 l 114 972 b 93 953 100 972 93 967 l 93 19 b 114 0 93 6 100 0 l 550 0 l 550 -15 b 504 -54 550 -44 539 -50 l 449 -60 b 342 -168 368 -68 342 -82 b 475 -283 342 -261 371 -283 l 647 -283 b 661 -269 657 -283 661 -278 l 661 -211 b 647 -196 661 -201 656 -196 l 497 -196 b 460 -167 467 -196 460 -187 b 485 -139 460 -144 465 -140 l 597 -125 b 679 -43 656 -118 679 -107 l 679 101 b 658 121 679 115 672 121 z "},"F":{"ha":725,"x_min":0,"x_max":0,"o":"m 654 972 l 113 972 b 93 953 99 972 93 967 l 93 19 b 113 0 93 6 99 0 l 207 0 b 226 19 221 0 226 6 l 226 429 l 621 429 b 640 449 635 429 640 435 l 640 526 b 621 546 640 540 635 546 l 226 546 l 226 851 l 654 851 b 674 871 668 851 674 857 l 674 953 b 654 972 674 967 668 972 z "},"G":{"ha":875,"x_min":0,"x_max":0,"o":"m 382 -7 l 493 -7 b 782 275 693 -7 782 96 l 782 521 b 757 546 782 538 772 546 l 456 546 b 435 526 442 546 435 540 l 435 449 b 456 429 435 435 442 429 l 649 429 l 649 279 b 486 114 649 160 593 114 l 389 114 b 226 279 282 114 226 160 l 226 693 b 389 858 226 811 282 858 l 486 858 b 649 694 590 858 649 817 b 667 676 649 683 656 676 l 764 676 b 782 694 775 676 782 683 l 782 701 b 496 979 782 881 697 979 l 382 979 b 93 697 182 979 93 876 l 93 275 b 382 -7 93 96 182 -7 z "},"Ğ":{"ha":875,"x_min":0,"x_max":0,"o":"m 413 1046 l 483 1046 b 663 1232 606 1046 663 1107 b 643 1250 663 1244 657 1250 l 574 1250 b 554 1232 560 1250 556 1244 b 469 1138 551 1179 529 1138 l 428 1138 b 343 1232 368 1138 346 1179 b 322 1250 342 1244 336 1250 l 254 1250 b 235 1232 240 1250 235 1244 b 413 1046 235 1107 293 1046 z m 382 -7 l 493 -7 b 782 275 693 -7 782 96 l 782 521 b 757 546 782 538 772 546 l 456 546 b 435 526 442 546 435 540 l 435 449 b 456 429 435 435 442 429 l 649 429 l 649 279 b 486 114 649 160 593 114 l 389 114 b 226 279 282 114 226 160 l 226 693 b 389 858 226 811 282 858 l 486 858 b 649 694 590 858 649 817 b 667 676 649 683 656 676 l 764 676 b 782 694 775 676 782 683 l 782 701 b 496 979 782 881 697 979 l 382 979 b 93 697 182 979 93 876 l 93 275 b 382 -7 93 96 182 -7 z "},"Ǧ":{"ha":875,"x_min":0,"x_max":0,"o":"m 400 1042 l 496 1042 b 535 1060 511 1042 524 1047 l 679 1225 b 669 1250 689 1238 683 1250 l 582 1250 b 542 1226 565 1250 557 1243 l 456 1128 l 442 1128 l 356 1226 b 315 1250 342 1243 333 1250 l 229 1250 b 219 1225 215 1250 208 1238 l 364 1060 b 400 1042 375 1046 385 1042 z m 382 -7 l 493 -7 b 782 275 693 -7 782 96 l 782 521 b 757 546 782 538 772 546 l 456 546 b 435 526 442 546 435 540 l 435 449 b 456 429 435 435 442 429 l 649 429 l 649 279 b 486 114 649 160 593 114 l 389 114 b 226 279 282 114 226 160 l 226 693 b 389 858 226 811 282 858 l 486 858 b 649 694 590 858 649 817 b 667 676 649 683 656 676 l 764 676 b 782 694 775 676 782 683 l 782 701 b 496 979 782 881 697 979 l 382 979 b 93 697 182 979 93 876 l 93 275 b 382 -7 93 96 182 -7 z "},"Ĝ":{"ha":875,"x_min":0,"x_max":0,"o":"m 396 1250 b 360 1231 381 1250 371 1244 l 215 1067 b 225 1042 204 1054 211 1042 l 311 1042 b 351 1065 329 1042 338 1049 l 438 1164 l 451 1164 l 538 1065 b 578 1042 553 1049 561 1042 l 665 1042 b 675 1067 679 1042 685 1054 l 531 1231 b 492 1250 519 1244 507 1250 z m 382 -7 l 493 -7 b 782 275 693 -7 782 96 l 782 521 b 757 546 782 538 772 546 l 456 546 b 435 526 442 546 435 540 l 435 449 b 456 429 435 435 442 429 l 649 429 l 649 279 b 486 114 649 160 593 114 l 389 114 b 226 279 282 114 226 160 l 226 693 b 389 858 226 811 282 858 l 486 858 b 649 694 590 858 649 817 b 667 676 649 683 656 676 l 764 676 b 782 694 775 676 782 683 l 782 701 b 496 979 782 881 697 979 l 382 979 b 93 697 182 979 93 876 l 93 275 b 382 -7 93 96 182 -7 z "},"Ģ":{"ha":875,"x_min":0,"x_max":0,"o":"m 382 -7 l 493 -7 b 782 275 693 -7 782 96 l 782 521 b 757 546 782 538 772 546 l 456 546 b 435 526 442 546 435 540 l 435 449 b 456 429 435 435 442 429 l 649 429 l 649 279 b 486 114 649 160 593 114 l 389 114 b 226 279 282 114 226 160 l 226 693 b 389 858 226 811 282 858 l 486 858 b 649 694 590 858 649 817 b 667 676 649 683 656 676 l 764 676 b 782 694 775 676 782 683 l 782 701 b 496 979 782 881 697 979 l 382 979 b 93 697 182 979 93 876 l 93 275 b 382 -7 93 96 182 -7 z m 485 -83 l 408 -83 b 389 -103 394 -83 389 -89 l 389 -322 l 338 -322 b 318 -342 324 -322 318 -328 l 318 -412 b 338 -432 318 -426 324 -432 l 461 -432 b 504 -389 490 -432 504 -418 l 504 -103 b 485 -83 504 -89 499 -83 z "},"Ġ":{"ha":875,"x_min":0,"x_max":0,"o":"m 399 1113 l 496 1113 b 517 1133 510 1113 517 1119 l 517 1231 b 496 1250 517 1244 510 1250 l 399 1250 b 379 1231 385 1250 379 1244 l 379 1133 b 399 1113 379 1119 385 1113 z m 382 -7 l 493 -7 b 782 275 693 -7 782 96 l 782 521 b 757 546 782 538 772 546 l 456 546 b 435 526 442 546 435 540 l 435 449 b 456 429 435 435 442 429 l 649 429 l 649 279 b 486 114 649 160 593 114 l 389 114 b 226 279 282 114 226 160 l 226 693 b 389 858 226 811 282 858 l 486 858 b 649 694 590 858 649 817 b 667 676 649 683 656 676 l 764 676 b 782 694 775 676 782 683 l 782 701 b 496 979 782 881 697 979 l 382 979 b 93 697 182 979 93 876 l 93 275 b 382 -7 93 96 182 -7 z "},"H":{"ha":864,"x_min":0,"x_max":0,"o":"m 751 972 l 657 972 b 636 953 643 972 636 967 l 636 546 l 228 546 l 228 953 b 207 972 228 967 221 972 l 113 972 b 93 953 99 972 93 967 l 93 19 b 113 0 93 6 99 0 l 207 0 b 228 19 221 0 228 6 l 228 429 l 636 429 l 636 19 b 657 0 636 6 643 0 l 751 0 b 771 19 765 0 771 6 l 771 953 b 751 972 771 967 765 972 z "},"Ħ":{"ha":864,"x_min":0,"x_max":0,"o":"m 751 972 l 657 972 b 636 953 643 972 636 967 l 636 771 l 228 771 l 228 953 b 207 972 228 967 221 972 l 113 972 b 93 953 99 972 93 967 l 93 19 b 113 0 93 6 99 0 l 207 0 b 228 19 221 0 228 6 l 228 429 l 636 429 l 636 19 b 657 0 636 6 643 0 l 751 0 b 771 19 765 0 771 6 l 771 953 b 751 972 771 967 765 972 z m 228 546 l 228 653 l 636 653 l 636 546 z "},"Ĥ":{"ha":864,"x_min":0,"x_max":0,"o":"m 208 1042 l 294 1042 b 335 1065 313 1042 321 1049 l 421 1164 l 435 1164 l 521 1065 b 561 1042 536 1049 544 1042 l 649 1042 b 658 1067 663 1042 668 1054 l 514 1231 b 475 1250 503 1244 490 1250 l 379 1250 b 343 1231 364 1250 354 1244 l 199 1067 b 208 1042 188 1054 194 1042 z m 751 972 l 657 972 b 636 953 643 972 636 967 l 636 546 l 228 546 l 228 953 b 207 972 228 967 221 972 l 113 972 b 93 953 99 972 93 967 l 93 19 b 113 0 93 6 99 0 l 207 0 b 228 19 221 0 228 6 l 228 429 l 636 429 l 636 19 b 657 0 636 6 643 0 l 751 0 b 771 19 765 0 771 6 l 771 953 b 751 972 771 967 765 972 z "},"I":{"ha":319,"x_min":0,"x_max":0,"o":"m 113 0 l 207 0 b 226 19 221 0 226 6 l 226 953 b 207 972 226 967 221 972 l 113 972 b 93 953 99 972 93 967 l 93 19 b 113 0 93 6 99 0 z "},"Ĳ":{"ha":836,"x_min":0,"x_max":0,"o":"m 113 0 l 207 0 b 226 19 221 0 226 6 l 226 953 b 207 972 226 967 221 972 l 113 972 b 93 953 99 972 93 967 l 93 19 b 113 0 93 6 99 0 z m 399 -7 l 454 -7 b 743 275 654 -7 743 96 l 743 953 b 724 972 743 967 738 972 l 629 972 b 610 953 615 972 610 967 l 610 279 b 447 114 610 160 554 114 l 399 114 b 378 94 385 114 378 108 l 378 13 b 399 -7 378 -1 385 -7 z "},"Í":{"ha":319,"x_min":0,"x_max":0,"o":"m 193 1225 l 110 1065 b 124 1040 101 1049 108 1040 l 201 1040 b 232 1065 215 1040 222 1051 l 357 1225 b 343 1250 369 1240 358 1250 l 222 1250 b 193 1225 208 1250 203 1242 z m 113 0 l 207 0 b 226 19 221 0 226 6 l 226 953 b 207 972 226 967 221 972 l 113 972 b 93 953 99 972 93 967 l 93 19 b 113 0 93 6 99 0 z "},"Ǐ":{"ha":319,"x_min":0,"x_max":0,"o":"m 111 1042 l 207 1042 b 246 1060 222 1042 235 1047 l 390 1225 b 381 1250 400 1238 394 1250 l 293 1250 b 253 1226 276 1250 268 1243 l 167 1128 l 153 1128 l 67 1226 b 26 1250 53 1243 44 1250 l -60 1250 b -69 1225 -74 1250 -81 1238 l 75 1060 b 111 1042 86 1046 96 1042 z m 113 0 l 207 0 b 226 19 221 0 226 6 l 226 953 b 207 972 226 967 221 972 l 113 972 b 93 953 99 972 93 967 l 93 19 b 113 0 93 6 99 0 z "},"Î":{"ha":319,"x_min":0,"x_max":0,"o":"m 107 1250 b 71 1231 92 1250 82 1244 l -74 1067 b -64 1042 -85 1054 -78 1042 l 22 1042 b 63 1065 40 1042 49 1049 l 149 1164 l 163 1164 l 249 1065 b 289 1042 264 1049 272 1042 l 376 1042 b 386 1067 390 1042 396 1054 l 242 1231 b 203 1250 231 1244 218 1250 z m 113 0 l 207 0 b 226 19 221 0 226 6 l 226 953 b 207 972 226 967 221 972 l 113 972 b 93 953 99 972 93 967 l 93 19 b 113 0 93 6 99 0 z "},"Ï":{"ha":319,"x_min":0,"x_max":0,"o":"m -86 1113 l 11 1113 b 32 1133 25 1113 32 1119 l 32 1231 b 11 1250 32 1244 25 1250 l -86 1250 b -106 1231 -100 1250 -106 1244 l -106 1133 b -86 1113 -106 1119 -100 1113 z m 308 1113 l 406 1113 b 425 1133 419 1113 425 1119 l 425 1231 b 406 1250 425 1244 419 1250 l 308 1250 b 288 1231 294 1250 288 1244 l 288 1133 b 308 1113 288 1119 294 1113 z m 113 0 l 207 0 b 226 19 221 0 226 6 l 226 953 b 207 972 226 967 221 972 l 113 972 b 93 953 99 972 93 967 l 93 19 b 113 0 93 6 99 0 z "},"İ":{"ha":319,"x_min":0,"x_max":0,"o":"m 110 1113 l 207 1113 b 228 1133 221 1113 228 1119 l 228 1231 b 207 1250 228 1244 221 1250 l 110 1250 b 90 1231 96 1250 90 1244 l 90 1133 b 110 1113 90 1119 96 1113 z m 113 0 l 207 0 b 226 19 221 0 226 6 l 226 953 b 207 972 226 967 221 972 l 113 972 b 93 953 99 972 93 967 l 93 19 b 113 0 93 6 99 0 z "},"Ì":{"ha":319,"x_min":0,"x_max":0,"o":"m 131 1225 b 101 1250 122 1242 115 1250 l -19 1250 b -33 1225 -35 1250 -46 1240 l 92 1065 b 124 1040 103 1051 110 1040 l 200 1040 b 214 1065 215 1040 224 1049 z m 113 0 l 207 0 b 226 19 221 0 226 6 l 226 953 b 207 972 226 967 221 972 l 113 972 b 93 953 99 972 93 967 l 93 19 b 113 0 93 6 99 0 z "},"Ī":{"ha":319,"x_min":0,"x_max":0,"o":"m -65 1131 l 385 1131 b 406 1151 397 1131 406 1138 l 406 1229 b 385 1250 406 1243 397 1250 l -65 1250 b -86 1229 -79 1250 -86 1243 l -86 1151 b -65 1131 -86 1138 -79 1131 z m 113 0 l 207 0 b 226 19 221 0 226 6 l 226 953 b 207 972 226 967 221 972 l 113 972 b 93 953 99 972 93 967 l 93 19 b 113 0 93 6 99 0 z "},"Į":{"ha":303,"x_min":0,"x_max":0,"o":"m 210 972 l 115 972 b 96 953 101 972 96 967 l 96 -15 b 50 -54 96 -44 85 -50 l -3 -60 b -110 -168 -83 -68 -110 -82 b 24 -283 -110 -261 -81 -283 l 196 -283 b 210 -269 206 -283 210 -278 l 210 -211 b 196 -196 210 -201 204 -196 l 46 -196 b 8 -167 15 -196 8 -187 b 33 -139 8 -144 14 -140 l 146 -125 b 229 -43 204 -118 229 -107 l 229 953 b 210 972 229 967 224 972 z "},"J":{"ha":517,"x_min":0,"x_max":0,"o":"m 79 -7 l 135 -7 b 424 275 335 -7 424 96 l 424 953 b 404 972 424 967 418 972 l 310 972 b 290 953 296 972 290 967 l 290 279 b 128 114 290 160 235 114 l 79 114 b 58 94 65 114 58 108 l 58 13 b 79 -7 58 -1 65 -7 z "},"Ĵ":{"ha":517,"x_min":0,"x_max":0,"o":"m 304 1250 b 268 1231 289 1250 279 1244 l 124 1067 b 133 1042 113 1054 119 1042 l 219 1042 b 260 1065 238 1042 246 1049 l 346 1164 l 360 1164 l 446 1065 b 486 1042 461 1049 469 1042 l 574 1042 b 583 1067 588 1042 593 1054 l 439 1231 b 400 1250 428 1244 415 1250 z m 79 -7 l 135 -7 b 424 275 335 -7 424 96 l 424 953 b 404 972 424 967 418 972 l 310 972 b 290 953 296 972 290 967 l 290 279 b 128 114 290 160 235 114 l 79 114 b 58 94 65 114 58 108 l 58 13 b 79 -7 58 -1 65 -7 z "},"K":{"ha":824,"x_min":0,"x_max":0,"o":"m 767 31 l 407 531 l 742 940 b 733 972 756 957 750 972 l 625 972 b 592 951 610 972 601 964 l 226 496 l 226 953 b 207 972 226 967 221 972 l 113 972 b 93 953 99 972 93 967 l 93 19 b 113 0 93 6 99 0 l 207 0 b 226 19 221 0 226 6 l 226 308 l 322 426 l 614 19 b 651 0 625 4 638 0 l 758 0 b 767 31 775 0 775 19 z "},"Ķ":{"ha":824,"x_min":0,"x_max":0,"o":"m 767 31 l 407 531 l 742 940 b 733 972 756 957 750 972 l 625 972 b 592 951 610 972 601 964 l 226 496 l 226 953 b 207 972 226 967 221 972 l 113 972 b 93 953 99 972 93 967 l 93 19 b 113 0 93 6 99 0 l 207 0 b 226 19 221 0 226 6 l 226 308 l 322 426 l 614 19 b 651 0 625 4 638 0 l 758 0 b 767 31 775 0 775 19 z m 442 -83 l 365 -83 b 346 -103 351 -83 346 -89 l 346 -322 l 294 -322 b 275 -342 281 -322 275 -328 l 275 -412 b 294 -432 275 -426 281 -432 l 418 -432 b 461 -389 447 -432 461 -418 l 461 -103 b 442 -83 461 -89 456 -83 z "},"L":{"ha":703,"x_min":0,"x_max":0,"o":"m 114 0 l 624 0 b 644 19 638 0 644 6 l 644 101 b 624 121 644 115 638 121 l 226 121 l 226 953 b 207 972 226 967 221 972 l 113 972 b 93 953 99 972 93 967 l 93 19 b 114 0 93 6 100 0 z "},"Ĺ":{"ha":703,"x_min":0,"x_max":0,"o":"m 193 1225 l 110 1065 b 124 1040 101 1049 108 1040 l 201 1040 b 232 1065 215 1040 222 1051 l 357 1225 b 343 1250 369 1240 358 1250 l 222 1250 b 193 1225 208 1250 203 1242 z m 114 0 l 624 0 b 644 19 638 0 644 6 l 644 101 b 624 121 644 115 638 121 l 226 121 l 226 953 b 207 972 226 967 221 972 l 113 972 b 93 953 99 972 93 967 l 93 19 b 114 0 93 6 100 0 z "},"Ľ":{"ha":703,"x_min":0,"x_max":0,"o":"m 114 0 l 624 0 b 644 19 638 0 644 6 l 644 101 b 624 121 644 115 638 121 l 226 121 l 226 953 b 207 972 226 967 221 972 l 113 972 b 93 953 99 972 93 967 l 93 19 b 114 0 93 6 100 0 z m 515 972 l 439 972 b 419 953 425 972 419 967 l 419 733 l 368 733 b 349 714 354 733 349 728 l 349 643 b 368 624 349 629 354 624 l 492 624 b 535 667 521 624 535 638 l 535 953 b 515 972 535 967 529 972 z "},"Ļ":{"ha":703,"x_min":0,"x_max":0,"o":"m 114 0 l 624 0 b 644 19 638 0 644 6 l 644 101 b 624 121 644 115 638 121 l 226 121 l 226 953 b 207 972 226 967 221 972 l 113 972 b 93 953 99 972 93 967 l 93 19 b 114 0 93 6 100 0 z m 408 -83 l 332 -83 b 313 -103 318 -83 313 -89 l 313 -322 l 261 -322 b 242 -342 247 -322 242 -328 l 242 -412 b 261 -432 242 -426 247 -432 l 385 -432 b 428 -389 414 -432 428 -418 l 428 -103 b 408 -83 428 -89 422 -83 z "},"Ŀ":{"ha":703,"x_min":0,"x_max":0,"o":"m 114 0 l 624 0 b 644 19 638 0 644 6 l 644 101 b 624 121 644 115 638 121 l 226 121 l 226 953 b 207 972 226 967 221 972 l 113 972 b 93 953 99 972 93 967 l 93 19 b 114 0 93 6 100 0 z m 418 443 l 515 443 b 535 463 529 443 535 449 l 535 560 b 515 581 535 574 529 581 l 418 581 b 399 560 404 581 399 574 l 399 463 b 418 443 399 449 404 443 z "},"Ł":{"ha":756,"x_min":0,"x_max":0,"o":"m 676 121 l 279 121 l 279 363 l 510 629 b 497 653 522 643 514 653 l 392 653 b 360 629 381 653 375 647 l 279 536 l 279 953 b 260 972 279 967 274 972 l 165 972 b 146 953 151 972 146 967 l 146 383 l 13 229 b 26 206 0 215 10 206 l 132 206 b 146 210 138 206 142 207 l 146 19 b 167 0 146 6 153 0 l 676 0 b 697 19 690 0 697 6 l 697 101 b 676 121 697 115 690 121 z "},"M":{"ha":1053,"x_min":0,"x_max":0,"o":"m 113 0 l 207 0 b 226 19 221 0 226 6 l 226 804 l 239 804 l 436 21 b 463 0 439 7 450 0 l 590 0 b 617 21 603 0 614 7 l 814 804 l 826 804 l 826 19 b 846 0 826 6 832 0 l 940 0 b 960 19 954 0 960 6 l 960 953 b 940 972 960 967 954 972 l 758 972 b 732 951 744 972 735 965 l 531 157 l 521 157 l 321 951 b 294 972 318 965 308 972 l 113 972 b 93 953 99 972 93 967 l 93 19 b 113 0 93 6 99 0 z "},"Ḿ":{"ha":1053,"x_min":0,"x_max":0,"o":"m 564 1219 l 481 1060 b 494 1035 472 1043 479 1035 l 572 1035 b 603 1060 586 1035 593 1046 l 728 1219 b 714 1244 740 1235 729 1244 l 593 1244 b 564 1219 579 1244 574 1236 z m 113 0 l 207 0 b 226 19 221 0 226 6 l 226 804 l 239 804 l 436 21 b 463 0 439 7 450 0 l 590 0 b 617 21 603 0 614 7 l 814 804 l 826 804 l 826 19 b 846 0 826 6 832 0 l 940 0 b 960 19 954 0 960 6 l 960 953 b 940 972 960 967 954 972 l 758 972 b 732 951 744 972 735 965 l 531 157 l 521 157 l 321 951 b 294 972 318 965 308 972 l 113 972 b 93 953 99 972 93 967 l 93 19 b 113 0 93 6 99 0 z "},"N":{"ha":875,"x_min":0,"x_max":0,"o":"m 113 0 l 207 0 b 226 19 221 0 226 6 l 226 804 l 239 804 l 568 15 b 593 0 572 4 582 0 l 763 0 b 782 19 776 0 782 6 l 782 953 b 763 972 782 967 776 972 l 668 972 b 649 953 654 972 649 967 l 649 168 l 636 168 l 307 957 b 282 972 303 968 293 972 l 113 972 b 93 953 99 972 93 967 l 93 19 b 113 0 93 6 99 0 z "},"Ń":{"ha":875,"x_min":0,"x_max":0,"o":"m 471 1225 l 388 1065 b 401 1040 379 1049 386 1040 l 479 1040 b 510 1065 493 1040 500 1051 l 635 1225 b 621 1250 647 1240 636 1250 l 500 1250 b 471 1225 486 1250 481 1242 z m 113 0 l 207 0 b 226 19 221 0 226 6 l 226 804 l 239 804 l 568 15 b 593 0 572 4 582 0 l 763 0 b 782 19 776 0 782 6 l 782 953 b 763 972 782 967 776 972 l 668 972 b 649 953 654 972 649 967 l 649 168 l 636 168 l 307 957 b 282 972 303 968 293 972 l 113 972 b 93 953 99 972 93 967 l 93 19 b 113 0 93 6 99 0 z "},"Ň":{"ha":875,"x_min":0,"x_max":0,"o":"m 389 1042 l 485 1042 b 524 1060 500 1042 513 1047 l 668 1225 b 658 1250 678 1238 672 1250 l 571 1250 b 531 1226 554 1250 546 1243 l 444 1128 l 431 1128 l 344 1226 b 304 1250 331 1243 322 1250 l 218 1250 b 208 1225 204 1250 197 1238 l 353 1060 b 389 1042 364 1046 374 1042 z m 113 0 l 207 0 b 226 19 221 0 226 6 l 226 804 l 239 804 l 568 15 b 593 0 572 4 582 0 l 763 0 b 782 19 776 0 782 6 l 782 953 b 763 972 782 967 776 972 l 668 972 b 649 953 654 972 649 967 l 649 168 l 636 168 l 307 957 b 282 972 303 968 293 972 l 113 972 b 93 953 99 972 93 967 l 93 19 b 113 0 93 6 99 0 z "},"Ņ":{"ha":875,"x_min":0,"x_max":0,"o":"m 113 0 l 207 0 b 226 19 221 0 226 6 l 226 804 l 239 804 l 568 15 b 593 0 572 4 582 0 l 763 0 b 782 19 776 0 782 6 l 782 953 b 763 972 782 967 776 972 l 668 972 b 649 953 654 972 649 967 l 649 168 l 636 168 l 307 957 b 282 972 303 968 293 972 l 113 972 b 93 953 99 972 93 967 l 93 19 b 113 0 93 6 99 0 z m 474 -83 l 397 -83 b 378 -103 383 -83 378 -89 l 378 -322 l 326 -322 b 307 -342 313 -322 307 -328 l 307 -412 b 326 -432 307 -426 313 -432 l 450 -432 b 493 -389 479 -432 493 -418 l 493 -103 b 474 -83 493 -89 488 -83 z "},"Ŋ":{"ha":875,"x_min":0,"x_max":0,"o":"m 763 972 l 668 972 b 649 953 654 972 649 967 l 649 168 l 636 168 l 307 957 b 282 972 303 968 293 972 l 113 972 b 93 953 99 972 93 967 l 93 19 b 113 0 93 6 99 0 l 207 0 b 226 19 221 0 226 6 l 226 804 l 239 804 l 568 15 b 593 0 572 4 582 0 l 649 0 b 486 -164 649 -118 593 -164 l 438 -164 b 417 -183 424 -164 417 -169 l 417 -265 b 438 -285 417 -279 424 -285 l 493 -285 b 782 -3 693 -285 782 -182 l 782 953 b 763 972 782 967 776 972 z "},"Ñ":{"ha":875,"x_min":0,"x_max":0,"o":"m 533 1082 b 661 1124 576 1082 617 1093 b 672 1151 672 1132 676 1140 l 644 1217 b 621 1224 640 1226 633 1231 b 538 1196 588 1203 568 1196 b 342 1257 463 1196 435 1257 b 214 1215 299 1257 258 1246 b 203 1188 203 1207 197 1200 l 231 1122 b 254 1117 235 1114 242 1108 b 336 1143 286 1136 306 1143 b 533 1082 413 1143 440 1082 z m 113 0 l 207 0 b 226 19 221 0 226 6 l 226 804 l 239 804 l 568 15 b 593 0 572 4 582 0 l 763 0 b 782 19 776 0 782 6 l 782 953 b 763 972 782 967 776 972 l 668 972 b 649 953 654 972 649 967 l 649 168 l 636 168 l 307 957 b 282 972 303 968 293 972 l 113 972 b 93 953 99 972 93 967 l 93 19 b 113 0 93 6 99 0 z "},"O":{"ha":885,"x_min":0,"x_max":0,"o":"m 382 -7 l 503 -7 b 792 275 703 -7 792 96 l 792 697 b 503 979 792 876 703 979 l 382 979 b 93 697 182 979 93 876 l 93 275 b 382 -7 93 96 182 -7 z m 389 114 b 226 279 281 114 226 160 l 226 693 b 389 858 226 811 281 858 l 496 858 b 658 693 603 858 658 811 l 658 279 b 496 114 658 160 603 114 z "},"Ó":{"ha":885,"x_min":0,"x_max":0,"o":"m 476 1225 l 393 1065 b 407 1040 385 1049 392 1040 l 485 1040 b 515 1065 499 1040 506 1051 l 640 1225 b 626 1250 653 1240 642 1250 l 506 1250 b 476 1225 492 1250 486 1242 z m 382 -7 l 503 -7 b 792 275 703 -7 792 96 l 792 697 b 503 979 792 876 703 979 l 382 979 b 93 697 182 979 93 876 l 93 275 b 382 -7 93 96 182 -7 z m 389 114 b 226 279 281 114 226 160 l 226 693 b 389 858 226 811 281 858 l 496 858 b 658 693 603 858 658 811 l 658 279 b 496 114 658 160 603 114 z "},"Ǒ":{"ha":885,"x_min":0,"x_max":0,"o":"m 394 1042 l 490 1042 b 529 1060 506 1042 518 1047 l 674 1225 b 664 1250 683 1238 678 1250 l 576 1250 b 536 1226 560 1250 551 1243 l 450 1128 l 436 1128 l 350 1226 b 310 1250 336 1243 328 1250 l 224 1250 b 214 1225 210 1250 203 1238 l 358 1060 b 394 1042 369 1046 379 1042 z m 382 -7 l 503 -7 b 792 275 703 -7 792 96 l 792 697 b 503 979 792 876 703 979 l 382 979 b 93 697 182 979 93 876 l 93 275 b 382 -7 93 96 182 -7 z m 389 114 b 226 279 281 114 226 160 l 226 693 b 389 858 226 811 281 858 l 496 858 b 658 693 603 858 658 811 l 658 279 b 496 114 658 160 603 114 z "},"Ô":{"ha":885,"x_min":0,"x_max":0,"o":"m 390 1250 b 354 1231 375 1250 365 1244 l 210 1067 b 219 1042 199 1054 206 1042 l 306 1042 b 346 1065 324 1042 332 1049 l 432 1164 l 446 1164 l 532 1065 b 572 1042 547 1049 556 1042 l 660 1042 b 669 1067 674 1042 679 1054 l 525 1231 b 486 1250 514 1244 501 1250 z m 382 -7 l 503 -7 b 792 275 703 -7 792 96 l 792 697 b 503 979 792 876 703 979 l 382 979 b 93 697 182 979 93 876 l 93 275 b 382 -7 93 96 182 -7 z m 389 114 b 226 279 281 114 226 160 l 226 693 b 389 858 226 811 281 858 l 496 858 b 658 693 603 858 658 811 l 658 279 b 496 114 658 160 603 114 z "},"Ö":{"ha":885,"x_min":0,"x_max":0,"o":"m 197 1113 l 294 1113 b 315 1133 308 1113 315 1119 l 315 1231 b 294 1250 315 1244 308 1250 l 197 1250 b 178 1231 183 1250 178 1244 l 178 1133 b 197 1113 178 1119 183 1113 z m 592 1113 l 689 1113 b 708 1133 703 1113 708 1119 l 708 1231 b 689 1250 708 1244 703 1250 l 592 1250 b 571 1231 578 1250 571 1244 l 571 1133 b 592 1113 571 1119 578 1113 z m 382 -7 l 503 -7 b 792 275 703 -7 792 96 l 792 697 b 503 979 792 876 703 979 l 382 979 b 93 697 182 979 93 876 l 93 275 b 382 -7 93 96 182 -7 z m 389 114 b 226 279 281 114 226 160 l 226 693 b 389 858 226 811 281 858 l 496 858 b 658 693 603 858 658 811 l 658 279 b 496 114 658 160 603 114 z "},"Ò":{"ha":885,"x_min":0,"x_max":0,"o":"m 414 1225 b 385 1250 406 1242 399 1250 l 264 1250 b 250 1225 249 1250 238 1240 l 375 1065 b 407 1040 386 1051 393 1040 l 483 1040 b 497 1065 499 1040 507 1049 z m 382 -7 l 503 -7 b 792 275 703 -7 792 96 l 792 697 b 503 979 792 876 703 979 l 382 979 b 93 697 182 979 93 876 l 93 275 b 382 -7 93 96 182 -7 z m 389 114 b 226 279 281 114 226 160 l 226 693 b 389 858 226 811 281 858 l 496 858 b 658 693 603 858 658 811 l 658 279 b 496 114 658 160 603 114 z "},"Ő":{"ha":885,"x_min":0,"x_max":0,"o":"m 360 1225 l 276 1065 b 290 1040 268 1049 275 1040 l 368 1040 b 399 1065 382 1040 389 1051 l 524 1225 b 510 1250 536 1240 525 1250 l 389 1250 b 360 1225 375 1250 369 1242 z m 588 1225 l 504 1065 b 518 1040 494 1049 503 1040 l 594 1040 b 626 1065 608 1040 615 1051 l 751 1225 b 738 1250 764 1240 753 1250 l 617 1250 b 588 1225 603 1250 596 1242 z m 382 -7 l 503 -7 b 792 275 703 -7 792 96 l 792 697 b 503 979 792 876 703 979 l 382 979 b 93 697 182 979 93 876 l 93 275 b 382 -7 93 96 182 -7 z m 389 114 b 226 279 281 114 226 160 l 226 693 b 389 858 226 811 281 858 l 496 858 b 658 693 603 858 658 811 l 658 279 b 496 114 658 160 603 114 z "},"Ō":{"ha":885,"x_min":0,"x_max":0,"o":"m 218 1131 l 668 1131 b 689 1151 681 1131 689 1138 l 689 1229 b 668 1250 689 1243 681 1250 l 218 1250 b 197 1229 204 1250 197 1243 l 197 1151 b 218 1131 197 1138 204 1131 z m 382 -7 l 503 -7 b 792 275 703 -7 792 96 l 792 697 b 503 979 792 876 703 979 l 382 979 b 93 697 182 979 93 876 l 93 275 b 382 -7 93 96 182 -7 z m 389 114 b 226 279 281 114 226 160 l 226 693 b 389 858 226 811 281 858 l 496 858 b 658 693 603 858 658 811 l 658 279 b 496 114 658 160 603 114 z "},"Ø":{"ha":885,"x_min":0,"x_max":0,"o":"m 697 926 l 728 997 b 714 1019 733 1011 728 1019 l 621 1019 b 594 999 607 1019 600 1013 l 583 972 b 503 979 558 976 532 979 l 382 979 b 93 697 182 979 93 876 l 93 275 b 189 44 93 171 124 92 l 158 -26 b 172 -47 153 -40 158 -47 l 265 -47 b 292 -26 279 -47 286 -40 l 303 0 b 382 -7 326 -4 353 -7 l 503 -7 b 792 275 703 -7 792 96 l 792 697 b 697 926 792 801 761 879 z m 226 279 l 226 693 b 389 858 226 811 281 858 l 496 858 b 533 856 510 858 522 857 l 246 181 b 226 279 233 206 226 238 z m 658 279 b 496 114 658 160 603 114 l 389 114 b 353 115 376 114 364 114 l 639 790 b 658 693 651 765 658 733 z "},"Õ":{"ha":885,"x_min":0,"x_max":0,"o":"m 539 1082 b 667 1124 582 1082 622 1093 b 678 1151 678 1132 682 1140 l 650 1217 b 626 1224 646 1226 639 1231 b 543 1196 593 1203 574 1196 b 347 1257 468 1196 440 1257 b 219 1215 304 1257 264 1246 b 208 1188 208 1207 203 1200 l 236 1122 b 260 1117 240 1114 247 1108 b 342 1143 292 1136 311 1143 b 539 1082 418 1143 446 1082 z m 382 -7 l 503 -7 b 792 275 703 -7 792 96 l 792 697 b 503 979 792 876 703 979 l 382 979 b 93 697 182 979 93 876 l 93 275 b 382 -7 93 96 182 -7 z m 389 114 b 226 279 281 114 226 160 l 226 693 b 389 858 226 811 281 858 l 496 858 b 658 693 603 858 658 811 l 658 279 b 496 114 658 160 603 114 z "},"Œ":{"ha":1296,"x_min":0,"x_max":0,"o":"m 1224 121 l 792 121 l 792 429 l 1183 429 b 1204 449 1197 429 1204 435 l 1204 526 b 1183 546 1204 540 1197 546 l 792 546 l 792 851 l 1219 851 b 1239 871 1233 851 1239 857 l 1239 953 b 1219 972 1239 967 1233 972 l 679 972 b 658 953 665 972 658 967 l 658 950 b 503 979 617 969 565 979 l 382 979 b 93 697 182 979 93 876 l 93 275 b 382 -7 93 96 182 -7 l 503 -7 b 658 22 565 -7 617 3 l 658 19 b 679 0 658 6 665 0 l 1224 0 b 1244 19 1238 0 1244 6 l 1244 101 b 1224 121 1244 115 1238 121 z m 496 114 l 389 114 b 226 279 281 114 226 160 l 226 693 b 389 858 226 811 281 858 l 496 858 b 658 693 603 858 658 811 l 658 279 b 496 114 658 160 603 114 z "},"P":{"ha":831,"x_min":0,"x_max":0,"o":"m 465 972 l 113 972 b 93 953 99 972 93 967 l 93 19 b 113 0 93 6 99 0 l 207 0 b 226 19 221 0 226 6 l 226 271 l 465 271 b 751 550 667 271 751 369 l 751 693 b 465 972 751 874 667 972 z m 618 553 b 458 392 618 435 565 392 l 226 392 l 226 851 l 458 851 b 618 689 565 851 618 807 z "},"Þ":{"ha":844,"x_min":0,"x_max":0,"o":"m 465 838 l 226 838 l 226 953 b 207 972 226 967 221 972 l 113 972 b 93 953 99 972 93 967 l 93 19 b 113 0 93 6 99 0 l 207 0 b 226 19 221 0 226 6 l 226 136 l 465 136 b 751 415 665 136 751 236 l 751 557 b 465 838 751 738 665 838 z m 618 418 b 458 257 618 300 565 257 l 226 257 l 226 717 l 458 717 b 618 554 565 717 618 672 z "},"Q":{"ha":885,"x_min":0,"x_max":0,"o":"m 503 979 l 382 979 b 93 697 182 979 93 876 l 93 275 b 376 -7 93 97 181 -6 l 376 -110 b 396 -129 376 -124 382 -129 l 490 -129 b 510 -110 504 -129 510 -124 l 510 -7 b 792 275 704 -4 792 99 l 792 697 b 503 979 792 876 703 979 z m 658 279 b 496 114 658 160 603 114 l 389 114 b 226 279 281 114 226 160 l 226 693 b 389 858 226 811 281 858 l 496 858 b 658 693 603 858 658 811 z "},"R":{"ha":828,"x_min":0,"x_max":0,"o":"m 751 550 l 751 693 b 465 972 751 874 667 972 l 113 972 b 93 953 99 972 93 967 l 93 19 b 113 0 93 6 99 0 l 207 0 b 226 19 221 0 226 6 l 226 271 l 465 271 b 500 272 476 271 489 271 l 613 18 b 642 0 618 6 629 0 l 728 0 b 747 29 747 0 756 11 l 625 301 b 751 550 713 343 751 428 z m 226 392 l 226 851 l 458 851 b 618 689 565 851 618 807 l 618 553 b 458 392 618 435 565 392 z "},"Ŕ":{"ha":828,"x_min":0,"x_max":0,"o":"m 360 1040 l 438 1040 b 468 1065 451 1040 458 1051 l 593 1225 b 579 1250 606 1240 594 1250 l 458 1250 b 429 1225 444 1250 439 1242 l 346 1065 b 360 1040 338 1049 344 1040 z m 751 550 l 751 693 b 465 972 751 874 667 972 l 113 972 b 93 953 99 972 93 967 l 93 19 b 113 0 93 6 99 0 l 207 0 b 226 19 221 0 226 6 l 226 271 l 465 271 b 500 272 476 271 489 271 l 613 18 b 642 0 618 6 629 0 l 728 0 b 747 29 747 0 756 11 l 625 301 b 751 550 713 343 751 428 z m 226 392 l 226 851 l 458 851 b 618 689 565 851 618 807 l 618 553 b 458 392 618 435 565 392 z "},"Ř":{"ha":828,"x_min":0,"x_max":0,"o":"m 310 1060 b 346 1042 321 1046 331 1042 l 442 1042 b 481 1060 457 1042 469 1047 l 625 1225 b 615 1250 635 1238 629 1250 l 528 1250 b 488 1226 511 1250 503 1243 l 401 1128 l 388 1128 l 301 1226 b 261 1250 288 1243 279 1250 l 175 1250 b 165 1225 161 1250 154 1238 z m 751 550 l 751 693 b 465 972 751 874 667 972 l 113 972 b 93 953 99 972 93 967 l 93 19 b 113 0 93 6 99 0 l 207 0 b 226 19 221 0 226 6 l 226 271 l 465 271 b 500 272 476 271 489 271 l 613 18 b 642 0 618 6 629 0 l 728 0 b 747 29 747 0 756 11 l 625 301 b 751 550 713 343 751 428 z m 226 392 l 226 851 l 458 851 b 618 689 565 851 618 807 l 618 553 b 458 392 618 435 565 392 z "},"Ŗ":{"ha":828,"x_min":0,"x_max":0,"o":"m 751 550 l 751 693 b 465 972 751 874 667 972 l 113 972 b 93 953 99 972 93 967 l 93 19 b 113 0 93 6 99 0 l 207 0 b 226 19 221 0 226 6 l 226 271 l 465 271 b 500 272 476 271 489 271 l 613 18 b 642 0 618 6 629 0 l 728 0 b 747 29 747 0 756 11 l 625 301 b 751 550 713 343 751 428 z m 226 392 l 226 851 l 458 851 b 618 689 565 851 618 807 l 618 553 b 458 392 618 435 565 392 z m 431 -83 l 354 -83 b 335 -103 340 -83 335 -89 l 335 -322 l 283 -322 b 264 -342 269 -322 264 -328 l 264 -412 b 283 -432 264 -426 269 -432 l 407 -432 b 450 -389 436 -432 450 -418 l 450 -103 b 431 -83 450 -89 444 -83 z "},"S":{"ha":819,"x_min":0,"x_max":0,"o":"m 360 -7 l 465 -7 b 747 267 650 -7 747 78 b 439 546 747 482 611 518 l 375 556 b 215 721 267 574 215 611 b 375 858 215 825 275 858 l 438 858 b 592 725 535 858 588 822 b 617 700 592 708 603 700 l 700 700 b 725 725 717 700 725 708 b 447 979 725 894 625 979 l 367 979 b 82 725 185 979 82 903 b 374 442 82 508 206 468 l 439 431 b 614 267 547 413 614 385 b 451 114 614 150 551 114 l 374 114 b 206 243 272 114 208 147 b 179 268 204 260 194 268 l 96 268 b 72 243 81 268 72 260 b 360 -7 72 75 171 -7 z "},"Ś":{"ha":819,"x_min":0,"x_max":0,"o":"m 443 1225 l 360 1065 b 374 1040 351 1049 358 1040 l 451 1040 b 482 1065 465 1040 472 1051 l 607 1225 b 593 1250 619 1240 608 1250 l 472 1250 b 443 1225 458 1250 453 1242 z m 360 -7 l 465 -7 b 747 267 650 -7 747 78 b 439 546 747 482 611 518 l 375 556 b 215 721 267 574 215 611 b 375 858 215 825 275 858 l 438 858 b 592 725 535 858 588 822 b 617 700 592 708 603 700 l 700 700 b 725 725 717 700 725 708 b 447 979 725 894 625 979 l 367 979 b 82 725 185 979 82 903 b 374 442 82 508 206 468 l 439 431 b 614 267 547 413 614 385 b 451 114 614 150 551 114 l 374 114 b 206 243 272 114 208 147 b 179 268 204 260 194 268 l 96 268 b 72 243 81 268 72 260 b 360 -7 72 75 171 -7 z "},"Š":{"ha":819,"x_min":0,"x_max":0,"o":"m 361 1042 l 457 1042 b 496 1060 472 1042 485 1047 l 640 1225 b 631 1250 650 1238 644 1250 l 543 1250 b 503 1226 526 1250 518 1243 l 417 1128 l 403 1128 l 317 1226 b 276 1250 303 1243 294 1250 l 190 1250 b 181 1225 176 1250 169 1238 l 325 1060 b 361 1042 336 1046 346 1042 z m 360 -7 l 465 -7 b 747 267 650 -7 747 78 b 439 546 747 482 611 518 l 375 556 b 215 721 267 574 215 611 b 375 858 215 825 275 858 l 438 858 b 592 725 535 858 588 822 b 617 700 592 708 603 700 l 700 700 b 725 725 717 700 725 708 b 447 979 725 894 625 979 l 367 979 b 82 725 185 979 82 903 b 374 442 82 508 206 468 l 439 431 b 614 267 547 413 614 385 b 451 114 614 150 551 114 l 374 114 b 206 243 272 114 208 147 b 179 268 204 260 194 268 l 96 268 b 72 243 81 268 72 260 b 360 -7 72 75 171 -7 z "},"Ş":{"ha":819,"x_min":0,"x_max":0,"o":"m 489 -7 b 747 267 658 0 747 86 b 439 546 747 482 611 518 l 375 556 b 215 721 267 574 215 611 b 375 858 215 825 275 858 l 438 858 b 592 725 535 858 588 822 b 617 700 592 708 603 700 l 700 700 b 725 725 717 700 725 708 b 447 979 725 894 625 979 l 367 979 b 82 725 185 979 82 903 b 374 442 82 508 206 468 l 439 431 b 614 267 547 413 614 385 b 451 114 614 150 551 114 l 374 114 b 206 243 272 114 208 147 b 179 268 204 260 194 268 l 96 268 b 72 243 81 268 72 260 b 360 -7 72 75 171 -7 l 374 -7 b 322 -82 336 -42 322 -58 b 376 -131 322 -114 347 -128 b 518 -169 488 -142 518 -143 b 464 -201 518 -197 500 -201 l 436 -201 b 383 -168 400 -201 385 -190 b 368 -154 382 -160 376 -154 l 294 -154 b 281 -171 283 -154 281 -161 b 401 -282 281 -240 311 -282 l 490 -282 b 621 -169 581 -282 621 -243 b 488 -60 621 -83 575 -69 b 489 -7 453 -56 429 -50 z "},"Ŝ":{"ha":819,"x_min":0,"x_max":0,"o":"m 357 1250 b 321 1231 342 1250 332 1244 l 176 1067 b 186 1042 165 1054 172 1042 l 272 1042 b 313 1065 290 1042 299 1049 l 399 1164 l 413 1164 l 499 1065 b 539 1042 514 1049 522 1042 l 626 1042 b 636 1067 640 1042 646 1054 l 492 1231 b 453 1250 481 1244 468 1250 z m 360 -7 l 465 -7 b 747 267 650 -7 747 78 b 439 546 747 482 611 518 l 375 556 b 215 721 267 574 215 611 b 375 858 215 825 275 858 l 438 858 b 592 725 535 858 588 822 b 617 700 592 708 603 700 l 700 700 b 725 725 717 700 725 708 b 447 979 725 894 625 979 l 367 979 b 82 725 185 979 82 903 b 374 442 82 508 206 468 l 439 431 b 614 267 547 413 614 385 b 451 114 614 150 551 114 l 374 114 b 206 243 272 114 208 147 b 179 268 204 260 194 268 l 96 268 b 72 243 81 268 72 260 b 360 -7 72 75 171 -7 z "},"Ș":{"ha":819,"x_min":0,"x_max":0,"o":"m 360 -7 l 465 -7 b 747 267 650 -7 747 78 b 439 546 747 482 611 518 l 375 556 b 215 721 267 574 215 611 b 375 858 215 825 275 858 l 438 858 b 592 725 535 858 588 822 b 617 700 592 708 603 700 l 700 700 b 725 725 717 700 725 708 b 447 979 725 894 625 979 l 367 979 b 82 725 185 979 82 903 b 374 442 82 508 206 468 l 439 431 b 614 267 547 413 614 385 b 451 114 614 150 551 114 l 374 114 b 206 243 272 114 208 147 b 179 268 204 260 194 268 l 96 268 b 72 243 81 268 72 260 b 360 -7 72 75 171 -7 z m 446 -83 l 369 -83 b 350 -103 356 -83 350 -89 l 350 -322 l 299 -322 b 279 -342 285 -322 279 -328 l 279 -412 b 299 -432 279 -426 285 -432 l 422 -432 b 465 -389 451 -432 465 -418 l 465 -103 b 446 -83 465 -89 460 -83 z "},"T":{"ha":749,"x_min":0,"x_max":0,"o":"m 663 972 l 86 972 b 65 953 72 972 65 967 l 65 871 b 86 851 65 857 72 851 l 308 851 l 308 19 b 328 0 308 6 314 0 l 422 0 b 442 19 436 0 442 6 l 442 851 l 663 851 b 683 871 676 851 683 857 l 683 953 b 663 972 683 967 676 972 z "},"Ŧ":{"ha":738,"x_min":0,"x_max":0,"o":"m 663 972 l 86 972 b 65 953 72 972 65 967 l 65 871 b 86 851 65 857 72 851 l 308 851 l 308 644 l 150 644 b 129 624 136 644 129 638 l 129 546 b 150 525 129 532 136 525 l 308 525 l 308 19 b 328 0 308 6 314 0 l 422 0 b 442 19 436 0 442 6 l 442 525 l 600 525 b 621 546 613 525 621 532 l 621 624 b 600 644 621 638 613 644 l 442 644 l 442 851 l 663 851 b 683 871 676 851 683 857 l 683 953 b 663 972 683 967 676 972 z "},"Ť":{"ha":749,"x_min":0,"x_max":0,"o":"m 289 1060 b 325 1042 300 1046 310 1042 l 421 1042 b 460 1060 436 1042 449 1047 l 604 1225 b 594 1250 614 1238 608 1250 l 507 1250 b 467 1226 490 1250 482 1243 l 381 1128 l 367 1128 l 281 1226 b 240 1250 267 1243 258 1250 l 154 1250 b 144 1225 140 1250 133 1238 z m 663 972 l 86 972 b 65 953 72 972 65 967 l 65 871 b 86 851 65 857 72 851 l 308 851 l 308 19 b 328 0 308 6 314 0 l 422 0 b 442 19 436 0 442 6 l 442 851 l 663 851 b 683 871 676 851 683 857 l 683 953 b 663 972 683 967 676 972 z "},"Ţ":{"ha":749,"x_min":0,"x_max":0,"o":"m 663 972 l 86 972 b 65 953 72 972 65 967 l 65 871 b 86 851 65 857 72 851 l 308 851 l 308 19 b 328 0 308 6 314 0 l 346 0 b 288 -82 303 -40 288 -57 b 342 -131 288 -114 313 -128 b 483 -169 453 -142 483 -143 b 429 -201 483 -197 465 -201 l 401 -201 b 349 -168 365 -201 350 -190 b 333 -154 347 -160 342 -154 l 260 -154 b 246 -171 249 -154 246 -161 b 367 -282 246 -240 276 -282 l 456 -282 b 586 -169 546 -282 586 -243 b 453 -60 586 -83 540 -69 b 463 0 417 -56 392 -50 l 422 0 b 442 19 436 0 442 6 l 442 851 l 663 851 b 683 871 676 851 683 857 l 683 953 b 663 972 683 967 676 972 z "},"Ț":{"ha":749,"x_min":0,"x_max":0,"o":"m 663 972 l 86 972 b 65 953 72 972 65 967 l 65 871 b 86 851 65 857 72 851 l 308 851 l 308 19 b 328 0 308 6 314 0 l 422 0 b 442 19 436 0 442 6 l 442 851 l 663 851 b 683 871 676 851 683 857 l 683 953 b 663 972 683 967 676 972 z m 411 -83 l 335 -83 b 315 -103 321 -83 315 -89 l 315 -322 l 264 -322 b 244 -342 250 -322 244 -328 l 244 -412 b 264 -432 244 -426 250 -432 l 388 -432 b 431 -389 417 -432 431 -418 l 431 -103 b 411 -83 431 -89 425 -83 z "},"U":{"ha":885,"x_min":0,"x_max":0,"o":"m 382 -7 l 503 -7 b 792 275 703 -7 792 96 l 792 953 b 772 972 792 967 786 972 l 678 972 b 658 953 664 972 658 967 l 658 279 b 496 114 658 160 603 114 l 389 114 b 226 279 281 114 226 160 l 226 953 b 207 972 226 967 221 972 l 113 972 b 93 953 99 972 93 967 l 93 275 b 382 -7 93 96 182 -7 z "},"Ú":{"ha":885,"x_min":0,"x_max":0,"o":"m 476 1225 l 393 1065 b 407 1040 385 1049 392 1040 l 485 1040 b 515 1065 499 1040 506 1051 l 640 1225 b 626 1250 653 1240 642 1250 l 506 1250 b 476 1225 492 1250 486 1242 z m 382 -7 l 503 -7 b 792 275 703 -7 792 96 l 792 953 b 772 972 792 967 786 972 l 678 972 b 658 953 664 972 658 967 l 658 279 b 496 114 658 160 603 114 l 389 114 b 226 279 281 114 226 160 l 226 953 b 207 972 226 967 221 972 l 113 972 b 93 953 99 972 93 967 l 93 275 b 382 -7 93 96 182 -7 z "},"Ŭ":{"ha":885,"x_min":0,"x_max":0,"o":"m 407 1046 l 478 1046 b 657 1232 600 1046 657 1107 b 638 1250 657 1244 651 1250 l 568 1250 b 549 1232 554 1250 550 1244 b 464 1138 546 1179 524 1138 l 422 1138 b 338 1232 363 1138 340 1179 b 317 1250 336 1244 331 1250 l 249 1250 b 229 1232 235 1250 229 1244 b 407 1046 229 1107 288 1046 z m 382 -7 l 503 -7 b 792 275 703 -7 792 96 l 792 953 b 772 972 792 967 786 972 l 678 972 b 658 953 664 972 658 967 l 658 279 b 496 114 658 160 603 114 l 389 114 b 226 279 281 114 226 160 l 226 953 b 207 972 226 967 221 972 l 113 972 b 93 953 99 972 93 967 l 93 275 b 382 -7 93 96 182 -7 z "},"Û":{"ha":885,"x_min":0,"x_max":0,"o":"m 390 1250 b 354 1231 375 1250 365 1244 l 210 1067 b 219 1042 199 1054 206 1042 l 306 1042 b 346 1065 324 1042 332 1049 l 432 1164 l 446 1164 l 532 1065 b 572 1042 547 1049 556 1042 l 660 1042 b 669 1067 674 1042 679 1054 l 525 1231 b 486 1250 514 1244 501 1250 z m 382 -7 l 503 -7 b 792 275 703 -7 792 96 l 792 953 b 772 972 792 967 786 972 l 678 972 b 658 953 664 972 658 967 l 658 279 b 496 114 658 160 603 114 l 389 114 b 226 279 281 114 226 160 l 226 953 b 207 972 226 967 221 972 l 113 972 b 93 953 99 972 93 967 l 93 275 b 382 -7 93 96 182 -7 z "},"Ü":{"ha":885,"x_min":0,"x_max":0,"o":"m 197 1113 l 294 1113 b 315 1133 308 1113 315 1119 l 315 1231 b 294 1250 315 1244 308 1250 l 197 1250 b 178 1231 183 1250 178 1244 l 178 1133 b 197 1113 178 1119 183 1113 z m 592 1113 l 689 1113 b 708 1133 703 1113 708 1119 l 708 1231 b 689 1250 708 1244 703 1250 l 592 1250 b 571 1231 578 1250 571 1244 l 571 1133 b 592 1113 571 1119 578 1113 z m 382 -7 l 503 -7 b 792 275 703 -7 792 96 l 792 953 b 772 972 792 967 786 972 l 678 972 b 658 953 664 972 658 967 l 658 279 b 496 114 658 160 603 114 l 389 114 b 226 279 281 114 226 160 l 226 953 b 207 972 226 967 221 972 l 113 972 b 93 953 99 972 93 967 l 93 275 b 382 -7 93 96 182 -7 z "},"Ù":{"ha":885,"x_min":0,"x_max":0,"o":"m 414 1225 b 385 1250 406 1242 399 1250 l 264 1250 b 250 1225 249 1250 238 1240 l 375 1065 b 407 1040 386 1051 393 1040 l 483 1040 b 497 1065 499 1040 507 1049 z m 382 -7 l 503 -7 b 792 275 703 -7 792 96 l 792 953 b 772 972 792 967 786 972 l 678 972 b 658 953 664 972 658 967 l 658 279 b 496 114 658 160 603 114 l 389 114 b 226 279 281 114 226 160 l 226 953 b 207 972 226 967 221 972 l 113 972 b 93 953 99 972 93 967 l 93 275 b 382 -7 93 96 182 -7 z "},"Ű":{"ha":885,"x_min":0,"x_max":0,"o":"m 360 1225 l 276 1065 b 290 1040 268 1049 275 1040 l 368 1040 b 399 1065 382 1040 389 1051 l 524 1225 b 510 1250 536 1240 525 1250 l 389 1250 b 360 1225 375 1250 369 1242 z m 588 1225 l 504 1065 b 518 1040 494 1049 503 1040 l 594 1040 b 626 1065 608 1040 615 1051 l 751 1225 b 738 1250 764 1240 753 1250 l 617 1250 b 588 1225 603 1250 596 1242 z m 382 -7 l 503 -7 b 792 275 703 -7 792 96 l 792 953 b 772 972 792 967 786 972 l 678 972 b 658 953 664 972 658 967 l 658 279 b 496 114 658 160 603 114 l 389 114 b 226 279 281 114 226 160 l 226 953 b 207 972 226 967 221 972 l 113 972 b 93 953 99 972 93 967 l 93 275 b 382 -7 93 96 182 -7 z "},"Ū":{"ha":885,"x_min":0,"x_max":0,"o":"m 218 1131 l 668 1131 b 689 1151 681 1131 689 1138 l 689 1229 b 668 1250 689 1243 681 1250 l 218 1250 b 197 1229 204 1250 197 1243 l 197 1151 b 218 1131 197 1138 204 1131 z m 382 -7 l 503 -7 b 792 275 703 -7 792 96 l 792 953 b 772 972 792 967 786 972 l 678 972 b 658 953 664 972 658 967 l 658 279 b 496 114 658 160 603 114 l 389 114 b 226 279 281 114 226 160 l 226 953 b 207 972 226 967 221 972 l 113 972 b 93 953 99 972 93 967 l 93 275 b 382 -7 93 96 182 -7 z "},"Ų":{"ha":885,"x_min":0,"x_max":0,"o":"m 772 972 l 678 972 b 658 953 664 972 658 967 l 658 279 b 496 114 658 160 603 114 l 389 114 b 226 279 281 114 226 160 l 226 953 b 207 972 226 967 221 972 l 113 972 b 93 953 99 972 93 967 l 93 275 b 382 -7 93 96 182 -7 l 424 -7 l 424 -15 b 378 -54 424 -44 413 -50 l 322 -60 b 215 -168 242 -68 215 -82 b 349 -283 215 -261 244 -283 l 521 -283 b 535 -269 531 -283 535 -278 l 535 -211 b 521 -196 535 -201 529 -196 l 371 -196 b 333 -167 340 -196 333 -187 b 358 -139 333 -144 339 -140 l 471 -125 b 553 -43 529 -118 553 -107 l 553 -4 b 792 275 718 11 792 111 l 792 953 b 772 972 792 967 786 972 z "},"Ů":{"ha":885,"x_min":0,"x_max":0,"o":"m 451 1272 l 433 1272 b 317 1156 365 1272 317 1221 l 317 1140 b 433 1025 317 1075 365 1025 l 451 1025 b 568 1140 519 1025 568 1075 l 568 1156 b 451 1272 568 1221 519 1272 z m 492 1154 l 492 1144 b 449 1101 492 1118 476 1101 l 436 1101 b 394 1144 410 1101 394 1118 l 394 1154 b 436 1196 394 1179 410 1196 l 449 1196 b 492 1154 476 1196 492 1179 z m 382 -7 l 503 -7 b 792 275 703 -7 792 96 l 792 953 b 772 972 792 967 786 972 l 678 972 b 658 953 664 972 658 967 l 658 279 b 496 114 658 160 603 114 l 389 114 b 226 279 281 114 226 160 l 226 953 b 207 972 226 967 221 972 l 113 972 b 93 953 99 972 93 967 l 93 275 b 382 -7 93 96 182 -7 z "},"Ũ":{"ha":885,"x_min":0,"x_max":0,"o":"m 539 1082 b 667 1124 582 1082 622 1093 b 678 1151 678 1132 682 1140 l 650 1217 b 626 1224 646 1226 639 1231 b 543 1196 593 1203 574 1196 b 347 1257 468 1196 440 1257 b 219 1215 304 1257 264 1246 b 208 1188 208 1207 203 1200 l 236 1122 b 260 1117 240 1114 247 1108 b 342 1143 292 1136 311 1143 b 539 1082 418 1143 446 1082 z m 382 -7 l 503 -7 b 792 275 703 -7 792 96 l 792 953 b 772 972 792 967 786 972 l 678 972 b 658 953 664 972 658 967 l 658 279 b 496 114 658 160 603 114 l 389 114 b 226 279 281 114 226 160 l 226 953 b 207 972 226 967 221 972 l 113 972 b 93 953 99 972 93 967 l 93 275 b 382 -7 93 96 182 -7 z "},"V":{"ha":843,"x_min":0,"x_max":0,"o":"m 339 0 l 504 0 b 529 22 517 0 525 8 l 790 947 b 774 972 794 963 788 972 l 679 972 b 654 947 665 972 658 963 l 431 150 l 413 150 l 189 947 b 164 972 185 963 178 972 l 69 972 b 53 947 57 972 49 963 l 314 22 b 339 0 318 8 326 0 z "},"W":{"ha":1286,"x_min":0,"x_max":0,"o":"m 1218 972 l 1124 972 b 1099 947 1110 972 1101 963 l 926 151 l 911 151 l 719 947 b 694 972 717 964 708 972 l 592 972 b 567 947 578 972 571 963 l 376 151 l 360 151 l 188 947 b 163 972 185 963 176 972 l 69 972 b 51 947 56 972 49 963 l 256 22 b 282 0 258 8 269 0 l 447 0 b 474 22 460 0 469 8 l 636 739 l 651 739 l 814 22 b 839 0 817 8 826 0 l 1006 0 b 1031 22 1018 0 1028 8 l 1235 947 b 1218 972 1238 963 1231 972 z "},"Ẃ":{"ha":1258,"x_min":0,"x_max":0,"o":"m 663 1261 l 579 1101 b 593 1076 571 1085 578 1076 l 671 1076 b 701 1101 685 1076 692 1088 l 826 1261 b 813 1286 839 1276 828 1286 l 692 1286 b 663 1261 678 1286 672 1278 z m 1218 972 l 1124 972 b 1099 947 1110 972 1101 963 l 926 151 l 911 151 l 719 947 b 694 972 717 964 708 972 l 592 972 b 567 947 578 972 571 963 l 376 151 l 360 151 l 188 947 b 163 972 185 963 176 972 l 69 972 b 51 947 56 972 49 963 l 256 22 b 282 0 258 8 269 0 l 447 0 b 474 22 460 0 469 8 l 636 739 l 651 739 l 814 22 b 839 0 817 8 826 0 l 1006 0 b 1031 22 1018 0 1028 8 l 1235 947 b 1218 972 1238 963 1231 972 z "},"Ŵ":{"ha":1258,"x_min":0,"x_max":0,"o":"m 567 1286 b 529 1267 551 1286 542 1281 l 386 1103 b 396 1078 375 1090 382 1078 l 482 1078 b 522 1101 499 1078 508 1085 l 608 1200 l 622 1200 l 708 1101 b 749 1078 722 1085 732 1078 l 835 1078 b 844 1103 849 1078 856 1090 l 701 1267 b 663 1286 689 1281 678 1286 z m 1218 972 l 1124 972 b 1099 947 1110 972 1101 963 l 926 151 l 911 151 l 719 947 b 694 972 717 964 708 972 l 592 972 b 567 947 578 972 571 963 l 376 151 l 360 151 l 188 947 b 163 972 185 963 176 972 l 69 972 b 51 947 56 972 49 963 l 256 22 b 282 0 258 8 269 0 l 447 0 b 474 22 460 0 469 8 l 636 739 l 651 739 l 814 22 b 839 0 817 8 826 0 l 1006 0 b 1031 22 1018 0 1028 8 l 1235 947 b 1218 972 1238 963 1231 972 z "},"Ẅ":{"ha":1258,"x_min":0,"x_max":0,"o":"m 414 1149 l 511 1149 b 531 1169 525 1149 531 1156 l 531 1267 b 511 1286 531 1281 525 1286 l 414 1286 b 393 1267 400 1286 393 1281 l 393 1169 b 414 1149 393 1156 400 1149 z m 807 1149 l 904 1149 b 924 1169 918 1149 924 1156 l 924 1267 b 904 1286 924 1281 918 1286 l 807 1286 b 788 1267 793 1286 788 1281 l 788 1169 b 807 1149 788 1156 793 1149 z m 1218 972 l 1124 972 b 1099 947 1110 972 1101 963 l 926 151 l 911 151 l 719 947 b 694 972 717 964 708 972 l 592 972 b 567 947 578 972 571 963 l 376 151 l 360 151 l 188 947 b 163 972 185 963 176 972 l 69 972 b 51 947 56 972 49 963 l 256 22 b 282 0 258 8 269 0 l 447 0 b 474 22 460 0 469 8 l 636 739 l 651 739 l 814 22 b 839 0 817 8 826 0 l 1006 0 b 1031 22 1018 0 1028 8 l 1235 947 b 1218 972 1238 963 1231 972 z "},"Ẁ":{"ha":1258,"x_min":0,"x_max":0,"o":"m 600 1261 b 571 1286 590 1278 585 1286 l 450 1286 b 436 1261 435 1286 424 1276 l 561 1101 b 592 1076 571 1088 578 1076 l 669 1076 b 683 1101 685 1076 692 1085 z m 1218 972 l 1124 972 b 1099 947 1110 972 1101 963 l 926 151 l 911 151 l 719 947 b 694 972 717 964 708 972 l 592 972 b 567 947 578 972 571 963 l 376 151 l 360 151 l 188 947 b 163 972 185 963 176 972 l 69 972 b 51 947 56 972 49 963 l 256 22 b 282 0 258 8 269 0 l 447 0 b 474 22 460 0 469 8 l 636 739 l 651 739 l 814 22 b 839 0 817 8 826 0 l 1006 0 b 1031 22 1018 0 1028 8 l 1235 947 b 1218 972 1238 963 1231 972 z "},"X":{"ha":801,"x_min":0,"x_max":0,"o":"m 82 0 l 183 0 b 210 19 197 0 201 6 l 396 358 l 407 358 l 592 19 b 619 0 600 6 606 0 l 721 0 b 732 22 735 0 740 7 l 474 486 l 731 950 b 719 972 739 965 733 972 l 617 972 b 590 953 603 972 597 967 l 407 614 l 396 614 l 213 953 b 185 972 206 967 199 972 l 85 972 b 72 950 69 972 64 965 l 329 486 l 71 22 b 82 0 63 7 68 0 z "},"Y":{"ha":807,"x_min":0,"x_max":0,"o":"m 739 972 l 639 972 b 611 951 625 972 618 967 l 408 521 l 399 521 l 194 951 b 168 972 188 967 182 972 l 67 972 b 54 949 53 972 46 964 l 336 363 l 336 19 b 357 0 336 6 343 0 l 450 0 b 469 19 464 0 469 6 l 469 361 l 753 949 b 739 972 760 964 754 972 z "},"Ý":{"ha":807,"x_min":0,"x_max":0,"o":"m 368 1040 l 446 1040 b 476 1065 460 1040 467 1051 l 601 1225 b 588 1250 614 1240 603 1250 l 467 1250 b 438 1225 453 1250 447 1242 l 354 1065 b 368 1040 346 1049 353 1040 z m 739 972 l 639 972 b 611 951 625 972 618 967 l 408 521 l 399 521 l 194 951 b 168 972 188 967 182 972 l 67 972 b 54 949 53 972 46 964 l 336 363 l 336 19 b 357 0 336 6 343 0 l 450 0 b 469 19 464 0 469 6 l 469 361 l 753 949 b 739 972 760 964 754 972 z "},"Ŷ":{"ha":807,"x_min":0,"x_max":0,"o":"m 181 1042 l 267 1042 b 307 1065 285 1042 293 1049 l 393 1164 l 407 1164 l 493 1065 b 533 1042 508 1049 517 1042 l 621 1042 b 631 1067 635 1042 640 1054 l 486 1231 b 447 1250 475 1244 463 1250 l 351 1250 b 315 1231 336 1250 326 1244 l 171 1067 b 181 1042 160 1054 167 1042 z m 739 972 l 639 972 b 611 951 625 972 618 967 l 408 521 l 399 521 l 194 951 b 168 972 188 967 182 972 l 67 972 b 54 949 53 972 46 964 l 336 363 l 336 19 b 357 0 336 6 343 0 l 450 0 b 469 19 464 0 469 6 l 469 361 l 753 949 b 739 972 760 964 754 972 z "},"Ÿ":{"ha":807,"x_min":0,"x_max":0,"o":"m 157 1113 l 254 1113 b 275 1133 268 1113 275 1119 l 275 1231 b 254 1250 275 1244 268 1250 l 157 1250 b 138 1231 143 1250 138 1244 l 138 1133 b 157 1113 138 1119 143 1113 z m 551 1113 l 649 1113 b 668 1133 663 1113 668 1119 l 668 1231 b 649 1250 668 1244 663 1250 l 551 1250 b 531 1231 538 1250 531 1244 l 531 1133 b 551 1113 531 1119 538 1113 z m 739 972 l 639 972 b 611 951 625 972 618 967 l 408 521 l 399 521 l 194 951 b 168 972 188 967 182 972 l 67 972 b 54 949 53 972 46 964 l 336 363 l 336 19 b 357 0 336 6 343 0 l 450 0 b 469 19 464 0 469 6 l 469 361 l 753 949 b 739 972 760 964 754 972 z "},"Ỳ":{"ha":807,"x_min":0,"x_max":0,"o":"m 335 1065 b 367 1040 346 1051 353 1040 l 443 1040 b 457 1065 458 1040 467 1049 l 374 1225 b 344 1250 365 1242 358 1250 l 224 1250 b 210 1225 208 1250 197 1240 z m 739 972 l 639 972 b 611 951 625 972 618 967 l 408 521 l 399 521 l 194 951 b 168 972 188 967 182 972 l 67 972 b 54 949 53 972 46 964 l 336 363 l 336 19 b 357 0 336 6 343 0 l 450 0 b 469 19 464 0 469 6 l 469 361 l 753 949 b 739 972 760 964 754 972 z "},"Z":{"ha":731,"x_min":0,"x_max":0,"o":"m 86 0 l 644 0 b 665 19 658 0 665 6 l 665 101 b 644 121 665 115 658 121 l 207 121 l 207 132 l 651 817 b 665 864 664 836 665 850 l 665 953 b 644 972 665 967 658 972 l 94 972 b 74 953 81 972 74 967 l 74 871 b 94 851 74 857 81 851 l 524 851 l 524 840 l 79 156 b 65 108 68 136 65 122 l 65 19 b 86 0 65 6 72 0 z "},"Ź":{"ha":731,"x_min":0,"x_max":0,"o":"m 400 1225 l 317 1065 b 331 1040 308 1049 315 1040 l 408 1040 b 439 1065 422 1040 429 1051 l 564 1225 b 550 1250 576 1240 565 1250 l 429 1250 b 400 1225 415 1250 410 1242 z m 86 0 l 644 0 b 665 19 658 0 665 6 l 665 101 b 644 121 665 115 658 121 l 207 121 l 207 132 l 651 817 b 665 864 664 836 665 850 l 665 953 b 644 972 665 967 658 972 l 94 972 b 74 953 81 972 74 967 l 74 871 b 94 851 74 857 81 851 l 524 851 l 524 840 l 79 156 b 65 108 68 136 65 122 l 65 19 b 86 0 65 6 72 0 z "},"Ž":{"ha":731,"x_min":0,"x_max":0,"o":"m 318 1042 l 414 1042 b 453 1060 429 1042 442 1047 l 597 1225 b 588 1250 607 1238 601 1250 l 500 1250 b 460 1226 483 1250 475 1243 l 374 1128 l 360 1128 l 274 1226 b 233 1250 260 1243 251 1250 l 147 1250 b 138 1225 133 1250 126 1238 l 282 1060 b 318 1042 293 1046 303 1042 z m 86 0 l 644 0 b 665 19 658 0 665 6 l 665 101 b 644 121 665 115 658 121 l 207 121 l 207 132 l 651 817 b 665 864 664 836 665 850 l 665 953 b 644 972 665 967 658 972 l 94 972 b 74 953 81 972 74 967 l 74 871 b 94 851 74 857 81 851 l 524 851 l 524 840 l 79 156 b 65 108 68 136 65 122 l 65 19 b 86 0 65 6 72 0 z "},"Ż":{"ha":731,"x_min":0,"x_max":0,"o":"m 317 1113 l 414 1113 b 435 1133 428 1113 435 1119 l 435 1231 b 414 1250 435 1244 428 1250 l 317 1250 b 297 1231 303 1250 297 1244 l 297 1133 b 317 1113 297 1119 303 1113 z m 86 0 l 644 0 b 665 19 658 0 665 6 l 665 101 b 644 121 665 115 658 121 l 207 121 l 207 132 l 651 817 b 665 864 664 836 665 850 l 665 953 b 644 972 665 967 658 972 l 94 972 b 74 953 81 972 74 967 l 74 871 b 94 851 74 857 81 851 l 524 851 l 524 840 l 79 156 b 65 108 68 136 65 122 l 65 19 b 86 0 65 6 72 0 z "},"a":{"ha":724,"x_min":0,"x_max":0,"o":"m 390 700 l 360 700 b 144 667 265 700 189 683 b 133 646 135 664 131 656 l 146 576 b 168 564 149 565 157 560 b 340 585 210 576 276 585 b 507 461 474 585 507 542 l 507 413 l 281 413 b 65 236 140 413 65 361 l 65 197 b 274 -7 65 69 131 -7 l 283 -7 b 493 97 382 -7 447 39 l 507 97 l 507 19 b 526 0 507 7 514 0 l 618 0 b 638 19 632 0 638 7 l 638 468 b 390 700 638 615 565 700 z m 351 107 l 299 107 b 193 203 231 107 193 133 l 193 228 b 297 315 193 297 232 315 l 507 315 l 507 242 b 351 107 507 175 444 107 z "},"á":{"ha":724,"x_min":0,"x_max":0,"o":"m 340 763 l 418 763 b 449 788 432 763 439 774 l 574 947 b 560 972 586 963 575 972 l 439 972 b 410 947 425 972 419 964 l 326 788 b 340 763 318 771 325 763 z m 390 700 l 360 700 b 144 667 265 700 189 683 b 133 646 135 664 131 656 l 146 576 b 168 564 149 565 157 560 b 340 585 210 576 276 585 b 507 461 474 585 507 542 l 507 413 l 281 413 b 65 236 140 413 65 361 l 65 197 b 274 -7 65 69 131 -7 l 283 -7 b 493 97 382 -7 447 39 l 507 97 l 507 19 b 526 0 507 7 514 0 l 618 0 b 638 19 632 0 638 7 l 638 468 b 390 700 638 615 565 700 z m 351 107 l 299 107 b 193 203 231 107 193 133 l 193 228 b 297 315 193 297 232 315 l 507 315 l 507 242 b 351 107 507 175 444 107 z "},"ă":{"ha":724,"x_min":0,"x_max":0,"o":"m 339 768 l 410 768 b 589 954 532 768 589 829 b 569 972 589 967 583 972 l 500 972 b 481 954 486 972 482 967 b 396 860 478 901 456 860 l 354 860 b 269 954 294 860 272 901 b 249 972 268 967 263 972 l 181 972 b 161 954 167 972 161 967 b 339 768 161 829 219 768 z m 390 700 l 360 700 b 144 667 265 700 189 683 b 133 646 135 664 131 656 l 146 576 b 168 564 149 565 157 560 b 340 585 210 576 276 585 b 507 461 474 585 507 542 l 507 413 l 281 413 b 65 236 140 413 65 361 l 65 197 b 274 -7 65 69 131 -7 l 283 -7 b 493 97 382 -7 447 39 l 507 97 l 507 19 b 526 0 507 7 514 0 l 618 0 b 638 19 632 0 638 7 l 638 468 b 390 700 638 615 565 700 z m 351 107 l 299 107 b 193 203 231 107 193 133 l 193 228 b 297 315 193 297 232 315 l 507 315 l 507 242 b 351 107 507 175 444 107 z "},"ǎ":{"ha":724,"x_min":0,"x_max":0,"o":"m 290 782 b 326 764 301 768 311 764 l 422 764 b 461 782 438 764 450 769 l 606 947 b 596 972 615 960 610 972 l 508 972 b 468 949 492 972 483 965 l 382 850 l 368 850 l 282 949 b 242 972 268 965 260 972 l 156 972 b 146 947 142 972 135 960 z m 390 700 l 360 700 b 144 667 265 700 189 683 b 133 646 135 664 131 656 l 146 576 b 168 564 149 565 157 560 b 340 585 210 576 276 585 b 507 461 474 585 507 542 l 507 413 l 281 413 b 65 236 140 413 65 361 l 65 197 b 274 -7 65 69 131 -7 l 283 -7 b 493 97 382 -7 447 39 l 507 97 l 507 19 b 526 0 507 7 514 0 l 618 0 b 638 19 632 0 638 7 l 638 468 b 390 700 638 615 565 700 z m 351 107 l 299 107 b 193 203 231 107 193 133 l 193 228 b 297 315 193 297 232 315 l 507 315 l 507 242 b 351 107 507 175 444 107 z "},"â":{"ha":724,"x_min":0,"x_max":0,"o":"m 153 764 l 239 764 b 279 788 257 764 265 771 l 365 886 l 379 886 l 465 788 b 506 764 481 771 489 764 l 593 764 b 603 789 607 764 613 776 l 458 953 b 419 972 447 967 435 972 l 324 972 b 288 953 308 972 299 967 l 143 789 b 153 764 132 776 139 764 z m 390 700 l 360 700 b 144 667 265 700 189 683 b 133 646 135 664 131 656 l 146 576 b 168 564 149 565 157 560 b 340 585 210 576 276 585 b 507 461 474 585 507 542 l 507 413 l 281 413 b 65 236 140 413 65 361 l 65 197 b 274 -7 65 69 131 -7 l 283 -7 b 493 97 382 -7 447 39 l 507 97 l 507 19 b 526 0 507 7 514 0 l 618 0 b 638 19 632 0 638 7 l 638 468 b 390 700 638 615 565 700 z m 351 107 l 299 107 b 193 203 231 107 193 133 l 193 228 b 297 315 193 297 232 315 l 507 315 l 507 242 b 351 107 507 175 444 107 z "},"ä":{"ha":724,"x_min":0,"x_max":0,"o":"m 131 835 l 228 835 b 249 856 242 835 249 842 l 249 953 b 228 972 249 967 242 972 l 131 972 b 111 953 117 972 111 967 l 111 856 b 131 835 111 842 117 835 z m 622 972 l 525 972 b 504 953 511 972 504 967 l 504 856 b 525 835 504 842 511 835 l 622 835 b 642 856 636 835 642 842 l 642 953 b 622 972 642 967 636 972 z m 390 700 l 360 700 b 144 667 265 700 189 683 b 133 646 135 664 131 656 l 146 576 b 168 564 149 565 157 560 b 340 585 210 576 276 585 b 507 461 474 585 507 542 l 507 413 l 281 413 b 65 236 140 413 65 361 l 65 197 b 274 -7 65 69 131 -7 l 283 -7 b 493 97 382 -7 447 39 l 507 97 l 507 19 b 526 0 507 7 514 0 l 618 0 b 638 19 632 0 638 7 l 638 468 b 390 700 638 615 565 700 z m 351 107 l 299 107 b 193 203 231 107 193 133 l 193 228 b 297 315 193 297 232 315 l 507 315 l 507 242 b 351 107 507 175 444 107 z "},"à":{"ha":724,"x_min":0,"x_max":0,"o":"m 308 788 b 340 763 319 774 326 763 l 417 763 b 431 788 432 763 440 771 l 347 947 b 318 972 339 964 332 972 l 197 972 b 183 947 182 972 171 963 z m 390 700 l 360 700 b 144 667 265 700 189 683 b 133 646 135 664 131 656 l 146 576 b 168 564 149 565 157 560 b 340 585 210 576 276 585 b 507 461 474 585 507 542 l 507 413 l 281 413 b 65 236 140 413 65 361 l 65 197 b 274 -7 65 69 131 -7 l 283 -7 b 493 97 382 -7 447 39 l 507 97 l 507 19 b 526 0 507 7 514 0 l 618 0 b 638 19 632 0 638 7 l 638 468 b 390 700 638 615 565 700 z m 351 107 l 299 107 b 193 203 231 107 193 133 l 193 228 b 297 315 193 297 232 315 l 507 315 l 507 242 b 351 107 507 175 444 107 z "},"ā":{"ha":724,"x_min":0,"x_max":0,"o":"m 151 853 l 601 853 b 622 874 614 853 622 860 l 622 951 b 601 972 622 965 614 972 l 151 972 b 131 951 138 972 131 965 l 131 874 b 151 853 131 860 138 853 z m 390 700 l 360 700 b 144 667 265 700 189 683 b 133 646 135 664 131 656 l 146 576 b 168 564 149 565 157 560 b 340 585 210 576 276 585 b 507 461 474 585 507 542 l 507 413 l 281 413 b 65 236 140 413 65 361 l 65 197 b 274 -7 65 69 131 -7 l 283 -7 b 493 97 382 -7 447 39 l 507 97 l 507 19 b 526 0 507 7 514 0 l 618 0 b 638 19 632 0 638 7 l 638 468 b 390 700 638 615 565 700 z m 351 107 l 299 107 b 193 203 231 107 193 133 l 193 228 b 297 315 193 297 232 315 l 507 315 l 507 242 b 351 107 507 175 444 107 z "},"ą":{"ha":724,"x_min":0,"x_max":0,"o":"m 390 700 l 360 700 b 144 667 265 700 189 683 b 133 646 135 664 131 656 l 146 576 b 168 564 149 565 157 560 b 340 585 210 576 276 585 b 507 461 474 585 507 542 l 507 413 l 281 413 b 65 236 140 413 65 361 l 65 197 b 274 -7 65 69 131 -7 l 283 -7 b 493 97 382 -7 447 39 l 507 97 l 507 19 b 508 11 507 17 507 14 l 508 -15 b 463 -54 508 -44 497 -50 l 407 -60 b 300 -168 326 -68 300 -82 b 433 -283 300 -261 329 -283 l 606 -283 b 619 -269 615 -283 619 -278 l 619 -211 b 606 -196 619 -201 614 -196 l 456 -196 b 418 -167 425 -196 418 -187 b 443 -139 418 -144 424 -140 l 556 -125 b 638 -43 614 -118 638 -107 l 638 468 b 390 700 638 615 565 700 z m 351 107 l 299 107 b 193 203 231 107 193 133 l 193 228 b 297 315 193 297 232 315 l 507 315 l 507 242 b 351 107 507 175 444 107 z "},"å":{"ha":724,"x_min":0,"x_max":0,"o":"m 367 747 l 385 747 b 501 863 453 747 501 797 l 501 878 b 385 994 501 943 453 994 l 367 994 b 250 878 299 994 250 943 l 250 863 b 367 747 250 797 299 747 z m 328 876 b 369 918 328 901 343 918 l 382 918 b 425 876 410 918 425 901 l 425 867 b 382 824 425 840 410 824 l 369 824 b 328 867 343 824 328 840 z m 390 700 l 360 700 b 144 667 265 700 189 683 b 133 646 135 664 131 656 l 146 576 b 168 564 149 565 157 560 b 340 585 210 576 276 585 b 507 461 474 585 507 542 l 507 413 l 281 413 b 65 236 140 413 65 361 l 65 197 b 274 -7 65 69 131 -7 l 283 -7 b 493 97 382 -7 447 39 l 507 97 l 507 19 b 526 0 507 7 514 0 l 618 0 b 638 19 632 0 638 7 l 638 468 b 390 700 638 615 565 700 z m 351 107 l 299 107 b 193 203 231 107 193 133 l 193 228 b 297 315 193 297 232 315 l 507 315 l 507 242 b 351 107 507 175 444 107 z "},"ã":{"ha":724,"x_min":0,"x_max":0,"o":"m 169 844 b 193 839 174 836 181 831 b 275 865 225 858 244 865 b 472 804 351 865 379 804 b 600 846 515 804 556 815 b 611 874 611 854 615 863 l 583 939 b 560 946 579 949 572 953 b 476 918 526 925 507 918 b 281 979 401 918 374 979 b 153 938 238 979 197 968 b 142 910 142 929 136 922 z m 390 700 l 360 700 b 144 667 265 700 189 683 b 133 646 135 664 131 656 l 146 576 b 168 564 149 565 157 560 b 340 585 210 576 276 585 b 507 461 474 585 507 542 l 507 413 l 281 413 b 65 236 140 413 65 361 l 65 197 b 274 -7 65 69 131 -7 l 283 -7 b 493 97 382 -7 447 39 l 507 97 l 507 19 b 526 0 507 7 514 0 l 618 0 b 638 19 632 0 638 7 l 638 468 b 390 700 638 615 565 700 z m 351 107 l 299 107 b 193 203 231 107 193 133 l 193 228 b 297 315 193 297 232 315 l 507 315 l 507 242 b 351 107 507 175 444 107 z "},"æ":{"ha":1144,"x_min":0,"x_max":0,"o":"m 824 700 l 757 700 b 576 643 678 700 618 679 b 390 700 536 681 475 700 l 360 700 b 144 667 265 700 189 683 b 133 646 135 664 131 656 l 146 576 b 168 564 149 565 157 560 b 340 585 210 576 276 585 b 507 454 474 585 507 538 l 507 392 l 281 392 b 65 225 140 392 65 342 l 65 188 b 274 -7 65 61 131 -7 l 283 -7 b 533 111 390 -7 485 31 b 788 -7 571 38 651 -7 l 806 -7 b 1046 75 913 -7 1000 29 b 1044 96 1050 79 1050 88 l 1015 139 b 989 146 1008 150 1000 153 b 806 106 950 124 901 106 l 790 106 b 638 233 683 106 638 158 l 638 294 l 1031 294 b 1072 338 1058 294 1072 311 l 1072 461 b 824 700 1072 611 992 700 z m 943 392 l 638 392 l 638 458 b 761 582 638 539 682 582 l 819 582 b 943 460 900 582 943 540 z m 507 242 b 351 107 507 175 444 107 l 299 107 b 193 193 231 107 193 125 l 193 217 b 297 294 193 278 232 294 l 507 294 z "},"b":{"ha":733,"x_min":0,"x_max":0,"o":"m 426 700 l 393 700 b 229 624 313 700 261 669 l 215 624 l 215 953 b 197 972 215 965 210 972 l 106 972 b 86 953 92 972 86 965 l 86 19 b 106 0 86 7 92 0 l 197 0 b 215 19 210 0 215 7 l 215 69 l 229 69 b 393 -7 261 24 313 -7 l 426 -7 b 661 228 582 -7 661 75 l 661 465 b 426 700 661 618 582 700 z m 531 239 b 406 111 531 156 486 111 l 340 111 b 215 238 263 111 215 157 l 215 456 b 340 582 215 536 263 582 l 406 582 b 531 454 486 582 531 538 z "},"c":{"ha":699,"x_min":0,"x_max":0,"o":"m 351 -7 l 364 -7 b 624 124 493 -7 581 31 b 611 151 629 136 626 144 l 553 179 b 521 169 535 186 528 181 b 365 107 492 124 458 107 l 356 107 b 201 242 249 107 201 157 l 201 458 b 325 582 201 539 247 582 l 388 582 b 508 479 464 582 508 544 l 508 472 b 528 453 508 460 514 453 l 614 453 b 633 472 628 453 633 460 l 633 481 b 392 700 633 615 546 700 l 321 700 b 72 461 156 700 72 610 l 72 232 b 351 -7 72 85 156 -7 z "},"ć":{"ha":699,"x_min":0,"x_max":0,"o":"m 389 947 l 306 788 b 319 763 297 771 304 763 l 397 763 b 428 788 411 763 418 774 l 553 947 b 539 972 565 963 554 972 l 418 972 b 389 947 404 972 399 964 z m 351 -7 l 364 -7 b 624 124 493 -7 581 31 b 611 151 629 136 626 144 l 553 179 b 521 169 535 186 528 181 b 365 107 492 124 458 107 l 356 107 b 201 242 249 107 201 157 l 201 458 b 325 582 201 539 247 582 l 388 582 b 508 479 464 582 508 544 l 508 472 b 528 453 508 460 514 453 l 614 453 b 633 472 628 453 633 460 l 633 481 b 392 700 633 615 546 700 l 321 700 b 72 461 156 700 72 610 l 72 232 b 351 -7 72 85 156 -7 z "},"č":{"ha":699,"x_min":0,"x_max":0,"o":"m 307 764 l 403 764 b 442 782 418 764 431 769 l 586 947 b 576 972 596 960 590 972 l 489 972 b 449 949 472 972 464 965 l 363 850 l 349 850 l 263 949 b 222 972 249 965 240 972 l 136 972 b 126 947 122 972 115 960 l 271 782 b 307 764 282 768 292 764 z m 351 -7 l 364 -7 b 624 124 493 -7 581 31 b 611 151 629 136 626 144 l 553 179 b 521 169 535 186 528 181 b 365 107 492 124 458 107 l 356 107 b 201 242 249 107 201 157 l 201 458 b 325 582 201 539 247 582 l 388 582 b 508 479 464 582 508 544 l 508 472 b 528 453 508 460 514 453 l 614 453 b 633 472 628 453 633 460 l 633 481 b 392 700 633 615 546 700 l 321 700 b 72 461 156 700 72 610 l 72 232 b 351 -7 72 85 156 -7 z "},"ç":{"ha":699,"x_min":0,"x_max":0,"o":"m 392 700 l 321 700 b 72 461 156 700 72 610 l 72 232 b 319 -6 72 93 147 3 b 268 -82 282 -42 268 -58 b 322 -131 268 -114 293 -128 b 464 -169 433 -142 464 -143 b 410 -201 464 -197 446 -201 l 382 -201 b 329 -168 346 -201 331 -190 b 314 -154 328 -160 322 -154 l 240 -154 b 226 -171 229 -154 226 -161 b 347 -282 226 -240 257 -282 l 436 -282 b 567 -169 526 -282 567 -243 b 433 -60 567 -83 521 -69 b 440 -1 397 -56 372 -50 b 624 124 528 11 590 50 b 611 151 629 136 626 144 l 553 179 b 521 169 535 186 528 181 b 365 107 492 124 458 107 l 356 107 b 201 242 249 107 201 157 l 201 458 b 325 582 201 539 247 582 l 388 582 b 508 479 464 582 508 544 l 508 472 b 528 453 508 460 514 453 l 614 453 b 633 472 628 453 633 460 l 633 481 b 392 700 633 615 546 700 z "},"ĉ":{"ha":699,"x_min":0,"x_max":0,"o":"m 303 972 b 267 953 288 972 278 967 l 122 789 b 132 764 111 776 118 764 l 218 764 b 258 788 236 764 244 771 l 344 886 l 358 886 l 444 788 b 485 764 460 771 468 764 l 572 764 b 582 789 586 764 592 776 l 438 953 b 399 972 426 967 414 972 z m 351 -7 l 364 -7 b 624 124 493 -7 581 31 b 611 151 629 136 626 144 l 553 179 b 521 169 535 186 528 181 b 365 107 492 124 458 107 l 356 107 b 201 242 249 107 201 157 l 201 458 b 325 582 201 539 247 582 l 388 582 b 508 479 464 582 508 544 l 508 472 b 528 453 508 460 514 453 l 614 453 b 633 472 628 453 633 460 l 633 481 b 392 700 633 615 546 700 l 321 700 b 72 461 156 700 72 610 l 72 232 b 351 -7 72 85 156 -7 z "},"ċ":{"ha":699,"x_min":0,"x_max":0,"o":"m 306 835 l 403 835 b 424 856 417 835 424 842 l 424 953 b 403 972 424 967 417 972 l 306 972 b 286 953 292 972 286 967 l 286 856 b 306 835 286 842 292 835 z m 351 -7 l 364 -7 b 624 124 493 -7 581 31 b 611 151 629 136 626 144 l 553 179 b 521 169 535 186 528 181 b 365 107 492 124 458 107 l 356 107 b 201 242 249 107 201 157 l 201 458 b 325 582 201 539 247 582 l 388 582 b 508 479 464 582 508 544 l 508 472 b 528 453 508 460 514 453 l 614 453 b 633 472 628 453 633 460 l 633 481 b 392 700 633 615 546 700 l 321 700 b 72 461 156 700 72 610 l 72 232 b 351 -7 72 85 156 -7 z "},"d":{"ha":733,"x_min":0,"x_max":0,"o":"m 628 972 l 536 972 b 517 953 522 972 517 965 l 517 624 l 503 624 b 339 700 471 669 419 700 l 307 700 b 72 465 151 700 72 618 l 72 228 b 307 -7 72 75 151 -7 l 339 -7 b 503 69 419 -7 471 24 l 517 69 l 517 19 b 536 0 517 7 522 0 l 628 0 b 647 19 640 0 647 7 l 647 953 b 628 972 647 965 640 972 z m 392 111 l 328 111 b 201 239 247 111 201 156 l 201 454 b 328 582 201 538 247 582 l 392 582 b 517 456 471 582 517 536 l 517 238 b 392 111 517 157 471 111 z "},"ð":{"ha":729,"x_min":0,"x_max":0,"o":"m 742 928 l 647 928 l 647 953 b 628 972 647 965 640 972 l 536 972 b 517 953 522 972 517 965 l 517 872 l 333 761 l 465 761 l 517 792 l 517 624 l 503 624 b 339 700 471 669 419 700 l 307 700 b 72 465 151 700 72 618 l 72 228 b 307 -7 72 75 151 -7 l 339 -7 b 503 69 419 -7 471 24 l 517 69 l 517 19 b 536 0 517 7 522 0 l 628 0 b 647 19 640 0 647 7 l 647 871 z m 392 111 l 328 111 b 201 239 247 111 201 156 l 201 454 b 328 582 201 538 247 582 l 392 582 b 517 456 471 582 517 536 l 517 238 b 392 111 517 157 471 111 z "},"ď":{"ha":815,"x_min":0,"x_max":0,"o":"m 628 972 l 536 972 b 517 953 522 972 517 965 l 517 624 l 503 624 b 339 700 471 669 419 700 l 307 700 b 72 465 151 700 72 618 l 72 228 b 307 -7 72 75 151 -7 l 339 -7 b 503 69 419 -7 471 24 l 517 69 l 517 19 b 536 0 517 7 522 0 l 628 0 b 647 19 640 0 647 7 l 647 953 b 628 972 647 965 640 972 z m 858 972 l 782 972 b 763 953 768 972 763 967 l 763 733 l 711 733 b 692 714 697 733 692 728 l 692 643 b 711 624 692 629 697 624 l 835 624 b 878 667 864 624 878 638 l 878 953 b 858 972 878 967 872 972 z m 392 111 l 328 111 b 201 239 247 111 201 156 l 201 454 b 328 582 201 538 247 582 l 392 582 b 517 456 471 582 517 536 l 517 238 b 392 111 517 157 471 111 z "},"đ":{"ha":713,"x_min":0,"x_max":0,"o":"m 708 878 l 647 878 l 647 953 b 628 972 647 965 640 972 l 536 972 b 517 953 522 972 517 965 l 517 878 l 258 878 b 238 857 244 878 238 871 l 238 779 b 258 758 238 765 244 758 l 517 758 l 517 624 l 503 624 b 339 700 471 669 419 700 l 307 700 b 72 465 151 700 72 618 l 72 228 b 307 -7 72 75 151 -7 l 339 -7 b 503 69 419 -7 471 24 l 517 69 l 517 19 b 536 0 517 7 522 0 l 628 0 b 647 19 640 0 647 7 l 647 758 l 708 758 b 729 779 721 758 729 765 l 729 857 b 708 878 729 871 721 878 z m 392 111 l 328 111 b 201 239 247 111 201 156 l 201 454 b 328 582 201 538 247 582 l 392 582 b 517 456 471 582 517 536 l 517 238 b 392 111 517 157 471 111 z "},"e":{"ha":710,"x_min":0,"x_max":0,"o":"m 369 -7 b 610 75 476 -7 565 29 b 608 96 615 79 615 88 l 579 139 b 553 146 574 150 565 153 b 369 106 514 124 465 106 l 356 106 b 201 233 249 106 201 158 l 201 294 l 594 294 b 638 338 622 294 638 311 l 638 461 b 389 700 638 611 556 700 l 321 700 b 72 461 156 700 72 610 l 72 232 b 353 -7 72 88 153 -7 z m 201 392 l 201 458 b 325 582 201 539 247 582 l 385 582 b 508 460 464 582 508 540 l 508 392 z "},"é":{"ha":710,"x_min":0,"x_max":0,"o":"m 392 947 l 308 788 b 322 763 300 771 307 763 l 400 763 b 431 788 414 763 421 774 l 556 947 b 542 972 568 963 557 972 l 421 972 b 392 947 407 972 401 964 z m 369 -7 b 610 75 476 -7 565 29 b 608 96 615 79 615 88 l 579 139 b 553 146 574 150 565 153 b 369 106 514 124 465 106 l 356 106 b 201 233 249 106 201 158 l 201 294 l 594 294 b 638 338 622 294 638 311 l 638 461 b 389 700 638 611 556 700 l 321 700 b 72 461 156 700 72 610 l 72 232 b 353 -7 72 88 153 -7 z m 201 392 l 201 458 b 325 582 201 539 247 582 l 385 582 b 508 460 464 582 508 540 l 508 392 z "},"ě":{"ha":710,"x_min":0,"x_max":0,"o":"m 308 764 l 404 764 b 443 782 419 764 432 769 l 588 947 b 578 972 597 960 592 972 l 490 972 b 450 949 474 972 465 965 l 364 850 l 350 850 l 264 949 b 224 972 250 965 242 972 l 138 972 b 128 947 124 972 117 960 l 272 782 b 308 764 283 768 293 764 z m 369 -7 b 610 75 476 -7 565 29 b 608 96 615 79 615 88 l 579 139 b 553 146 574 150 565 153 b 369 106 514 124 465 106 l 356 106 b 201 233 249 106 201 158 l 201 294 l 594 294 b 638 338 622 294 638 311 l 638 461 b 389 700 638 611 556 700 l 321 700 b 72 461 156 700 72 610 l 72 232 b 353 -7 72 88 153 -7 z m 201 392 l 201 458 b 325 582 201 539 247 582 l 385 582 b 508 460 464 582 508 540 l 508 392 z "},"ȩ":{"ha":710,"x_min":0,"x_max":0,"o":"m 389 700 l 321 700 b 72 461 156 700 72 610 l 72 232 b 315 -6 72 97 143 6 b 263 -82 276 -42 263 -58 b 317 -131 263 -114 288 -128 b 458 -169 428 -142 458 -143 b 404 -201 458 -197 440 -201 l 376 -201 b 324 -168 340 -201 325 -190 b 308 -154 322 -160 317 -154 l 235 -154 b 221 -171 224 -154 221 -161 b 342 -282 221 -240 251 -282 l 431 -282 b 561 -169 521 -282 561 -243 b 428 -60 561 -83 515 -69 b 435 -3 392 -56 368 -50 b 610 75 511 8 575 39 b 608 96 615 79 615 88 l 579 139 b 553 146 574 150 565 153 b 369 106 514 124 465 106 l 356 106 b 201 233 249 106 201 158 l 201 294 l 594 294 b 638 338 622 294 638 311 l 638 461 b 389 700 638 611 556 700 z m 508 392 l 201 392 l 201 458 b 325 582 201 539 247 582 l 385 582 b 508 460 464 582 508 540 z "},"ê":{"ha":710,"x_min":0,"x_max":0,"o":"m 306 972 b 269 953 290 972 281 967 l 125 789 b 135 764 114 776 121 764 l 221 764 b 261 788 239 764 247 771 l 347 886 l 361 886 l 447 788 b 488 764 463 771 471 764 l 575 764 b 585 789 589 764 594 776 l 440 953 b 401 972 429 967 417 972 z m 369 -7 b 610 75 476 -7 565 29 b 608 96 615 79 615 88 l 579 139 b 553 146 574 150 565 153 b 369 106 514 124 465 106 l 356 106 b 201 233 249 106 201 158 l 201 294 l 594 294 b 638 338 622 294 638 311 l 638 461 b 389 700 638 611 556 700 l 321 700 b 72 461 156 700 72 610 l 72 232 b 353 -7 72 88 153 -7 z m 201 392 l 201 458 b 325 582 201 539 247 582 l 385 582 b 508 460 464 582 508 540 l 508 392 z "},"ë":{"ha":710,"x_min":0,"x_max":0,"o":"m 113 835 l 210 835 b 231 856 224 835 231 842 l 231 953 b 210 972 231 967 224 972 l 113 972 b 93 953 99 972 93 967 l 93 856 b 113 835 93 842 99 835 z m 507 835 l 604 835 b 624 856 618 835 624 842 l 624 953 b 604 972 624 967 618 972 l 507 972 b 486 953 493 972 486 967 l 486 856 b 507 835 486 842 493 835 z m 369 -7 b 610 75 476 -7 565 29 b 608 96 615 79 615 88 l 579 139 b 553 146 574 150 565 153 b 369 106 514 124 465 106 l 356 106 b 201 233 249 106 201 158 l 201 294 l 594 294 b 638 338 622 294 638 311 l 638 461 b 389 700 638 611 556 700 l 321 700 b 72 461 156 700 72 610 l 72 232 b 353 -7 72 88 153 -7 z m 201 392 l 201 458 b 325 582 201 539 247 582 l 385 582 b 508 460 464 582 508 540 l 508 392 z "},"ė":{"ha":710,"x_min":0,"x_max":0,"o":"m 308 835 l 406 835 b 426 856 419 835 426 842 l 426 953 b 406 972 426 967 419 972 l 308 972 b 289 953 294 972 289 967 l 289 856 b 308 835 289 842 294 835 z m 369 -7 b 610 75 476 -7 565 29 b 608 96 615 79 615 88 l 579 139 b 553 146 574 150 565 153 b 369 106 514 124 465 106 l 356 106 b 201 233 249 106 201 158 l 201 294 l 594 294 b 638 338 622 294 638 311 l 638 461 b 389 700 638 611 556 700 l 321 700 b 72 461 156 700 72 610 l 72 232 b 353 -7 72 88 153 -7 z m 201 392 l 201 458 b 325 582 201 539 247 582 l 385 582 b 508 460 464 582 508 540 l 508 392 z "},"è":{"ha":710,"x_min":0,"x_max":0,"o":"m 329 947 b 300 972 321 964 314 972 l 179 972 b 165 947 164 972 153 963 l 290 788 b 322 763 301 774 308 763 l 399 763 b 413 788 414 763 422 771 z m 369 -7 b 610 75 476 -7 565 29 b 608 96 615 79 615 88 l 579 139 b 553 146 574 150 565 153 b 369 106 514 124 465 106 l 356 106 b 201 233 249 106 201 158 l 201 294 l 594 294 b 638 338 622 294 638 311 l 638 461 b 389 700 638 611 556 700 l 321 700 b 72 461 156 700 72 610 l 72 232 b 353 -7 72 88 153 -7 z m 201 392 l 201 458 b 325 582 201 539 247 582 l 385 582 b 508 460 464 582 508 540 l 508 392 z "},"ē":{"ha":710,"x_min":0,"x_max":0,"o":"m 133 853 l 583 853 b 604 874 596 853 604 860 l 604 951 b 583 972 604 965 596 972 l 133 972 b 113 951 119 972 113 965 l 113 874 b 133 853 113 860 119 853 z m 369 -7 b 610 75 476 -7 565 29 b 608 96 615 79 615 88 l 579 139 b 553 146 574 150 565 153 b 369 106 514 124 465 106 l 356 106 b 201 233 249 106 201 158 l 201 294 l 594 294 b 638 338 622 294 638 311 l 638 461 b 389 700 638 611 556 700 l 321 700 b 72 461 156 700 72 610 l 72 232 b 353 -7 72 88 153 -7 z m 201 392 l 201 458 b 325 582 201 539 247 582 l 385 582 b 508 460 464 582 508 540 l 508 392 z "},"ę":{"ha":710,"x_min":0,"x_max":0,"o":"m 389 700 l 321 700 b 72 461 156 700 72 610 l 72 232 b 349 -7 72 89 151 -6 l 349 -15 b 303 -54 349 -44 338 -50 l 247 -60 b 140 -168 167 -68 140 -82 b 274 -283 140 -261 169 -283 l 446 -283 b 460 -269 456 -283 460 -278 l 460 -211 b 446 -196 460 -201 454 -196 l 296 -196 b 258 -167 265 -196 258 -187 b 283 -139 258 -144 264 -140 l 396 -125 b 478 -43 454 -118 478 -107 l 478 6 b 610 75 535 21 582 46 b 608 96 615 79 615 88 l 579 139 b 553 146 574 150 565 153 b 369 106 514 124 465 106 l 356 106 b 201 233 249 106 201 158 l 201 294 l 594 294 b 638 338 622 294 638 311 l 638 461 b 389 700 638 611 556 700 z m 508 392 l 201 392 l 201 458 b 325 582 201 539 247 582 l 385 582 b 508 460 464 582 508 540 z "},"f":{"ha":515,"x_min":0,"x_max":0,"o":"m 450 972 l 369 972 b 154 751 219 972 154 894 l 154 694 l 71 694 b 51 675 58 694 51 689 l 51 597 b 71 578 51 585 58 578 l 154 578 l 154 19 b 174 0 154 7 160 0 l 265 0 b 283 19 278 0 283 7 l 283 578 l 446 578 b 465 597 458 578 465 585 l 465 675 b 446 694 465 689 458 694 l 283 694 l 283 740 b 390 854 283 814 315 854 l 450 854 b 471 875 464 854 471 861 l 471 951 b 450 972 471 965 464 972 z "},"g":{"ha":726,"x_min":0,"x_max":0,"o":"m 351 -257 b 647 -15 553 -257 647 -196 l 647 675 b 628 694 647 688 640 694 l 535 694 b 517 675 525 694 517 688 l 517 624 l 503 624 b 339 700 471 669 419 700 l 307 700 b 72 465 151 700 72 618 l 72 228 b 307 -7 72 75 151 -7 l 339 -7 b 503 69 419 -7 471 24 l 517 69 l 517 -15 b 357 -146 517 -118 456 -146 b 228 -142 314 -146 272 -146 b 201 -164 211 -140 201 -150 l 201 -222 b 232 -249 201 -237 213 -246 b 351 -257 272 -256 315 -257 z m 328 111 b 201 239 247 111 201 156 l 201 454 b 328 582 201 538 247 582 l 392 582 b 517 456 471 582 517 536 l 517 238 b 392 111 517 157 471 111 z "},"ğ":{"ha":726,"x_min":0,"x_max":0,"o":"m 340 768 l 411 768 b 590 954 533 768 590 829 b 571 972 590 967 585 972 l 501 972 b 482 954 488 972 483 967 b 397 860 479 901 457 860 l 356 860 b 271 954 296 860 274 901 b 250 972 269 967 264 972 l 182 972 b 163 954 168 972 163 967 b 340 768 163 829 221 768 z m 351 -257 b 647 -15 553 -257 647 -196 l 647 675 b 628 694 647 688 640 694 l 535 694 b 517 675 525 694 517 688 l 517 624 l 503 624 b 339 700 471 669 419 700 l 307 700 b 72 465 151 700 72 618 l 72 228 b 307 -7 72 75 151 -7 l 339 -7 b 503 69 419 -7 471 24 l 517 69 l 517 -15 b 357 -146 517 -118 456 -146 b 228 -142 314 -146 272 -146 b 201 -164 211 -140 201 -150 l 201 -222 b 232 -249 201 -237 213 -246 b 351 -257 272 -256 315 -257 z m 328 111 b 201 239 247 111 201 156 l 201 454 b 328 582 201 538 247 582 l 392 582 b 517 456 471 582 517 536 l 517 238 b 392 111 517 157 471 111 z "},"ǧ":{"ha":726,"x_min":0,"x_max":0,"o":"m 328 764 l 424 764 b 463 782 439 764 451 769 l 607 947 b 597 972 617 960 611 972 l 510 972 b 469 949 493 972 485 965 l 383 850 l 369 850 l 283 949 b 243 972 269 965 261 972 l 157 972 b 147 947 143 972 136 960 l 292 782 b 328 764 303 768 313 764 z m 351 -257 b 647 -15 553 -257 647 -196 l 647 675 b 628 694 647 688 640 694 l 535 694 b 517 675 525 694 517 688 l 517 624 l 503 624 b 339 700 471 669 419 700 l 307 700 b 72 465 151 700 72 618 l 72 228 b 307 -7 72 75 151 -7 l 339 -7 b 503 69 419 -7 471 24 l 517 69 l 517 -15 b 357 -146 517 -118 456 -146 b 228 -142 314 -146 272 -146 b 201 -164 211 -140 201 -150 l 201 -222 b 232 -249 201 -237 213 -246 b 351 -257 272 -256 315 -257 z m 328 111 b 201 239 247 111 201 156 l 201 454 b 328 582 201 538 247 582 l 392 582 b 517 456 471 582 517 536 l 517 238 b 392 111 517 157 471 111 z "},"ĝ":{"ha":726,"x_min":0,"x_max":0,"o":"m 324 972 b 288 953 308 972 299 967 l 143 789 b 153 764 132 776 139 764 l 239 764 b 279 788 257 764 265 771 l 365 886 l 379 886 l 465 788 b 506 764 481 771 489 764 l 593 764 b 603 789 607 764 613 776 l 458 953 b 419 972 447 967 435 972 z m 351 -257 b 647 -15 553 -257 647 -196 l 647 675 b 628 694 647 688 640 694 l 535 694 b 517 675 525 694 517 688 l 517 624 l 503 624 b 339 700 471 669 419 700 l 307 700 b 72 465 151 700 72 618 l 72 228 b 307 -7 72 75 151 -7 l 339 -7 b 503 69 419 -7 471 24 l 517 69 l 517 -15 b 357 -146 517 -118 456 -146 b 228 -142 314 -146 272 -146 b 201 -164 211 -140 201 -150 l 201 -222 b 232 -249 201 -237 213 -246 b 351 -257 272 -256 315 -257 z m 328 111 b 201 239 247 111 201 156 l 201 454 b 328 582 201 538 247 582 l 392 582 b 517 456 471 582 517 536 l 517 238 b 392 111 517 157 471 111 z "},"ģ":{"ha":726,"x_min":0,"x_max":0,"o":"m 283 786 l 360 786 b 379 806 374 786 379 792 l 379 1025 l 431 1025 b 450 1044 444 1025 450 1031 l 450 1115 b 431 1135 450 1129 444 1135 l 307 1135 b 264 1092 278 1135 264 1121 l 264 806 b 283 786 264 792 269 786 z m 351 -257 b 647 -15 553 -257 647 -196 l 647 675 b 628 694 647 688 640 694 l 535 694 b 517 675 525 694 517 688 l 517 624 l 503 624 b 339 700 471 669 419 700 l 307 700 b 72 465 151 700 72 618 l 72 228 b 307 -7 72 75 151 -7 l 339 -7 b 503 69 419 -7 471 24 l 517 69 l 517 -15 b 357 -146 517 -118 456 -146 b 228 -142 314 -146 272 -146 b 201 -164 211 -140 201 -150 l 201 -222 b 232 -249 201 -237 213 -246 b 351 -257 272 -256 315 -257 z m 328 111 b 201 239 247 111 201 156 l 201 454 b 328 582 201 538 247 582 l 392 582 b 517 456 471 582 517 536 l 517 238 b 392 111 517 157 471 111 z "},"ġ":{"ha":726,"x_min":0,"x_max":0,"o":"m 326 835 l 424 835 b 444 856 438 835 444 842 l 444 953 b 424 972 444 967 438 972 l 326 972 b 307 953 313 972 307 967 l 307 856 b 326 835 307 842 313 835 z m 351 -257 b 647 -15 553 -257 647 -196 l 647 675 b 628 694 647 688 640 694 l 535 694 b 517 675 525 694 517 688 l 517 624 l 503 624 b 339 700 471 669 419 700 l 307 700 b 72 465 151 700 72 618 l 72 228 b 307 -7 72 75 151 -7 l 339 -7 b 503 69 419 -7 471 24 l 517 69 l 517 -15 b 357 -146 517 -118 456 -146 b 228 -142 314 -146 272 -146 b 201 -164 211 -140 201 -150 l 201 -222 b 232 -249 201 -237 213 -246 b 351 -257 272 -256 315 -257 z m 328 111 b 201 239 247 111 201 156 l 201 454 b 328 582 201 538 247 582 l 392 582 b 517 456 471 582 517 536 l 517 238 b 392 111 517 157 471 111 z "},"h":{"ha":747,"x_min":0,"x_max":0,"o":"m 439 700 l 407 700 b 233 619 328 700 265 669 l 215 619 l 215 953 b 197 972 215 965 210 972 l 106 972 b 86 953 92 972 86 965 l 86 19 b 106 0 86 7 92 0 l 197 0 b 215 19 210 0 215 7 l 215 454 b 351 582 215 536 267 582 l 408 582 b 531 454 490 582 531 538 l 531 19 b 550 0 531 7 536 0 l 642 0 b 661 19 653 0 661 7 l 661 465 b 439 700 661 618 597 700 z "},"ħ":{"ha":725,"x_min":0,"x_max":0,"o":"m 439 700 l 407 700 b 233 619 328 700 265 669 l 215 619 l 215 758 l 471 758 b 492 779 483 758 492 765 l 492 857 b 471 878 492 871 483 878 l 215 878 l 215 953 b 197 972 215 965 210 972 l 106 972 b 86 953 92 972 86 965 l 86 878 l 21 878 b 0 857 7 878 0 871 l 0 779 b 21 758 0 765 7 758 l 86 758 l 86 19 b 106 0 86 7 92 0 l 197 0 b 215 19 210 0 215 7 l 215 454 b 351 582 215 536 267 582 l 408 582 b 531 454 490 582 531 538 l 531 19 b 550 0 531 7 536 0 l 642 0 b 661 19 653 0 661 7 l 661 465 b 439 700 661 618 597 700 z "},"ĥ":{"ha":747,"x_min":0,"x_max":0,"o":"m 154 1164 l 240 1065 b 281 1042 256 1049 264 1042 l 368 1042 b 378 1067 382 1042 388 1054 l 233 1231 b 194 1250 222 1244 210 1250 l 99 1250 b 63 1231 83 1250 74 1244 l -82 1067 b -72 1042 -93 1054 -86 1042 l 14 1042 b 54 1065 32 1042 40 1049 l 140 1164 z m 439 700 l 407 700 b 233 619 328 700 265 669 l 215 619 l 215 953 b 197 972 215 965 210 972 l 106 972 b 86 953 92 972 86 965 l 86 19 b 106 0 86 7 92 0 l 197 0 b 215 19 210 0 215 7 l 215 454 b 351 582 215 536 267 582 l 408 582 b 531 454 490 582 531 538 l 531 19 b 550 0 531 7 536 0 l 642 0 b 661 19 653 0 661 7 l 661 465 b 439 700 661 618 597 700 z "},"i":{"ha":303,"x_min":0,"x_max":0,"o":"m 106 846 l 197 846 b 217 865 211 846 217 853 l 217 953 b 197 972 217 965 211 972 l 106 972 b 86 953 92 972 86 965 l 86 865 b 106 846 86 853 92 846 z m 106 0 l 197 0 b 217 19 211 0 217 7 l 217 675 b 197 694 217 688 211 694 l 106 694 b 86 675 93 694 86 688 l 86 19 b 106 0 86 7 93 0 z "},"ı":{"ha":282,"x_min":0,"x_max":0,"o":"m 96 0 l 188 0 b 206 19 200 0 206 7 l 206 675 b 188 694 206 688 200 694 l 96 694 b 76 675 82 694 76 688 l 76 19 b 96 0 76 7 82 0 z "},"í":{"ha":282,"x_min":0,"x_max":0,"o":"m 174 947 l 90 788 b 104 763 82 771 89 763 l 182 763 b 213 788 196 763 203 774 l 338 947 b 324 972 350 963 339 972 l 203 972 b 174 947 189 972 183 964 z m 96 0 l 188 0 b 206 19 200 0 206 7 l 206 675 b 188 694 206 688 200 694 l 96 694 b 76 675 82 694 76 688 l 76 19 b 96 0 76 7 82 0 z "},"ǐ":{"ha":282,"x_min":0,"x_max":0,"o":"m 90 764 l 186 764 b 225 782 201 764 214 769 l 369 947 b 360 972 379 960 374 972 l 272 972 b 232 949 256 972 247 965 l 146 850 l 132 850 l 46 949 b 6 972 32 965 24 972 l -81 972 b -90 947 -94 972 -101 960 l 54 782 b 90 764 65 768 75 764 z m 96 0 l 188 0 b 206 19 200 0 206 7 l 206 675 b 188 694 206 688 200 694 l 96 694 b 76 675 82 694 76 688 l 76 19 b 96 0 76 7 82 0 z "},"î":{"ha":282,"x_min":0,"x_max":0,"o":"m 88 972 b 51 953 72 972 63 967 l -93 789 b -83 764 -104 776 -97 764 l 3 764 b 43 788 21 764 29 771 l 129 886 l 143 886 l 229 788 b 269 764 244 771 253 764 l 357 764 b 367 789 371 764 376 776 l 222 953 b 183 972 211 967 199 972 z m 96 0 l 188 0 b 206 19 200 0 206 7 l 206 675 b 188 694 206 688 200 694 l 96 694 b 76 675 82 694 76 688 l 76 19 b 96 0 76 7 82 0 z "},"ï":{"ha":282,"x_min":0,"x_max":0,"o":"m -106 835 l -8 835 b 13 856 6 835 13 842 l 13 953 b -8 972 13 967 6 972 l -106 972 b -125 953 -119 972 -125 967 l -125 856 b -106 835 -125 842 -119 835 z m 289 835 l 386 835 b 406 856 400 835 406 842 l 406 953 b 386 972 406 967 400 972 l 289 972 b 268 953 275 972 268 967 l 268 856 b 289 835 268 842 275 835 z m 96 0 l 188 0 b 206 19 200 0 206 7 l 206 675 b 188 694 206 688 200 694 l 96 694 b 76 675 82 694 76 688 l 76 19 b 96 0 76 7 82 0 z "},"ì":{"ha":282,"x_min":0,"x_max":0,"o":"m 111 947 b 82 972 103 964 96 972 l -39 972 b -53 947 -54 972 -65 963 l 72 788 b 104 763 83 774 90 763 l 181 763 b 194 788 196 763 204 771 z m 96 0 l 188 0 b 206 19 200 0 206 7 l 206 675 b 188 694 206 688 200 694 l 96 694 b 76 675 82 694 76 688 l 76 19 b 96 0 76 7 82 0 z "},"ĳ":{"ha":617,"x_min":0,"x_max":0,"o":"m 106 846 l 197 846 b 217 865 211 846 217 853 l 217 953 b 197 972 217 965 211 972 l 106 972 b 86 953 92 972 86 965 l 86 865 b 106 846 86 853 92 846 z m 419 846 l 511 846 b 531 865 525 846 531 853 l 531 953 b 511 972 531 965 525 972 l 419 972 b 400 953 406 972 400 965 l 400 865 b 419 846 400 853 406 846 z m 106 0 l 197 0 b 217 19 211 0 217 7 l 217 675 b 197 694 217 688 211 694 l 106 694 b 86 675 93 694 86 688 l 86 19 b 106 0 86 7 93 0 z m 357 -257 b 531 -53 500 -257 531 -179 l 531 675 b 511 694 531 688 525 694 l 419 694 b 401 675 407 694 401 688 l 401 -50 b 315 -142 401 -119 376 -142 b 285 -169 293 -142 285 -151 l 285 -219 b 357 -257 285 -246 301 -257 z "},"ī":{"ha":282,"x_min":0,"x_max":0,"o":"m -85 853 l 365 853 b 386 874 378 853 386 860 l 386 951 b 365 972 386 965 378 972 l -85 972 b -106 951 -99 972 -106 965 l -106 874 b -85 853 -106 860 -99 853 z m 96 0 l 188 0 b 206 19 200 0 206 7 l 206 675 b 188 694 206 688 200 694 l 96 694 b 76 675 82 694 76 688 l 76 19 b 96 0 76 7 82 0 z "},"į":{"ha":282,"x_min":0,"x_max":0,"o":"m 188 972 l 90 972 b 71 953 76 972 71 967 l 71 856 b 90 835 71 842 76 835 l 188 835 b 208 856 201 835 208 842 l 208 953 b 188 972 208 967 201 972 z m 188 694 l 96 694 b 76 675 82 694 76 688 l 76 -15 b 31 -54 76 -44 65 -50 l -25 -60 b -132 -168 -106 -68 -132 -82 b 1 -283 -132 -261 -103 -283 l 174 -283 b 188 -269 183 -283 188 -278 l 188 -211 b 174 -196 188 -201 182 -196 l 24 -196 b -14 -167 -7 -196 -14 -187 b 11 -139 -14 -144 -8 -140 l 124 -125 b 206 -43 182 -118 206 -107 l 206 675 b 188 694 206 688 200 694 z "},"j":{"ha":314,"x_min":0,"x_max":0,"o":"m 117 846 l 208 846 b 228 865 222 846 228 853 l 228 953 b 208 972 228 965 222 972 l 117 972 b 97 953 103 972 97 965 l 97 865 b 117 846 97 853 103 846 z m 54 -257 b 228 -53 197 -257 228 -179 l 228 675 b 208 694 228 688 222 694 l 117 694 b 99 675 104 694 99 688 l 99 -50 b 13 -142 99 -119 74 -142 b -18 -169 -10 -142 -18 -151 l -18 -219 b 54 -257 -18 -246 -1 -257 z "},"ȷ":{"ha":304,"x_min":0,"x_max":0,"o":"m 44 -257 b 218 -53 188 -257 218 -179 l 218 675 b 199 694 218 688 213 694 l 107 694 b 89 675 94 694 89 688 l 89 -50 b 3 -142 89 -119 64 -142 b -28 -169 -19 -142 -28 -151 l -28 -219 b 44 -257 -28 -246 -11 -257 z "},"ĵ":{"ha":304,"x_min":0,"x_max":0,"o":"m 103 972 b 67 953 88 972 78 967 l -78 789 b -68 764 -89 776 -82 764 l 18 764 b 58 788 36 764 44 771 l 144 886 l 158 886 l 244 788 b 285 764 260 771 268 764 l 372 764 b 382 789 386 764 392 776 l 238 953 b 199 972 226 967 214 972 z m 44 -257 b 218 -53 188 -257 218 -179 l 218 675 b 199 694 218 688 213 694 l 107 694 b 89 675 94 694 89 688 l 89 -50 b 3 -142 89 -119 64 -142 b -28 -169 -19 -142 -28 -151 l -28 -219 b 44 -257 -28 -246 -11 -257 z "},"k":{"ha":714,"x_min":0,"x_max":0,"o":"m 671 29 l 388 403 l 643 658 b 633 694 663 678 651 694 l 536 694 b 503 678 522 694 514 688 l 215 386 l 215 953 b 197 972 215 965 210 972 l 106 972 b 86 953 92 972 86 965 l 86 19 b 106 0 86 7 92 0 l 197 0 b 215 19 210 0 215 7 l 215 231 l 303 318 l 528 21 b 568 0 540 6 551 0 l 656 0 b 671 29 675 0 683 14 z "},"ķ":{"ha":714,"x_min":0,"x_max":0,"o":"m 671 29 l 388 403 l 643 658 b 633 694 663 678 651 694 l 536 694 b 503 678 522 694 514 688 l 215 386 l 215 953 b 197 972 215 965 210 972 l 106 972 b 86 953 92 972 86 965 l 86 19 b 106 0 86 7 92 0 l 197 0 b 215 19 210 0 215 7 l 215 231 l 303 318 l 528 21 b 568 0 540 6 551 0 l 656 0 b 671 29 675 0 683 14 z m 358 -83 l 282 -83 b 263 -103 268 -83 263 -89 l 263 -322 l 211 -322 b 192 -342 197 -322 192 -328 l 192 -412 b 211 -432 192 -426 197 -432 l 335 -432 b 378 -389 364 -432 378 -418 l 378 -103 b 358 -83 378 -89 372 -83 z "},"l":{"ha":301,"x_min":0,"x_max":0,"o":"m 106 0 l 197 0 b 215 19 210 0 215 7 l 215 953 b 197 972 215 965 210 972 l 106 972 b 86 953 92 972 86 965 l 86 19 b 106 0 86 7 92 0 z "},"ĺ":{"ha":301,"x_min":0,"x_max":0,"o":"m 185 1225 l 101 1065 b 115 1040 93 1049 100 1040 l 193 1040 b 224 1065 207 1040 214 1051 l 349 1225 b 335 1250 361 1240 350 1250 l 214 1250 b 185 1225 200 1250 194 1242 z m 106 0 l 197 0 b 215 19 210 0 215 7 l 215 953 b 197 972 215 965 210 972 l 106 972 b 86 953 92 972 86 965 l 86 19 b 106 0 86 7 92 0 z "},"ľ":{"ha":421,"x_min":0,"x_max":0,"o":"m 106 0 l 197 0 b 215 19 210 0 215 7 l 215 953 b 197 972 215 965 210 972 l 106 972 b 86 953 92 972 86 965 l 86 19 b 106 0 86 7 92 0 z m 436 972 l 360 972 b 340 953 346 972 340 967 l 340 733 l 289 733 b 269 714 275 733 269 728 l 269 643 b 289 624 269 629 275 624 l 413 624 b 456 667 442 624 456 638 l 456 953 b 436 972 456 967 450 972 z "},"ļ":{"ha":301,"x_min":0,"x_max":0,"o":"m 106 0 l 197 0 b 215 19 210 0 215 7 l 215 953 b 197 972 215 965 210 972 l 106 972 b 86 953 92 972 86 965 l 86 19 b 106 0 86 7 92 0 z m 188 -83 l 111 -83 b 92 -103 97 -83 92 -89 l 92 -322 l 40 -322 b 21 -342 26 -322 21 -328 l 21 -412 b 40 -432 21 -426 26 -432 l 164 -432 b 207 -389 193 -432 207 -418 l 207 -103 b 188 -83 207 -89 201 -83 z "},"ŀ":{"ha":381,"x_min":0,"x_max":0,"o":"m 106 0 l 197 0 b 215 19 210 0 215 7 l 215 953 b 197 972 215 965 210 972 l 106 972 b 86 953 92 972 86 965 l 86 19 b 106 0 86 7 92 0 z m 293 343 l 390 343 b 410 363 404 343 410 349 l 410 460 b 390 481 410 474 404 481 l 293 481 b 272 460 279 481 272 474 l 272 363 b 293 343 272 349 279 343 z "},"ł":{"ha":351,"x_min":0,"x_max":0,"o":"m 342 656 l 253 656 b 240 654 249 656 244 656 l 240 953 b 221 972 240 965 235 972 l 131 972 b 111 953 117 972 111 965 l 111 522 l -1 399 b 10 375 -12 386 -7 375 l 99 375 b 111 376 103 375 107 375 l 111 19 b 131 0 111 7 117 0 l 221 0 b 240 19 235 0 240 7 l 240 510 l 351 632 b 342 656 364 646 358 656 z "},"m":{"ha":1147,"x_min":0,"x_max":0,"o":"m 844 700 l 815 700 b 621 608 728 700 656 669 l 610 608 b 431 700 578 668 519 700 l 406 700 b 233 619 325 700 265 669 l 215 619 l 215 675 b 197 694 215 688 208 694 l 106 694 b 86 675 92 694 86 688 l 86 19 b 106 0 86 7 92 0 l 197 0 b 215 19 208 0 215 7 l 215 454 b 344 582 215 536 265 582 l 388 582 b 508 454 467 582 508 538 l 508 19 b 528 0 508 7 514 0 l 619 0 b 639 19 631 0 639 7 l 639 454 b 767 582 639 536 688 582 l 810 582 b 931 454 890 582 931 538 l 931 19 b 950 0 931 7 938 0 l 1043 0 b 1061 19 1053 0 1061 7 l 1061 465 b 844 700 1061 618 996 700 z "},"ḿ":{"ha":1147,"x_min":0,"x_max":0,"o":"m 546 763 l 624 763 b 654 788 638 763 644 774 l 779 947 b 765 972 792 963 781 972 l 644 972 b 615 947 631 972 625 964 l 532 788 b 546 763 524 771 531 763 z m 844 700 l 815 700 b 621 608 728 700 656 669 l 610 608 b 431 700 578 668 519 700 l 406 700 b 233 619 325 700 265 669 l 215 619 l 215 675 b 197 694 215 688 208 694 l 106 694 b 86 675 92 694 86 688 l 86 19 b 106 0 86 7 92 0 l 197 0 b 215 19 208 0 215 7 l 215 454 b 344 582 215 536 265 582 l 388 582 b 508 454 467 582 508 538 l 508 19 b 528 0 508 7 514 0 l 619 0 b 639 19 631 0 639 7 l 639 454 b 767 582 639 536 688 582 l 810 582 b 931 454 890 582 931 538 l 931 19 b 950 0 931 7 938 0 l 1043 0 b 1061 19 1053 0 1061 7 l 1061 465 b 844 700 1061 618 996 700 z "},"n":{"ha":747,"x_min":0,"x_max":0,"o":"m 106 0 l 197 0 b 215 19 208 0 215 7 l 215 454 b 351 582 215 536 267 582 l 408 582 b 531 454 490 582 531 538 l 531 19 b 550 0 531 7 536 0 l 642 0 b 661 19 653 0 661 7 l 661 465 b 439 700 661 618 597 700 l 407 700 b 233 619 328 700 265 669 l 215 619 l 215 675 b 197 694 215 688 208 694 l 106 694 b 86 675 92 694 86 688 l 86 19 b 106 0 86 7 92 0 z "},"ń":{"ha":747,"x_min":0,"x_max":0,"o":"m 407 947 l 324 788 b 338 763 315 771 322 763 l 415 763 b 446 788 429 763 436 774 l 571 947 b 557 972 583 963 572 972 l 436 972 b 407 947 422 972 417 964 z m 106 0 l 197 0 b 215 19 208 0 215 7 l 215 454 b 351 582 215 536 267 582 l 408 582 b 531 454 490 582 531 538 l 531 19 b 550 0 531 7 536 0 l 642 0 b 661 19 653 0 661 7 l 661 465 b 439 700 661 618 597 700 l 407 700 b 233 619 328 700 265 669 l 215 619 l 215 675 b 197 694 215 688 208 694 l 106 694 b 86 675 92 694 86 688 l 86 19 b 106 0 86 7 92 0 z "},"ň":{"ha":747,"x_min":0,"x_max":0,"o":"m 324 764 l 419 764 b 458 782 435 764 447 769 l 603 947 b 593 972 613 960 607 972 l 506 972 b 465 949 489 972 481 965 l 379 850 l 365 850 l 279 949 b 239 972 265 965 257 972 l 153 972 b 143 947 139 972 132 960 l 288 782 b 324 764 299 768 308 764 z m 106 0 l 197 0 b 215 19 208 0 215 7 l 215 454 b 351 582 215 536 267 582 l 408 582 b 531 454 490 582 531 538 l 531 19 b 550 0 531 7 536 0 l 642 0 b 661 19 653 0 661 7 l 661 465 b 439 700 661 618 597 700 l 407 700 b 233 619 328 700 265 669 l 215 619 l 215 675 b 197 694 215 688 208 694 l 106 694 b 86 675 92 694 86 688 l 86 19 b 106 0 86 7 92 0 z "},"ņ":{"ha":747,"x_min":0,"x_max":0,"o":"m 106 0 l 197 0 b 215 19 208 0 215 7 l 215 454 b 351 582 215 536 267 582 l 408 582 b 531 454 490 582 531 538 l 531 19 b 550 0 531 7 536 0 l 642 0 b 661 19 653 0 661 7 l 661 465 b 439 700 661 618 597 700 l 407 700 b 233 619 328 700 265 669 l 215 619 l 215 675 b 197 694 215 688 208 694 l 106 694 b 86 675 92 694 86 688 l 86 19 b 106 0 86 7 92 0 z m 410 -83 l 333 -83 b 314 -103 319 -83 314 -89 l 314 -322 l 263 -322 b 243 -342 249 -322 243 -328 l 243 -412 b 263 -432 243 -426 249 -432 l 386 -432 b 429 -389 415 -432 429 -418 l 429 -103 b 410 -83 429 -89 424 -83 z "},"ŋ":{"ha":747,"x_min":0,"x_max":0,"o":"m 439 700 l 407 700 b 233 619 328 700 265 669 l 215 619 l 215 675 b 197 694 215 688 208 694 l 106 694 b 86 675 92 694 86 688 l 86 19 b 106 0 86 7 92 0 l 197 0 b 215 19 208 0 215 7 l 215 454 b 351 582 215 536 267 582 l 408 582 b 531 454 490 582 531 538 l 531 233 l 521 233 l 521 -78 b 436 -169 521 -147 496 -169 b 406 -197 413 -169 406 -179 l 406 -247 b 476 -285 406 -274 422 -285 b 651 -81 621 -285 651 -207 l 651 3 b 661 19 657 6 661 11 l 661 465 b 439 700 661 618 597 700 z "},"ñ":{"ha":747,"x_min":0,"x_max":0,"o":"m 469 804 b 597 846 513 804 553 815 b 608 874 608 854 613 863 l 581 939 b 557 946 576 949 569 953 b 474 918 524 925 504 918 b 278 979 399 918 371 979 b 150 938 235 979 194 968 b 139 910 139 929 133 922 l 167 844 b 190 839 171 836 178 831 b 272 865 222 858 242 865 b 469 804 349 865 376 804 z m 106 0 l 197 0 b 215 19 208 0 215 7 l 215 454 b 351 582 215 536 267 582 l 408 582 b 531 454 490 582 531 538 l 531 19 b 550 0 531 7 536 0 l 642 0 b 661 19 653 0 661 7 l 661 465 b 439 700 661 618 597 700 l 407 700 b 233 619 328 700 265 669 l 215 619 l 215 675 b 197 694 215 688 208 694 l 106 694 b 86 675 92 694 86 688 l 86 19 b 106 0 86 7 92 0 z "},"o":{"ha":719,"x_min":0,"x_max":0,"o":"m 321 -7 l 397 -7 b 647 232 564 -7 647 82 l 647 461 b 397 700 647 611 565 700 l 321 700 b 72 461 154 700 72 611 l 72 232 b 321 -7 72 82 154 -7 z m 325 111 b 201 233 246 111 201 153 l 201 460 b 325 582 201 540 246 582 l 393 582 b 517 460 474 582 517 540 l 517 233 b 393 111 517 153 474 111 z "},"ó":{"ha":719,"x_min":0,"x_max":0,"o":"m 393 947 l 310 788 b 324 763 301 771 308 763 l 401 763 b 432 788 415 763 422 774 l 557 947 b 543 972 569 963 558 972 l 422 972 b 393 947 408 972 403 964 z m 321 -7 l 397 -7 b 647 232 564 -7 647 82 l 647 461 b 397 700 647 611 565 700 l 321 700 b 72 461 154 700 72 611 l 72 232 b 321 -7 72 82 154 -7 z m 325 111 b 201 233 246 111 201 153 l 201 460 b 325 582 201 540 246 582 l 393 582 b 517 460 474 582 517 540 l 517 233 b 393 111 517 153 474 111 z "},"ǒ":{"ha":719,"x_min":0,"x_max":0,"o":"m 310 764 l 406 764 b 444 782 421 764 433 769 l 589 947 b 579 972 599 960 593 972 l 492 972 b 451 949 475 972 467 965 l 365 850 l 351 850 l 265 949 b 225 972 251 965 243 972 l 139 972 b 129 947 125 972 118 960 l 274 782 b 310 764 285 768 294 764 z m 321 -7 l 397 -7 b 647 232 564 -7 647 82 l 647 461 b 397 700 647 611 565 700 l 321 700 b 72 461 154 700 72 611 l 72 232 b 321 -7 72 82 154 -7 z m 325 111 b 201 233 246 111 201 153 l 201 460 b 325 582 201 540 246 582 l 393 582 b 517 460 474 582 517 540 l 517 233 b 393 111 517 153 474 111 z "},"ô":{"ha":719,"x_min":0,"x_max":0,"o":"m 307 972 b 271 953 292 972 282 967 l 126 789 b 136 764 115 776 122 764 l 222 764 b 263 788 240 764 249 771 l 349 886 l 363 886 l 449 788 b 489 764 464 771 472 764 l 576 764 b 586 789 590 764 596 776 l 442 953 b 403 972 431 967 418 972 z m 321 -7 l 397 -7 b 647 232 564 -7 647 82 l 647 461 b 397 700 647 611 565 700 l 321 700 b 72 461 154 700 72 611 l 72 232 b 321 -7 72 82 154 -7 z m 325 111 b 201 233 246 111 201 153 l 201 460 b 325 582 201 540 246 582 l 393 582 b 517 460 474 582 517 540 l 517 233 b 393 111 517 153 474 111 z "},"ö":{"ha":719,"x_min":0,"x_max":0,"o":"m 114 835 l 211 835 b 232 856 225 835 232 842 l 232 953 b 211 972 232 967 225 972 l 114 972 b 94 953 100 972 94 967 l 94 856 b 114 835 94 842 100 835 z m 508 835 l 606 835 b 625 856 619 835 625 842 l 625 953 b 606 972 625 967 619 972 l 508 972 b 488 953 494 972 488 967 l 488 856 b 508 835 488 842 494 835 z m 321 -7 l 397 -7 b 647 232 564 -7 647 82 l 647 461 b 397 700 647 611 565 700 l 321 700 b 72 461 154 700 72 611 l 72 232 b 321 -7 72 82 154 -7 z m 325 111 b 201 233 246 111 201 153 l 201 460 b 325 582 201 540 246 582 l 393 582 b 517 460 474 582 517 540 l 517 233 b 393 111 517 153 474 111 z "},"ò":{"ha":719,"x_min":0,"x_max":0,"o":"m 331 947 b 301 972 322 964 315 972 l 181 972 b 167 947 165 972 154 963 l 292 788 b 324 763 303 774 310 763 l 400 763 b 414 788 415 763 424 771 z m 321 -7 l 397 -7 b 647 232 564 -7 647 82 l 647 461 b 397 700 647 611 565 700 l 321 700 b 72 461 154 700 72 611 l 72 232 b 321 -7 72 82 154 -7 z m 325 111 b 201 233 246 111 201 153 l 201 460 b 325 582 201 540 246 582 l 393 582 b 517 460 474 582 517 540 l 517 233 b 393 111 517 153 474 111 z "},"ő":{"ha":719,"x_min":0,"x_max":0,"o":"m 276 947 l 193 788 b 207 763 185 771 192 763 l 285 763 b 315 788 299 763 306 774 l 440 947 b 426 972 453 963 442 972 l 306 972 b 276 947 292 972 286 964 z m 504 947 l 421 788 b 435 763 411 771 419 763 l 511 763 b 543 788 525 763 532 774 l 668 947 b 654 972 681 963 669 972 l 533 972 b 504 947 519 972 513 964 z m 321 -7 l 397 -7 b 647 232 564 -7 647 82 l 647 461 b 397 700 647 611 565 700 l 321 700 b 72 461 154 700 72 611 l 72 232 b 321 -7 72 82 154 -7 z m 325 111 b 201 233 246 111 201 153 l 201 460 b 325 582 201 540 246 582 l 393 582 b 517 460 474 582 517 540 l 517 233 b 393 111 517 153 474 111 z "},"ō":{"ha":719,"x_min":0,"x_max":0,"o":"m 135 853 l 585 853 b 606 874 597 853 606 860 l 606 951 b 585 972 606 965 597 972 l 135 972 b 114 951 121 972 114 965 l 114 874 b 135 853 114 860 121 853 z m 321 -7 l 397 -7 b 647 232 564 -7 647 82 l 647 461 b 397 700 647 611 565 700 l 321 700 b 72 461 154 700 72 611 l 72 232 b 321 -7 72 82 154 -7 z m 325 111 b 201 233 246 111 201 153 l 201 460 b 325 582 201 540 246 582 l 393 582 b 517 460 474 582 517 540 l 517 233 b 393 111 517 153 474 111 z "},"ø":{"ha":719,"x_min":0,"x_max":0,"o":"m 565 654 l 583 690 b 569 708 589 701 583 708 l 503 708 b 478 692 489 708 483 703 b 397 700 454 697 426 700 l 321 700 b 72 461 154 700 72 611 l 72 232 b 156 38 72 144 100 78 l 136 -1 b 150 -21 131 -14 136 -21 l 217 -21 b 242 -3 231 -21 236 -15 l 243 0 b 321 -7 267 -4 293 -7 l 397 -7 b 647 232 564 -7 647 82 l 647 461 b 565 654 647 547 621 614 z m 201 233 l 201 460 b 325 582 201 540 246 582 l 393 582 b 424 579 404 582 414 581 l 217 163 b 201 233 207 182 201 206 z m 517 233 b 393 111 517 153 474 111 l 325 111 b 299 113 315 111 307 111 l 503 526 b 517 460 513 508 517 486 z "},"õ":{"ha":719,"x_min":0,"x_max":0,"o":"m 456 804 b 583 846 499 804 539 815 b 594 874 594 854 599 863 l 567 939 b 543 946 563 949 556 953 b 460 918 510 925 490 918 b 264 979 385 918 357 979 b 136 938 221 979 181 968 b 125 910 125 929 119 922 l 153 844 b 176 839 157 836 164 831 b 258 865 208 858 228 865 b 456 804 335 865 363 804 z m 321 -7 l 397 -7 b 647 232 564 -7 647 82 l 647 461 b 397 700 647 611 565 700 l 321 700 b 72 461 154 700 72 611 l 72 232 b 321 -7 72 82 154 -7 z m 325 111 b 201 233 246 111 201 153 l 201 460 b 325 582 201 540 246 582 l 393 582 b 517 460 474 582 517 540 l 517 233 b 393 111 517 153 474 111 z "},"œ":{"ha":1154,"x_min":0,"x_max":0,"o":"m 833 700 l 765 700 b 582 639 685 700 624 679 b 397 700 540 679 479 700 l 321 700 b 72 461 154 700 72 611 l 72 232 b 321 -7 72 82 154 -7 l 397 -7 b 585 57 481 -7 543 15 b 797 -7 631 15 700 -7 l 814 -7 b 1054 75 921 -7 1010 29 b 1053 96 1060 79 1060 88 l 1024 139 b 999 146 1018 150 1010 153 b 814 106 960 124 911 106 l 800 106 b 647 233 693 106 647 158 l 647 294 l 1039 294 b 1082 338 1067 294 1082 311 l 1082 461 b 833 700 1082 611 1000 700 z m 393 111 l 325 111 b 201 233 246 111 201 153 l 201 460 b 325 582 201 540 246 582 l 393 582 b 517 460 474 582 517 540 l 517 233 b 393 111 517 153 474 111 z m 953 392 l 647 392 l 647 458 b 769 582 647 539 692 582 l 829 582 b 953 460 908 582 953 540 z "},"p":{"ha":733,"x_min":0,"x_max":0,"o":"m 426 700 l 393 700 b 229 624 313 700 261 669 l 215 624 l 215 675 b 197 694 215 688 210 694 l 106 694 b 86 675 92 694 86 688 l 86 -226 b 106 -246 86 -239 92 -246 l 197 -246 b 215 -226 210 -246 215 -239 l 215 69 l 229 69 b 393 -7 261 24 313 -7 l 426 -7 b 661 228 582 -7 661 75 l 661 465 b 426 700 661 618 582 700 z m 531 239 b 406 111 531 156 486 111 l 340 111 b 215 238 263 111 215 157 l 215 456 b 340 582 215 536 263 582 l 406 582 b 531 454 486 582 531 538 z "},"þ":{"ha":733,"x_min":0,"x_max":0,"o":"m 426 700 l 393 700 b 229 624 313 700 261 669 l 215 624 l 215 953 b 197 972 215 965 210 972 l 106 972 b 86 953 92 972 86 965 l 86 -226 b 106 -246 86 -239 92 -246 l 197 -246 b 215 -226 210 -246 215 -239 l 215 69 l 229 69 b 393 -7 261 24 313 -7 l 426 -7 b 661 228 582 -7 661 75 l 661 465 b 426 700 661 618 582 700 z m 531 239 b 406 111 531 156 486 111 l 340 111 b 215 238 263 111 215 157 l 215 456 b 340 582 215 536 263 582 l 406 582 b 531 454 486 582 531 538 z "},"q":{"ha":733,"x_min":0,"x_max":0,"o":"m 307 700 b 72 465 151 700 72 618 l 72 228 b 307 -7 72 75 151 -7 l 339 -7 b 503 69 419 -7 471 24 l 517 69 l 517 -226 b 536 -246 517 -239 522 -246 l 628 -246 b 647 -226 640 -246 647 -239 l 647 675 b 628 694 647 688 640 694 l 536 694 b 517 675 522 694 517 688 l 517 624 l 503 624 b 339 700 471 669 419 700 z m 201 239 l 201 454 b 328 582 201 538 247 582 l 392 582 b 517 456 471 582 517 536 l 517 238 b 392 111 517 157 471 111 l 328 111 b 201 239 247 111 201 156 z "},"r":{"ha":656,"x_min":0,"x_max":0,"o":"m 106 0 l 197 0 b 215 19 208 0 215 7 l 215 454 b 347 582 215 536 265 582 l 379 582 b 485 475 457 582 485 540 b 504 456 485 463 492 456 l 586 456 b 604 475 597 456 604 463 l 604 504 b 424 700 604 632 553 700 l 403 700 b 233 619 325 700 265 669 l 215 619 l 215 675 b 197 694 215 688 208 694 l 106 694 b 86 675 92 694 86 688 l 86 19 b 106 0 86 7 92 0 z "},"ŕ":{"ha":656,"x_min":0,"x_max":0,"o":"m 382 947 l 299 788 b 313 763 290 771 297 763 l 390 763 b 421 788 404 763 411 774 l 546 947 b 532 972 558 963 547 972 l 411 972 b 382 947 397 972 392 964 z m 106 0 l 197 0 b 215 19 208 0 215 7 l 215 454 b 347 582 215 536 265 582 l 379 582 b 485 475 457 582 485 540 b 504 456 485 463 492 456 l 586 456 b 604 475 597 456 604 463 l 604 504 b 424 700 604 632 553 700 l 403 700 b 233 619 325 700 265 669 l 215 619 l 215 675 b 197 694 215 688 208 694 l 106 694 b 86 675 92 694 86 688 l 86 19 b 106 0 86 7 92 0 z "},"ř":{"ha":656,"x_min":0,"x_max":0,"o":"m 300 764 l 396 764 b 435 782 411 764 424 769 l 579 947 b 569 972 589 960 583 972 l 482 972 b 442 949 465 972 457 965 l 356 850 l 342 850 l 256 949 b 215 972 242 965 233 972 l 129 972 b 119 947 115 972 108 960 l 264 782 b 300 764 275 768 285 764 z m 106 0 l 197 0 b 215 19 208 0 215 7 l 215 454 b 347 582 215 536 265 582 l 379 582 b 485 475 457 582 485 540 b 504 456 485 463 492 456 l 586 456 b 604 475 597 456 604 463 l 604 504 b 424 700 604 632 553 700 l 403 700 b 233 619 325 700 265 669 l 215 619 l 215 675 b 197 694 215 688 208 694 l 106 694 b 86 675 92 694 86 688 l 86 19 b 106 0 86 7 92 0 z "},"ŗ":{"ha":656,"x_min":0,"x_max":0,"o":"m 106 0 l 197 0 b 215 19 208 0 215 7 l 215 454 b 347 582 215 536 265 582 l 379 582 b 485 475 457 582 485 540 b 504 456 485 463 492 456 l 586 456 b 604 475 597 456 604 463 l 604 504 b 424 700 604 632 553 700 l 403 700 b 233 619 325 700 265 669 l 215 619 l 215 675 b 197 694 215 688 208 694 l 106 694 b 86 675 92 694 86 688 l 86 19 b 106 0 86 7 92 0 z m 188 -83 l 111 -83 b 92 -103 97 -83 92 -89 l 92 -322 l 40 -322 b 21 -342 26 -322 21 -328 l 21 -412 b 40 -432 21 -426 26 -432 l 164 -432 b 207 -389 193 -432 207 -418 l 207 -103 b 188 -83 207 -89 201 -83 z "},"s":{"ha":679,"x_min":0,"x_max":0,"o":"m 306 -7 l 365 -7 b 614 200 521 -7 614 49 b 367 399 614 343 532 381 l 325 403 b 199 501 235 413 199 439 b 308 588 199 563 236 588 l 357 588 b 471 501 431 588 464 558 b 499 479 474 485 483 479 l 579 479 b 599 500 593 479 599 488 b 369 700 599 631 507 700 l 303 700 b 68 499 161 700 68 643 b 306 296 68 368 139 313 l 347 290 b 485 197 438 281 485 264 b 365 106 485 133 442 106 l 311 106 b 194 182 239 106 206 129 b 174 200 193 193 188 200 l 85 200 b 65 176 71 200 65 192 b 306 -7 65 53 154 -7 z "},"ś":{"ha":679,"x_min":0,"x_max":0,"o":"m 369 947 l 286 788 b 300 763 278 771 285 763 l 378 763 b 408 788 392 763 399 774 l 533 947 b 519 972 546 963 535 972 l 399 972 b 369 947 385 972 379 964 z m 306 -7 l 365 -7 b 614 200 521 -7 614 49 b 367 399 614 343 532 381 l 325 403 b 199 501 235 413 199 439 b 308 588 199 563 236 588 l 357 588 b 471 501 431 588 464 558 b 499 479 474 485 483 479 l 579 479 b 599 500 593 479 599 488 b 369 700 599 631 507 700 l 303 700 b 68 499 161 700 68 643 b 306 296 68 368 139 313 l 347 290 b 485 197 438 281 485 264 b 365 106 485 133 442 106 l 311 106 b 194 182 239 106 206 129 b 174 200 193 193 188 200 l 85 200 b 65 176 71 200 65 192 b 306 -7 65 53 154 -7 z "},"š":{"ha":679,"x_min":0,"x_max":0,"o":"m 286 764 l 382 764 b 421 782 397 764 410 769 l 565 947 b 556 972 575 960 569 972 l 468 972 b 428 949 451 972 443 965 l 342 850 l 328 850 l 242 949 b 201 972 228 965 219 972 l 115 972 b 106 947 101 972 94 960 l 250 782 b 286 764 261 768 271 764 z m 306 -7 l 365 -7 b 614 200 521 -7 614 49 b 367 399 614 343 532 381 l 325 403 b 199 501 235 413 199 439 b 308 588 199 563 236 588 l 357 588 b 471 501 431 588 464 558 b 499 479 474 485 483 479 l 579 479 b 599 500 593 479 599 488 b 369 700 599 631 507 700 l 303 700 b 68 499 161 700 68 643 b 306 296 68 368 139 313 l 347 290 b 485 197 438 281 485 264 b 365 106 485 133 442 106 l 311 106 b 194 182 239 106 206 129 b 174 200 193 193 188 200 l 85 200 b 65 176 71 200 65 192 b 306 -7 65 53 154 -7 z "},"ş":{"ha":679,"x_min":0,"x_max":0,"o":"m 417 -4 b 614 200 542 7 614 67 b 367 399 614 343 532 381 l 325 403 b 199 501 235 413 199 439 b 308 588 199 563 236 588 l 357 588 b 471 501 431 588 464 558 b 499 479 474 485 483 479 l 579 479 b 599 500 593 479 599 488 b 369 700 599 631 507 700 l 303 700 b 68 499 161 700 68 643 b 306 296 68 368 139 313 l 347 290 b 485 197 438 281 485 264 b 365 106 485 133 442 106 l 311 106 b 194 182 239 106 206 129 b 174 200 193 193 188 200 l 85 200 b 65 176 71 200 65 192 b 300 -7 65 54 151 -6 b 249 -82 263 -42 249 -58 b 303 -131 249 -114 274 -128 b 444 -169 414 -142 444 -143 b 390 -201 444 -197 426 -201 l 363 -201 b 310 -168 326 -201 311 -190 b 294 -154 308 -160 303 -154 l 221 -154 b 207 -171 210 -154 207 -161 b 328 -282 207 -240 238 -282 l 417 -282 b 547 -169 507 -282 547 -243 b 414 -60 547 -83 501 -69 b 417 -4 379 -56 354 -50 z "},"ŝ":{"ha":679,"x_min":0,"x_max":0,"o":"m 283 972 b 247 953 268 972 258 967 l 103 789 b 113 764 92 776 99 764 l 199 764 b 239 788 217 764 225 771 l 325 886 l 339 886 l 425 788 b 465 764 440 771 449 764 l 553 764 b 563 789 567 764 572 776 l 418 953 b 379 972 407 967 394 972 z m 306 -7 l 365 -7 b 614 200 521 -7 614 49 b 367 399 614 343 532 381 l 325 403 b 199 501 235 413 199 439 b 308 588 199 563 236 588 l 357 588 b 471 501 431 588 464 558 b 499 479 474 485 483 479 l 579 479 b 599 500 593 479 599 488 b 369 700 599 631 507 700 l 303 700 b 68 499 161 700 68 643 b 306 296 68 368 139 313 l 347 290 b 485 197 438 281 485 264 b 365 106 485 133 442 106 l 311 106 b 194 182 239 106 206 129 b 174 200 193 193 188 200 l 85 200 b 65 176 71 200 65 192 b 306 -7 65 53 154 -7 z "},"ș":{"ha":679,"x_min":0,"x_max":0,"o":"m 306 -7 l 365 -7 b 614 200 521 -7 614 49 b 367 399 614 343 532 381 l 325 403 b 199 501 235 413 199 439 b 308 588 199 563 236 588 l 357 588 b 471 501 431 588 464 558 b 499 479 474 485 483 479 l 579 479 b 599 500 593 479 599 488 b 369 700 599 631 507 700 l 303 700 b 68 499 161 700 68 643 b 306 296 68 368 139 313 l 347 290 b 485 197 438 281 485 264 b 365 106 485 133 442 106 l 311 106 b 194 182 239 106 206 129 b 174 200 193 193 188 200 l 85 200 b 65 176 71 200 65 192 b 306 -7 65 53 154 -7 z m 372 -83 l 296 -83 b 276 -103 282 -83 276 -89 l 276 -322 l 225 -322 b 206 -342 211 -322 206 -328 l 206 -412 b 225 -432 206 -426 211 -432 l 349 -432 b 392 -389 378 -432 392 -418 l 392 -103 b 372 -83 392 -89 386 -83 z "},"ß":{"ha":799,"x_min":0,"x_max":0,"o":"m 106 0 l 197 0 b 215 19 210 0 215 7 l 215 736 b 339 861 215 817 261 861 l 433 861 b 557 736 513 861 557 817 l 557 685 b 433 574 557 606 510 574 l 397 574 b 378 554 383 574 378 568 l 378 478 b 397 458 378 464 383 458 l 433 458 b 597 324 528 458 597 426 l 597 254 b 438 117 597 149 554 117 l 397 117 b 378 96 383 117 378 110 l 378 19 b 397 0 378 6 383 0 l 438 0 b 726 254 639 0 726 56 l 726 324 b 576 514 726 442 665 493 l 576 526 b 686 685 665 554 686 617 l 686 739 b 438 979 686 888 608 979 l 335 979 b 86 739 165 979 86 888 l 86 19 b 106 0 86 7 92 0 z "},"t":{"ha":468,"x_min":0,"x_max":0,"o":"m 390 694 l 285 694 l 285 829 b 265 847 285 842 279 847 l 174 847 b 156 829 161 847 156 842 l 156 694 l 64 694 b 44 675 51 694 44 689 l 44 599 b 64 578 44 585 51 578 l 156 578 l 156 197 b 329 -7 156 71 185 -7 b 401 31 385 -7 401 4 l 401 81 b 369 108 401 99 393 108 b 285 200 310 108 285 131 l 285 578 l 390 578 b 410 599 404 578 410 585 l 410 675 b 390 694 410 689 404 694 z "},"ŧ":{"ha":468,"x_min":0,"x_max":0,"o":"m 390 578 b 410 599 404 578 410 585 l 410 675 b 390 694 410 689 404 694 l 285 694 l 285 829 b 265 847 285 842 279 847 l 174 847 b 156 829 161 847 156 842 l 156 694 l 64 694 b 44 675 51 694 44 689 l 44 599 b 64 578 44 585 51 578 l 156 578 l 156 489 l 64 489 b 44 469 51 489 44 483 l 44 393 b 64 372 44 379 51 372 l 156 372 l 156 197 b 329 -7 156 71 185 -7 b 401 31 385 -7 401 4 l 401 81 b 369 108 401 99 393 108 b 285 200 310 108 285 131 l 285 372 l 390 372 b 410 393 404 372 410 379 l 410 469 b 390 489 410 483 404 489 l 285 489 l 285 578 z "},"ť":{"ha":443,"x_min":0,"x_max":0,"o":"m 497 1092 l 421 1092 b 401 1072 407 1092 401 1086 l 401 853 l 350 853 b 331 833 336 853 331 847 l 331 764 b 350 744 331 750 336 744 l 474 744 b 517 786 503 744 517 758 l 517 1072 b 497 1092 517 1086 511 1092 z m 390 694 l 285 694 l 285 829 b 265 847 285 842 279 847 l 174 847 b 156 829 161 847 156 842 l 156 694 l 64 694 b 44 675 51 694 44 689 l 44 599 b 64 578 44 585 51 578 l 156 578 l 156 197 b 329 -7 156 71 185 -7 b 401 31 385 -7 401 4 l 401 81 b 369 108 401 99 393 108 b 285 200 310 108 285 131 l 285 578 l 390 578 b 410 599 404 578 410 585 l 410 675 b 390 694 410 689 404 694 z "},"ţ":{"ha":444,"x_min":0,"x_max":0,"o":"m 347 -54 b 340 -7 314 -50 292 -46 b 401 31 388 -6 401 6 l 401 81 b 369 108 401 99 393 108 b 285 200 310 108 285 131 l 285 578 l 390 578 b 410 599 404 578 410 585 l 410 675 b 390 694 410 689 404 694 l 285 694 l 285 829 b 265 847 285 842 279 847 l 174 847 b 156 829 161 847 156 842 l 156 694 l 64 694 b 44 675 51 694 44 689 l 44 599 b 64 578 44 585 51 578 l 156 578 l 156 197 b 246 6 156 100 172 32 l 240 6 b 182 -76 199 -35 182 -51 b 236 -125 182 -108 207 -122 b 378 -164 347 -136 378 -137 b 324 -196 378 -192 361 -196 l 296 -196 b 243 -162 260 -196 246 -185 b 228 -149 242 -154 236 -149 l 154 -149 b 140 -165 143 -149 140 -156 b 261 -276 140 -235 171 -276 l 351 -276 b 481 -164 440 -276 481 -237 b 347 -54 481 -78 435 -64 z "},"ț":{"ha":468,"x_min":0,"x_max":0,"o":"m 390 694 l 285 694 l 285 829 b 265 847 285 842 279 847 l 174 847 b 156 829 161 847 156 842 l 156 694 l 64 694 b 44 675 51 694 44 689 l 44 599 b 64 578 44 585 51 578 l 156 578 l 156 197 b 329 -7 156 71 185 -7 b 401 31 385 -7 401 4 l 401 81 b 369 108 401 99 393 108 b 285 200 310 108 285 131 l 285 578 l 390 578 b 410 599 404 578 410 585 l 410 675 b 390 694 410 689 404 694 z m 306 -83 l 229 -83 b 210 -103 215 -83 210 -89 l 210 -322 l 158 -322 b 139 -342 144 -322 139 -328 l 139 -412 b 158 -432 139 -426 144 -432 l 282 -432 b 325 -389 311 -432 325 -418 l 325 -103 b 306 -83 325 -89 319 -83 z "},"u":{"ha":747,"x_min":0,"x_max":0,"o":"m 642 694 l 550 694 b 532 675 539 694 532 688 l 532 240 b 396 113 532 158 481 113 l 339 113 b 217 240 257 113 217 157 l 217 675 b 197 694 217 688 211 694 l 106 694 b 86 675 94 694 86 688 l 86 229 b 308 -6 86 76 150 -6 l 340 -6 b 514 75 419 -6 482 25 l 532 75 l 532 19 b 550 0 532 7 539 0 l 642 0 b 661 19 656 0 661 7 l 661 675 b 642 694 661 688 656 694 z "},"ú":{"ha":747,"x_min":0,"x_max":0,"o":"m 393 947 l 310 788 b 324 763 301 771 308 763 l 401 763 b 432 788 415 763 422 774 l 557 947 b 543 972 569 963 558 972 l 422 972 b 393 947 408 972 403 964 z m 642 694 l 550 694 b 532 675 539 694 532 688 l 532 240 b 396 113 532 158 481 113 l 339 113 b 217 240 257 113 217 157 l 217 675 b 197 694 217 688 211 694 l 106 694 b 86 675 94 694 86 688 l 86 229 b 308 -6 86 76 150 -6 l 340 -6 b 514 75 419 -6 482 25 l 532 75 l 532 19 b 550 0 532 7 539 0 l 642 0 b 661 19 656 0 661 7 l 661 675 b 642 694 661 688 656 694 z "},"ŭ":{"ha":747,"x_min":0,"x_max":0,"o":"m 322 768 l 393 768 b 572 954 515 768 572 829 b 553 972 572 967 567 972 l 483 972 b 464 954 469 972 465 967 b 379 860 461 901 439 860 l 338 860 b 253 954 278 860 256 901 b 232 972 251 967 246 972 l 164 972 b 144 954 150 972 144 967 b 322 768 144 829 203 768 z m 642 694 l 550 694 b 532 675 539 694 532 688 l 532 240 b 396 113 532 158 481 113 l 339 113 b 217 240 257 113 217 157 l 217 675 b 197 694 217 688 211 694 l 106 694 b 86 675 94 694 86 688 l 86 229 b 308 -6 86 76 150 -6 l 340 -6 b 514 75 419 -6 482 25 l 532 75 l 532 19 b 550 0 532 7 539 0 l 642 0 b 661 19 656 0 661 7 l 661 675 b 642 694 661 688 656 694 z "},"ǔ":{"ha":747,"x_min":0,"x_max":0,"o":"m 310 764 l 406 764 b 444 782 421 764 433 769 l 589 947 b 579 972 599 960 593 972 l 492 972 b 451 949 475 972 467 965 l 365 850 l 351 850 l 265 949 b 225 972 251 965 243 972 l 139 972 b 129 947 125 972 118 960 l 274 782 b 310 764 285 768 294 764 z m 642 694 l 550 694 b 532 675 539 694 532 688 l 532 240 b 396 113 532 158 481 113 l 339 113 b 217 240 257 113 217 157 l 217 675 b 197 694 217 688 211 694 l 106 694 b 86 675 94 694 86 688 l 86 229 b 308 -6 86 76 150 -6 l 340 -6 b 514 75 419 -6 482 25 l 532 75 l 532 19 b 550 0 532 7 539 0 l 642 0 b 661 19 656 0 661 7 l 661 675 b 642 694 661 688 656 694 z "},"û":{"ha":747,"x_min":0,"x_max":0,"o":"m 307 972 b 271 953 292 972 282 967 l 126 789 b 136 764 115 776 122 764 l 222 764 b 263 788 240 764 249 771 l 349 886 l 363 886 l 449 788 b 489 764 464 771 472 764 l 576 764 b 586 789 590 764 596 776 l 442 953 b 403 972 431 967 418 972 z m 642 694 l 550 694 b 532 675 539 694 532 688 l 532 240 b 396 113 532 158 481 113 l 339 113 b 217 240 257 113 217 157 l 217 675 b 197 694 217 688 211 694 l 106 694 b 86 675 94 694 86 688 l 86 229 b 308 -6 86 76 150 -6 l 340 -6 b 514 75 419 -6 482 25 l 532 75 l 532 19 b 550 0 532 7 539 0 l 642 0 b 661 19 656 0 661 7 l 661 675 b 642 694 661 688 656 694 z "},"ü":{"ha":747,"x_min":0,"x_max":0,"o":"m 114 835 l 211 835 b 232 856 225 835 232 842 l 232 953 b 211 972 232 967 225 972 l 114 972 b 94 953 100 972 94 967 l 94 856 b 114 835 94 842 100 835 z m 508 835 l 606 835 b 625 856 619 835 625 842 l 625 953 b 606 972 625 967 619 972 l 508 972 b 488 953 494 972 488 967 l 488 856 b 508 835 488 842 494 835 z m 642 694 l 550 694 b 532 675 539 694 532 688 l 532 240 b 396 113 532 158 481 113 l 339 113 b 217 240 257 113 217 157 l 217 675 b 197 694 217 688 211 694 l 106 694 b 86 675 94 694 86 688 l 86 229 b 308 -6 86 76 150 -6 l 340 -6 b 514 75 419 -6 482 25 l 532 75 l 532 19 b 550 0 532 7 539 0 l 642 0 b 661 19 656 0 661 7 l 661 675 b 642 694 661 688 656 694 z "},"ù":{"ha":747,"x_min":0,"x_max":0,"o":"m 331 947 b 301 972 322 964 315 972 l 181 972 b 167 947 165 972 154 963 l 292 788 b 324 763 303 774 310 763 l 400 763 b 414 788 415 763 424 771 z m 642 694 l 550 694 b 532 675 539 694 532 688 l 532 240 b 396 113 532 158 481 113 l 339 113 b 217 240 257 113 217 157 l 217 675 b 197 694 217 688 211 694 l 106 694 b 86 675 94 694 86 688 l 86 229 b 308 -6 86 76 150 -6 l 340 -6 b 514 75 419 -6 482 25 l 532 75 l 532 19 b 550 0 532 7 539 0 l 642 0 b 661 19 656 0 661 7 l 661 675 b 642 694 661 688 656 694 z "},"ű":{"ha":747,"x_min":0,"x_max":0,"o":"m 276 947 l 193 788 b 207 763 185 771 192 763 l 285 763 b 315 788 299 763 306 774 l 440 947 b 426 972 453 963 442 972 l 306 972 b 276 947 292 972 286 964 z m 504 947 l 421 788 b 435 763 411 771 419 763 l 511 763 b 543 788 525 763 532 774 l 668 947 b 654 972 681 963 669 972 l 533 972 b 504 947 519 972 513 964 z m 642 694 l 550 694 b 532 675 539 694 532 688 l 532 240 b 396 113 532 158 481 113 l 339 113 b 217 240 257 113 217 157 l 217 675 b 197 694 217 688 211 694 l 106 694 b 86 675 94 694 86 688 l 86 229 b 308 -6 86 76 150 -6 l 340 -6 b 514 75 419 -6 482 25 l 532 75 l 532 19 b 550 0 532 7 539 0 l 642 0 b 661 19 656 0 661 7 l 661 675 b 642 694 661 688 656 694 z "},"ū":{"ha":747,"x_min":0,"x_max":0,"o":"m 135 853 l 585 853 b 606 874 597 853 606 860 l 606 951 b 585 972 606 965 597 972 l 135 972 b 114 951 121 972 114 965 l 114 874 b 135 853 114 860 121 853 z m 642 694 l 550 694 b 532 675 539 694 532 688 l 532 240 b 396 113 532 158 481 113 l 339 113 b 217 240 257 113 217 157 l 217 675 b 197 694 217 688 211 694 l 106 694 b 86 675 94 694 86 688 l 86 229 b 308 -6 86 76 150 -6 l 340 -6 b 514 75 419 -6 482 25 l 532 75 l 532 19 b 550 0 532 7 539 0 l 642 0 b 661 19 656 0 661 7 l 661 675 b 642 694 661 688 656 694 z "},"ų":{"ha":747,"x_min":0,"x_max":0,"o":"m 642 694 l 550 694 b 532 675 539 694 532 688 l 532 240 b 396 113 532 158 481 113 l 339 113 b 217 240 257 113 217 157 l 217 675 b 197 694 217 688 211 694 l 106 694 b 86 675 94 694 86 688 l 86 229 b 308 -6 86 76 150 -6 l 340 -6 b 514 75 419 -6 482 25 l 532 75 l 532 28 l 507 28 l 507 -15 b 461 -54 507 -44 496 -50 l 406 -60 b 299 -168 325 -68 299 -82 b 432 -283 299 -261 328 -283 l 604 -283 b 618 -269 614 -283 618 -278 l 618 -211 b 604 -196 618 -201 613 -196 l 454 -196 b 417 -167 424 -196 417 -187 b 442 -139 417 -144 422 -140 l 554 -125 b 636 -43 613 -118 636 -107 l 636 0 l 642 0 b 661 19 656 0 661 7 l 661 675 b 642 694 661 688 656 694 z "},"ů":{"ha":747,"x_min":0,"x_max":0,"o":"m 368 994 l 350 994 b 233 878 282 994 233 943 l 233 863 b 350 747 233 797 282 747 l 368 747 b 485 863 436 747 485 797 l 485 878 b 368 994 485 943 436 994 z m 408 876 l 408 867 b 365 824 408 840 393 824 l 353 824 b 311 867 326 824 311 840 l 311 876 b 353 918 311 901 326 918 l 365 918 b 408 876 393 918 408 901 z m 642 694 l 550 694 b 532 675 539 694 532 688 l 532 240 b 396 113 532 158 481 113 l 339 113 b 217 240 257 113 217 157 l 217 675 b 197 694 217 688 211 694 l 106 694 b 86 675 94 694 86 688 l 86 229 b 308 -6 86 76 150 -6 l 340 -6 b 514 75 419 -6 482 25 l 532 75 l 532 19 b 550 0 532 7 539 0 l 642 0 b 661 19 656 0 661 7 l 661 675 b 642 694 661 688 656 694 z "},"ũ":{"ha":747,"x_min":0,"x_max":0,"o":"m 456 804 b 583 846 499 804 539 815 b 594 874 594 854 599 863 l 567 939 b 543 946 563 949 556 953 b 460 918 510 925 490 918 b 264 979 385 918 357 979 b 136 938 221 979 181 968 b 125 910 125 929 119 922 l 153 844 b 176 839 157 836 164 831 b 258 865 208 858 228 865 b 456 804 335 865 363 804 z m 642 694 l 550 694 b 532 675 539 694 532 688 l 532 240 b 396 113 532 158 481 113 l 339 113 b 217 240 257 113 217 157 l 217 675 b 197 694 217 688 211 694 l 106 694 b 86 675 94 694 86 688 l 86 229 b 308 -6 86 76 150 -6 l 340 -6 b 514 75 419 -6 482 25 l 532 75 l 532 19 b 550 0 532 7 539 0 l 642 0 b 661 19 656 0 661 7 l 661 675 b 642 694 661 688 656 694 z "},"v":{"ha":718,"x_min":0,"x_max":0,"o":"m 288 0 l 431 0 b 461 25 447 0 456 8 l 665 672 b 650 694 669 686 664 694 l 557 694 b 533 672 543 694 538 686 l 364 124 l 354 124 l 185 672 b 161 694 181 686 175 694 l 67 694 b 53 672 53 694 49 686 l 256 25 b 288 0 261 8 271 0 z "},"w":{"ha":1058,"x_min":0,"x_max":0,"o":"m 236 0 l 374 0 b 406 25 390 0 401 8 l 525 499 l 533 499 l 653 25 b 685 0 657 8 668 0 l 822 0 b 853 25 838 0 849 8 l 1007 672 b 992 694 1010 686 1006 694 l 900 694 b 876 672 886 694 879 686 l 753 124 l 746 124 l 604 672 b 581 694 600 686 594 694 l 478 694 b 454 672 464 694 458 686 l 313 124 l 306 124 l 182 672 b 158 694 179 686 172 694 l 67 694 b 51 672 53 694 49 686 l 206 25 b 236 0 210 8 221 0 z "},"ẃ":{"ha":1058,"x_min":0,"x_max":0,"o":"m 563 947 l 479 788 b 493 763 471 771 478 763 l 571 763 b 601 788 585 763 592 774 l 726 947 b 713 972 739 963 728 972 l 592 972 b 563 947 578 972 572 964 z m 236 0 l 374 0 b 406 25 390 0 401 8 l 525 499 l 533 499 l 653 25 b 685 0 657 8 668 0 l 822 0 b 853 25 838 0 849 8 l 1007 672 b 992 694 1010 686 1006 694 l 900 694 b 876 672 886 694 879 686 l 753 124 l 746 124 l 604 672 b 581 694 600 686 594 694 l 478 694 b 454 672 464 694 458 686 l 313 124 l 306 124 l 182 672 b 158 694 179 686 172 694 l 67 694 b 51 672 53 694 49 686 l 206 25 b 236 0 210 8 221 0 z "},"ŵ":{"ha":1058,"x_min":0,"x_max":0,"o":"m 476 972 b 440 953 461 972 451 967 l 296 789 b 306 764 285 776 292 764 l 392 764 b 432 788 410 764 418 771 l 518 886 l 532 886 l 618 788 b 658 764 633 771 642 764 l 746 764 b 756 789 760 764 765 776 l 611 953 b 572 972 600 967 588 972 z m 236 0 l 374 0 b 406 25 390 0 401 8 l 525 499 l 533 499 l 653 25 b 685 0 657 8 668 0 l 822 0 b 853 25 838 0 849 8 l 1007 672 b 992 694 1010 686 1006 694 l 900 694 b 876 672 886 694 879 686 l 753 124 l 746 124 l 604 672 b 581 694 600 686 594 694 l 478 694 b 454 672 464 694 458 686 l 313 124 l 306 124 l 182 672 b 158 694 179 686 172 694 l 67 694 b 51 672 53 694 49 686 l 206 25 b 236 0 210 8 221 0 z "},"ẅ":{"ha":1058,"x_min":0,"x_max":0,"o":"m 283 835 l 381 835 b 401 856 394 835 401 842 l 401 953 b 381 972 401 967 394 972 l 283 972 b 264 953 269 972 264 967 l 264 856 b 283 835 264 842 269 835 z m 678 835 l 775 835 b 794 856 789 835 794 842 l 794 953 b 775 972 794 967 789 972 l 678 972 b 657 953 664 972 657 967 l 657 856 b 678 835 657 842 664 835 z m 236 0 l 374 0 b 406 25 390 0 401 8 l 525 499 l 533 499 l 653 25 b 685 0 657 8 668 0 l 822 0 b 853 25 838 0 849 8 l 1007 672 b 992 694 1010 686 1006 694 l 900 694 b 876 672 886 694 879 686 l 753 124 l 746 124 l 604 672 b 581 694 600 686 594 694 l 478 694 b 454 672 464 694 458 686 l 313 124 l 306 124 l 182 672 b 158 694 179 686 172 694 l 67 694 b 51 672 53 694 49 686 l 206 25 b 236 0 210 8 221 0 z "},"ẁ":{"ha":1058,"x_min":0,"x_max":0,"o":"m 500 947 b 471 972 492 964 485 972 l 350 972 b 336 947 335 972 324 963 l 461 788 b 493 763 472 774 479 763 l 569 763 b 583 788 585 763 593 771 z m 236 0 l 374 0 b 406 25 390 0 401 8 l 525 499 l 533 499 l 653 25 b 685 0 657 8 668 0 l 822 0 b 853 25 838 0 849 8 l 1007 672 b 992 694 1010 686 1006 694 l 900 694 b 876 672 886 694 879 686 l 753 124 l 746 124 l 604 672 b 581 694 600 686 594 694 l 478 694 b 454 672 464 694 458 686 l 313 124 l 306 124 l 182 672 b 158 694 179 686 172 694 l 67 694 b 51 672 53 694 49 686 l 206 25 b 236 0 210 8 221 0 z "},"x":{"ha":650,"x_min":0,"x_max":0,"o":"m 71 0 l 164 0 b 194 22 175 0 183 4 l 319 243 l 331 243 l 456 22 b 486 0 465 4 475 0 l 579 0 b 594 24 597 0 601 11 l 404 349 l 593 671 b 579 694 600 683 596 694 l 486 694 b 454 672 474 694 465 690 l 331 454 l 319 454 l 196 672 b 164 694 185 690 176 694 l 71 694 b 57 671 54 694 50 683 l 246 349 l 56 24 b 71 0 49 11 53 0 z "},"y":{"ha":751,"x_min":0,"x_max":0,"o":"m 683 694 l 589 694 b 565 671 575 694 571 686 l 381 154 l 371 154 l 185 671 b 161 694 179 686 175 694 l 67 694 b 53 672 53 694 47 686 l 310 -12 l 231 -224 b 244 -246 225 -237 231 -246 l 338 -246 b 361 -224 353 -246 357 -237 l 699 672 b 683 694 703 686 697 694 z "},"ý":{"ha":751,"x_min":0,"x_max":0,"o":"m 410 947 l 326 788 b 340 763 318 771 325 763 l 418 763 b 449 788 432 763 439 774 l 574 947 b 560 972 586 963 575 972 l 439 972 b 410 947 425 972 419 964 z m 683 694 l 589 694 b 565 671 575 694 571 686 l 381 154 l 371 154 l 185 671 b 161 694 179 686 175 694 l 67 694 b 53 672 53 694 47 686 l 310 -12 l 231 -224 b 244 -246 225 -237 231 -246 l 338 -246 b 361 -224 353 -246 357 -237 l 699 672 b 683 694 703 686 697 694 z "},"ŷ":{"ha":751,"x_min":0,"x_max":0,"o":"m 324 972 b 288 953 308 972 299 967 l 143 789 b 153 764 132 776 139 764 l 239 764 b 279 788 257 764 265 771 l 365 886 l 379 886 l 465 788 b 506 764 481 771 489 764 l 593 764 b 603 789 607 764 613 776 l 458 953 b 419 972 447 967 435 972 z m 683 694 l 589 694 b 565 671 575 694 571 686 l 381 154 l 371 154 l 185 671 b 161 694 179 686 175 694 l 67 694 b 53 672 53 694 47 686 l 310 -12 l 231 -224 b 244 -246 225 -237 231 -246 l 338 -246 b 361 -224 353 -246 357 -237 l 699 672 b 683 694 703 686 697 694 z "},"ÿ":{"ha":751,"x_min":0,"x_max":0,"o":"m 129 835 l 226 835 b 247 856 240 835 247 842 l 247 953 b 226 972 247 967 240 972 l 129 972 b 110 953 115 972 110 967 l 110 856 b 129 835 110 842 115 835 z m 524 835 l 621 835 b 640 856 635 835 640 842 l 640 953 b 621 972 640 967 635 972 l 524 972 b 503 953 510 972 503 967 l 503 856 b 524 835 503 842 510 835 z m 683 694 l 589 694 b 565 671 575 694 571 686 l 381 154 l 371 154 l 185 671 b 161 694 179 686 175 694 l 67 694 b 53 672 53 694 47 686 l 310 -12 l 231 -224 b 244 -246 225 -237 231 -246 l 338 -246 b 361 -224 353 -246 357 -237 l 699 672 b 683 694 703 686 697 694 z "},"ỳ":{"ha":751,"x_min":0,"x_max":0,"o":"m 346 947 b 317 972 338 964 331 972 l 196 972 b 182 947 181 972 169 963 l 307 788 b 339 763 318 774 325 763 l 415 763 b 429 788 431 763 439 771 z m 683 694 l 589 694 b 565 671 575 694 571 686 l 381 154 l 371 154 l 185 671 b 161 694 179 686 175 694 l 67 694 b 53 672 53 694 47 686 l 310 -12 l 231 -224 b 244 -246 225 -237 231 -246 l 338 -246 b 361 -224 353 -246 357 -237 l 699 672 b 683 694 703 686 697 694 z "},"z":{"ha":594,"x_min":0,"x_max":0,"o":"m 71 0 l 517 0 b 536 19 529 0 536 6 l 536 97 b 517 117 536 110 529 117 l 196 117 l 196 125 l 529 565 b 536 586 533 571 536 579 l 536 675 b 517 694 536 689 529 694 l 83 694 b 64 675 71 694 64 689 l 64 597 b 83 578 64 585 71 578 l 392 578 l 392 569 l 58 128 b 51 106 53 121 51 114 l 51 19 b 71 0 51 6 58 0 z "},"ź":{"ha":594,"x_min":0,"x_max":0,"o":"m 336 947 l 253 788 b 267 763 244 771 251 763 l 344 763 b 375 788 358 763 365 774 l 500 947 b 486 972 513 963 501 972 l 365 972 b 336 947 351 972 346 964 z m 71 0 l 517 0 b 536 19 529 0 536 6 l 536 97 b 517 117 536 110 529 117 l 196 117 l 196 125 l 529 565 b 536 586 533 571 536 579 l 536 675 b 517 694 536 689 529 694 l 83 694 b 64 675 71 694 64 689 l 64 597 b 83 578 64 585 71 578 l 392 578 l 392 569 l 58 128 b 51 106 53 121 51 114 l 51 19 b 71 0 51 6 58 0 z "},"ž":{"ha":594,"x_min":0,"x_max":0,"o":"m 253 764 l 349 764 b 388 782 364 764 376 769 l 532 947 b 522 972 542 960 536 972 l 435 972 b 394 949 418 972 410 965 l 308 850 l 294 850 l 208 949 b 168 972 194 965 186 972 l 82 972 b 72 947 68 972 61 960 l 217 782 b 253 764 228 768 238 764 z m 71 0 l 517 0 b 536 19 529 0 536 6 l 536 97 b 517 117 536 110 529 117 l 196 117 l 196 125 l 529 565 b 536 586 533 571 536 579 l 536 675 b 517 694 536 689 529 694 l 83 694 b 64 675 71 694 64 689 l 64 597 b 83 578 64 585 71 578 l 392 578 l 392 569 l 58 128 b 51 106 53 121 51 114 l 51 19 b 71 0 51 6 58 0 z "},"ż":{"ha":594,"x_min":0,"x_max":0,"o":"m 253 835 l 350 835 b 371 856 364 835 371 842 l 371 953 b 350 972 371 967 364 972 l 253 972 b 233 953 239 972 233 967 l 233 856 b 253 835 233 842 239 835 z m 71 0 l 517 0 b 536 19 529 0 536 6 l 536 97 b 517 117 536 110 529 117 l 196 117 l 196 125 l 529 565 b 536 586 533 571 536 579 l 536 675 b 517 694 536 689 529 694 l 83 694 b 64 675 71 694 64 689 l 64 597 b 83 578 64 585 71 578 l 392 578 l 392 569 l 58 128 b 51 106 53 121 51 114 l 51 19 b 71 0 51 6 58 0 z "},"ﬁ":{"ha":747,"x_min":0,"x_max":0,"o":"m 642 694 l 283 694 l 283 740 b 390 854 283 814 315 854 l 450 854 b 471 875 464 854 471 861 l 471 951 b 450 972 471 965 464 972 l 369 972 b 154 751 219 972 154 894 l 154 694 l 71 694 b 51 675 58 694 51 689 l 51 597 b 71 578 51 585 58 578 l 154 578 l 154 19 b 174 0 154 7 160 0 l 265 0 b 283 19 278 0 283 7 l 283 578 l 532 578 l 532 19 b 550 0 532 7 538 0 l 642 0 b 661 19 656 0 661 7 l 661 675 b 642 694 661 688 656 694 z "},"ﬂ":{"ha":783,"x_min":0,"x_max":0,"o":"m 678 972 l 369 972 b 154 751 219 972 154 894 l 154 694 l 71 694 b 51 675 58 694 51 689 l 51 597 b 71 578 51 585 58 578 l 154 578 l 154 19 b 174 0 154 7 160 0 l 265 0 b 283 19 278 0 283 7 l 283 578 l 446 578 b 465 597 458 578 465 585 l 465 675 b 446 694 465 689 458 694 l 283 694 l 283 740 b 390 854 283 814 315 854 l 568 854 l 568 19 b 586 0 568 7 574 0 l 678 0 b 697 19 692 0 697 7 l 697 953 b 678 972 697 965 692 972 z "},"ª":{"ha":444,"x_min":0,"x_max":0,"o":"m 250 979 l 225 979 b 100 947 172 979 135 967 b 94 926 93 943 92 935 l 108 893 b 129 889 113 885 121 885 b 217 906 157 900 183 906 l 239 906 b 301 842 281 906 301 889 l 190 842 b 69 732 108 842 69 804 b 190 624 69 658 115 624 l 208 624 b 301 663 244 624 275 640 l 301 639 b 315 624 301 628 306 624 l 361 624 b 375 639 371 624 375 628 l 375 840 b 250 979 375 928 328 979 z m 219 697 l 197 697 b 146 733 164 697 146 706 b 197 769 146 758 164 769 l 301 769 l 301 718 b 219 697 282 706 258 697 z "},"º":{"ha":469,"x_min":0,"x_max":0,"o":"m 258 979 l 211 979 b 69 835 128 979 69 917 l 69 769 b 211 624 69 685 128 624 l 258 624 b 400 769 340 624 400 685 l 400 835 b 258 979 400 917 340 979 z m 325 831 l 325 774 b 257 700 325 732 294 700 l 214 700 b 144 774 172 700 144 732 l 144 831 b 214 903 144 874 172 903 l 257 903 b 325 831 294 903 325 874 z "},"А":{"ha":843,"x_min":0,"x_max":0,"o":"m 790 25 l 529 950 b 504 972 525 964 517 972 l 339 972 b 314 950 326 972 318 964 l 53 25 b 69 0 49 10 57 0 l 164 0 b 189 25 178 0 185 10 l 233 182 l 610 182 l 654 25 b 679 0 658 10 665 0 l 774 0 b 790 25 788 0 794 10 z m 265 297 l 413 822 l 431 822 l 578 297 z "},"Б":{"ha":824,"x_min":0,"x_max":0,"o":"m 465 701 l 226 701 l 226 851 l 542 851 b 563 871 556 851 563 857 l 563 953 b 542 972 563 967 556 972 l 113 972 b 93 953 99 972 93 967 l 93 19 b 113 0 93 6 99 0 l 465 0 b 751 279 667 0 751 99 l 751 422 b 465 701 751 603 667 701 z m 618 283 b 458 121 618 165 565 121 l 226 121 l 226 581 l 458 581 b 618 419 565 581 618 538 z "},"В":{"ha":829,"x_min":0,"x_max":0,"o":"m 618 510 l 618 519 b 724 722 699 557 724 621 b 475 972 724 899 650 972 l 113 972 b 93 953 99 972 93 967 l 93 19 b 113 0 93 6 99 0 l 476 0 b 757 257 661 0 757 68 l 757 306 b 618 510 757 411 708 478 z m 590 719 l 590 692 b 460 557 590 589 547 557 l 226 557 l 226 851 l 460 851 b 590 719 550 851 590 822 z m 624 263 b 469 121 624 153 574 121 l 226 121 l 226 449 l 469 449 b 624 307 574 449 624 417 z "},"Г":{"ha":679,"x_min":0,"x_max":0,"o":"m 603 972 l 113 972 b 93 953 99 972 93 967 l 93 19 b 113 0 93 6 99 0 l 207 0 b 226 19 221 0 226 6 l 226 851 l 603 851 b 624 871 617 851 624 857 l 624 953 b 603 972 624 967 617 972 z "},"Ѓ":{"ha":679,"x_min":0,"x_max":0,"o":"m 315 1040 l 393 1040 b 424 1065 407 1040 414 1051 l 549 1225 b 535 1250 561 1240 550 1250 l 414 1250 b 385 1225 400 1250 394 1242 l 301 1065 b 315 1040 293 1049 300 1040 z m 603 972 l 113 972 b 93 953 99 972 93 967 l 93 19 b 113 0 93 6 99 0 l 207 0 b 226 19 221 0 226 6 l 226 851 l 603 851 b 624 871 617 851 624 857 l 624 953 b 603 972 624 967 617 972 z "},"Ґ":{"ha":679,"x_min":0,"x_max":0,"o":"m 604 1069 l 510 1069 b 490 1050 496 1069 490 1064 l 490 972 l 113 972 b 93 953 99 972 93 967 l 93 19 b 113 0 93 6 99 0 l 207 0 b 226 19 221 0 226 6 l 226 851 l 603 851 b 624 871 617 851 624 857 l 624 1050 b 604 1069 624 1064 618 1069 z "},"Д":{"ha":949,"x_min":0,"x_max":0,"o":"m 900 121 l 836 121 l 836 951 b 815 972 836 965 829 972 l 210 972 b 189 951 196 972 189 965 l 189 411 b 76 121 189 197 131 121 l 49 121 b 28 100 35 121 28 114 l 28 -115 b 47 -135 28 -129 33 -135 l 142 -135 b 161 -115 156 -135 161 -129 l 161 0 l 788 0 l 788 -115 b 807 -135 788 -129 793 -135 l 901 -135 b 921 -115 915 -135 921 -129 l 921 100 b 900 121 921 114 914 121 z m 257 121 b 322 411 301 174 322 263 l 322 851 l 703 851 l 703 121 z "},"Е":{"ha":731,"x_min":0,"x_max":0,"o":"m 114 0 l 658 0 b 679 19 672 0 679 6 l 679 101 b 658 121 679 115 672 121 l 226 121 l 226 429 l 618 429 b 639 449 632 429 639 435 l 639 526 b 618 546 639 540 632 546 l 226 546 l 226 851 l 654 851 b 674 871 668 851 674 857 l 674 953 b 654 972 674 967 668 972 l 114 972 b 93 953 100 972 93 967 l 93 19 b 114 0 93 6 100 0 z "},"Ё":{"ha":731,"x_min":0,"x_max":0,"o":"m 139 1113 l 236 1113 b 257 1133 250 1113 257 1119 l 257 1231 b 236 1250 257 1244 250 1250 l 139 1250 b 119 1231 125 1250 119 1244 l 119 1133 b 139 1113 119 1119 125 1113 z m 533 1113 l 631 1113 b 650 1133 644 1113 650 1119 l 650 1231 b 631 1250 650 1244 644 1250 l 533 1250 b 513 1231 519 1250 513 1244 l 513 1133 b 533 1113 513 1119 519 1113 z m 114 0 l 658 0 b 679 19 672 0 679 6 l 679 101 b 658 121 679 115 672 121 l 226 121 l 226 429 l 618 429 b 639 449 632 429 639 435 l 639 526 b 618 546 639 540 632 546 l 226 546 l 226 851 l 654 851 b 674 871 668 851 674 857 l 674 953 b 654 972 674 967 668 972 l 114 972 b 93 953 100 972 93 967 l 93 19 b 114 0 93 6 100 0 z "},"Ж":{"ha":1328,"x_min":0,"x_max":0,"o":"m 1271 31 l 911 531 l 1246 940 b 1238 972 1260 957 1254 972 l 1129 972 b 1096 951 1114 972 1106 964 l 731 496 l 731 953 b 711 972 731 967 725 972 l 617 972 b 597 953 603 972 597 967 l 597 496 l 232 951 b 199 972 222 964 214 972 l 90 972 b 82 940 74 972 68 957 l 417 531 l 57 31 b 65 0 49 19 49 0 l 172 0 b 210 19 186 0 199 4 l 501 426 l 597 308 l 597 19 b 617 0 597 6 603 0 l 711 0 b 731 19 725 0 731 6 l 731 308 l 826 426 l 1118 19 b 1156 0 1129 4 1142 0 l 1263 0 b 1271 31 1279 0 1279 19 z "},"З":{"ha":794,"x_min":0,"x_max":0,"o":"m 558 497 l 558 510 b 710 715 660 536 710 582 b 435 979 710 876 629 979 l 372 979 b 83 724 185 979 83 900 l 83 700 b 103 681 83 688 89 681 l 194 681 b 213 700 207 681 213 688 b 374 861 213 819 268 861 l 428 861 b 581 715 532 861 581 814 b 406 561 581 617 544 561 l 333 561 b 313 542 319 561 313 556 l 313 465 b 333 444 313 451 319 444 l 406 444 b 600 261 544 444 600 393 b 446 111 600 164 549 111 l 363 111 b 201 272 257 111 201 153 b 183 292 201 285 196 292 l 92 292 b 72 272 78 292 72 285 l 72 249 b 361 -7 72 72 174 -7 l 453 -7 b 729 261 646 -7 729 100 b 558 497 729 431 660 474 z "},"И":{"ha":875,"x_min":0,"x_max":0,"o":"m 763 0 b 782 19 776 0 782 6 l 782 953 b 763 972 782 967 776 972 l 593 972 b 568 957 582 972 572 968 l 239 168 l 226 168 l 226 953 b 207 972 226 967 221 972 l 113 972 b 93 953 99 972 93 967 l 93 19 b 113 0 93 6 99 0 l 282 0 b 307 15 293 0 303 4 l 636 804 l 649 804 l 649 19 b 668 0 649 6 654 0 z "},"Й":{"ha":875,"x_min":0,"x_max":0,"o":"m 394 1046 l 465 1046 b 644 1232 588 1046 644 1107 b 625 1250 644 1244 639 1250 l 556 1250 b 536 1232 542 1250 538 1244 b 451 1138 533 1179 511 1138 l 410 1138 b 325 1232 350 1138 328 1179 b 304 1250 324 1244 318 1250 l 236 1250 b 217 1232 222 1250 217 1244 b 394 1046 217 1107 275 1046 z m 763 0 b 782 19 776 0 782 6 l 782 953 b 763 972 782 967 776 972 l 593 972 b 568 957 582 972 572 968 l 239 168 l 226 168 l 226 953 b 207 972 226 967 221 972 l 113 972 b 93 953 99 972 93 967 l 93 19 b 113 0 93 6 99 0 l 282 0 b 307 15 293 0 303 4 l 636 804 l 649 804 l 649 19 b 668 0 649 6 654 0 z "},"Ѝ":{"ha":875,"x_min":0,"x_max":0,"o":"m 401 1225 b 372 1250 393 1242 386 1250 l 251 1250 b 238 1225 236 1250 225 1240 l 363 1065 b 394 1040 374 1051 381 1040 l 471 1040 b 485 1065 486 1040 494 1049 z m 763 0 b 782 19 776 0 782 6 l 782 953 b 763 972 782 967 776 972 l 593 972 b 568 957 582 972 572 968 l 239 168 l 226 168 l 226 953 b 207 972 226 967 221 972 l 113 972 b 93 953 99 972 93 967 l 93 19 b 113 0 93 6 99 0 l 282 0 b 307 15 293 0 303 4 l 636 804 l 649 804 l 649 19 b 668 0 649 6 654 0 z "},"К":{"ha":824,"x_min":0,"x_max":0,"o":"m 767 31 l 407 531 l 742 940 b 733 972 756 957 750 972 l 625 972 b 592 951 610 972 601 964 l 226 496 l 226 953 b 207 972 226 967 221 972 l 113 972 b 93 953 99 972 93 967 l 93 19 b 113 0 93 6 99 0 l 207 0 b 226 19 221 0 226 6 l 226 308 l 322 426 l 614 19 b 651 0 625 4 638 0 l 758 0 b 767 31 775 0 775 19 z "},"Ќ":{"ha":824,"x_min":0,"x_max":0,"o":"m 367 1040 l 444 1040 b 475 1065 458 1040 465 1051 l 600 1225 b 586 1250 613 1240 601 1250 l 465 1250 b 436 1225 451 1250 446 1242 l 353 1065 b 367 1040 344 1049 351 1040 z m 767 31 l 407 531 l 742 940 b 733 972 756 957 750 972 l 625 972 b 592 951 610 972 601 964 l 226 496 l 226 953 b 207 972 226 967 221 972 l 113 972 b 93 953 99 972 93 967 l 93 19 b 113 0 93 6 99 0 l 207 0 b 226 19 221 0 226 6 l 226 308 l 322 426 l 614 19 b 651 0 625 4 638 0 l 758 0 b 767 31 775 0 775 19 z "},"Л":{"ha":913,"x_min":0,"x_max":0,"o":"m 799 972 l 182 972 b 161 951 168 972 161 965 l 161 236 b 63 131 161 150 113 131 b 42 113 51 131 42 126 l 42 15 b 63 -6 42 1 47 -6 l 106 -6 b 294 194 208 -6 294 51 l 294 851 l 686 851 l 686 19 b 706 0 686 6 692 0 l 799 0 b 819 19 813 0 819 6 l 819 951 b 799 972 819 965 813 972 z "},"М":{"ha":1053,"x_min":0,"x_max":0,"o":"m 113 0 l 207 0 b 226 19 221 0 226 6 l 226 804 l 239 804 l 436 21 b 463 0 439 7 450 0 l 590 0 b 617 21 603 0 614 7 l 814 804 l 826 804 l 826 19 b 846 0 826 6 832 0 l 940 0 b 960 19 954 0 960 6 l 960 953 b 940 972 960 967 954 972 l 758 972 b 732 951 744 972 735 965 l 531 157 l 521 157 l 321 951 b 294 972 318 965 308 972 l 113 972 b 93 953 99 972 93 967 l 93 19 b 113 0 93 6 99 0 z "},"Н":{"ha":864,"x_min":0,"x_max":0,"o":"m 751 972 l 657 972 b 636 953 643 972 636 967 l 636 546 l 228 546 l 228 953 b 207 972 228 967 221 972 l 113 972 b 93 953 99 972 93 967 l 93 19 b 113 0 93 6 99 0 l 207 0 b 228 19 221 0 228 6 l 228 429 l 636 429 l 636 19 b 657 0 636 6 643 0 l 751 0 b 771 19 765 0 771 6 l 771 953 b 751 972 771 967 765 972 z "},"О":{"ha":885,"x_min":0,"x_max":0,"o":"m 382 -7 l 503 -7 b 792 275 703 -7 792 96 l 792 697 b 503 979 792 876 703 979 l 382 979 b 93 697 182 979 93 876 l 93 275 b 382 -7 93 96 182 -7 z m 389 114 b 226 279 281 114 226 160 l 226 693 b 389 858 226 811 281 858 l 496 858 b 658 693 603 858 658 811 l 658 279 b 496 114 658 160 603 114 z "},"П":{"ha":844,"x_min":0,"x_max":0,"o":"m 113 0 l 207 0 b 226 19 221 0 226 6 l 226 851 l 618 851 l 618 19 b 638 0 618 6 624 0 l 732 0 b 751 19 746 0 751 6 l 751 951 b 731 972 751 965 744 972 l 114 972 b 93 951 100 972 93 965 l 93 19 b 113 0 93 6 99 0 z "},"Р":{"ha":831,"x_min":0,"x_max":0,"o":"m 465 972 l 113 972 b 93 953 99 972 93 967 l 93 19 b 113 0 93 6 99 0 l 207 0 b 226 19 221 0 226 6 l 226 271 l 465 271 b 751 550 667 271 751 369 l 751 693 b 465 972 751 874 667 972 z m 618 553 b 458 392 618 435 565 392 l 226 392 l 226 851 l 458 851 b 618 689 565 851 618 807 z "},"С":{"ha":861,"x_min":0,"x_max":0,"o":"m 382 -7 l 496 -7 b 782 263 697 -7 782 90 l 782 269 b 764 288 782 281 775 288 l 667 288 b 649 269 656 288 649 281 b 486 114 649 154 590 114 l 389 114 b 226 279 282 114 226 160 l 226 693 b 389 858 226 811 282 858 l 486 858 b 649 694 590 858 649 817 b 667 676 649 683 656 676 l 764 676 b 782 694 775 676 782 683 l 782 701 b 496 979 782 881 697 979 l 382 979 b 93 697 182 979 93 876 l 93 275 b 382 -7 93 96 182 -7 z "},"Т":{"ha":749,"x_min":0,"x_max":0,"o":"m 663 972 l 86 972 b 65 953 72 972 65 967 l 65 871 b 86 851 65 857 72 851 l 308 851 l 308 19 b 328 0 308 6 314 0 l 422 0 b 442 19 436 0 442 6 l 442 851 l 663 851 b 683 871 676 851 683 857 l 683 953 b 663 972 683 967 676 972 z "},"У":{"ha":814,"x_min":0,"x_max":0,"o":"m 747 972 l 646 972 b 619 951 632 972 626 967 l 406 492 l 194 951 b 168 972 188 967 182 972 l 67 972 b 54 949 53 972 46 964 l 336 340 l 189 24 b 201 0 181 8 188 0 l 301 0 b 329 21 317 0 322 6 l 760 949 b 747 972 768 964 761 972 z "},"Ў":{"ha":814,"x_min":0,"x_max":0,"o":"m 381 1046 l 451 1046 b 631 1232 574 1046 631 1107 b 611 1250 631 1244 625 1250 l 542 1250 b 522 1232 528 1250 524 1244 b 438 1138 519 1179 497 1138 l 396 1138 b 311 1232 336 1138 314 1179 b 290 1250 310 1244 304 1250 l 222 1250 b 203 1232 208 1250 203 1244 b 381 1046 203 1107 261 1046 z m 747 972 l 646 972 b 619 951 632 972 626 967 l 406 492 l 194 951 b 168 972 188 967 182 972 l 67 972 b 54 949 53 972 46 964 l 336 340 l 189 24 b 201 0 181 8 188 0 l 301 0 b 329 21 317 0 322 6 l 760 949 b 747 972 768 964 761 972 z "},"Ф":{"ha":985,"x_min":0,"x_max":0,"o":"m 603 840 l 560 840 l 560 953 b 540 972 560 967 554 972 l 446 972 b 426 953 432 972 426 967 l 426 840 l 382 840 b 93 558 182 840 93 738 l 93 414 b 382 132 93 235 182 132 l 426 132 l 426 19 b 446 0 426 6 432 0 l 540 0 b 560 19 554 0 560 6 l 560 132 l 603 132 b 892 414 803 132 892 235 l 892 558 b 603 840 892 738 803 840 z m 389 253 b 226 418 281 253 226 299 l 226 554 b 389 719 226 672 281 719 l 426 719 l 426 253 z m 758 418 b 596 253 758 299 703 253 l 560 253 l 560 719 l 596 719 b 758 554 703 719 758 672 z "},"Х":{"ha":801,"x_min":0,"x_max":0,"o":"m 82 0 l 183 0 b 210 19 197 0 201 6 l 396 358 l 407 358 l 592 19 b 619 0 600 6 606 0 l 721 0 b 732 22 735 0 740 7 l 474 486 l 731 950 b 719 972 739 965 733 972 l 617 972 b 590 953 603 972 597 967 l 407 614 l 396 614 l 213 953 b 185 972 206 967 199 972 l 85 972 b 72 950 69 972 64 965 l 329 486 l 71 22 b 82 0 63 7 68 0 z "},"Ч":{"ha":825,"x_min":0,"x_max":0,"o":"m 618 0 l 713 0 b 732 19 726 0 732 6 l 732 953 b 713 972 732 967 726 972 l 618 972 b 599 953 604 972 599 967 l 599 504 b 471 385 599 429 554 385 l 322 385 b 203 504 238 385 203 428 l 203 953 b 183 972 203 967 197 972 l 89 972 b 69 953 75 972 69 967 l 69 500 b 317 267 69 350 143 267 l 404 267 b 599 344 482 267 567 292 l 599 19 b 618 0 599 6 604 0 z "},"Ц":{"ha":858,"x_min":0,"x_max":0,"o":"m 810 121 l 751 121 l 751 953 b 732 972 751 967 746 972 l 638 972 b 618 953 624 972 618 967 l 618 121 l 226 121 l 226 953 b 207 972 226 967 221 972 l 113 972 b 93 953 99 972 93 967 l 93 21 b 114 0 93 7 100 0 l 697 0 l 697 -115 b 717 -135 697 -129 703 -135 l 810 -135 b 831 -115 824 -135 831 -129 l 831 100 b 810 121 831 114 824 121 z "},"Ш":{"ha":1250,"x_min":0,"x_max":0,"o":"m 114 0 l 1136 0 b 1157 21 1150 0 1157 7 l 1157 953 b 1138 972 1157 967 1151 972 l 1043 972 b 1024 953 1029 972 1024 967 l 1024 121 l 692 121 l 692 953 b 672 972 692 967 686 972 l 578 972 b 558 953 564 972 558 967 l 558 121 l 226 121 l 226 953 b 207 972 226 967 221 972 l 113 972 b 93 953 99 972 93 967 l 93 21 b 114 0 93 7 100 0 z "},"Щ":{"ha":1264,"x_min":0,"x_max":0,"o":"m 1215 121 l 1157 121 l 1157 953 b 1138 972 1157 967 1151 972 l 1043 972 b 1024 953 1029 972 1024 967 l 1024 121 l 692 121 l 692 953 b 672 972 692 967 686 972 l 578 972 b 558 953 564 972 558 967 l 558 121 l 226 121 l 226 953 b 207 972 226 967 221 972 l 113 972 b 93 953 99 972 93 967 l 93 21 b 114 0 93 7 100 0 l 1103 0 l 1103 -115 b 1122 -135 1103 -129 1108 -135 l 1215 -135 b 1236 -115 1229 -135 1236 -129 l 1236 100 b 1215 121 1236 114 1229 121 z "},"Ь":{"ha":831,"x_min":0,"x_max":0,"o":"m 465 701 l 226 701 l 226 953 b 207 972 226 967 221 972 l 113 972 b 93 953 99 972 93 967 l 93 19 b 113 0 93 6 99 0 l 465 0 b 751 279 667 0 751 99 l 751 422 b 465 701 751 603 667 701 z m 618 283 b 458 121 618 165 565 121 l 226 121 l 226 581 l 458 581 b 618 419 565 581 618 538 z "},"Ъ":{"ha":957,"x_min":0,"x_max":0,"o":"m 579 701 l 339 701 l 339 953 b 319 972 339 967 333 972 l 86 972 b 65 953 72 972 65 967 l 65 871 b 86 851 65 857 72 851 l 206 851 l 206 19 b 225 0 206 6 211 0 l 579 0 b 864 279 779 0 864 99 l 864 422 b 579 701 864 603 779 701 z m 731 283 b 571 121 731 165 679 121 l 339 121 l 339 581 l 571 581 b 731 419 679 581 731 538 z "},"Ы":{"ha":1150,"x_min":0,"x_max":0,"o":"m 465 701 l 226 701 l 226 953 b 207 972 226 967 221 972 l 113 972 b 93 953 99 972 93 967 l 93 19 b 113 0 93 6 99 0 l 465 0 b 751 279 667 0 751 99 l 751 422 b 465 701 751 603 667 701 z m 1038 972 l 943 972 b 924 953 929 972 924 967 l 924 19 b 943 0 924 6 929 0 l 1038 0 b 1057 19 1051 0 1057 6 l 1057 953 b 1038 972 1057 967 1051 972 z m 618 283 b 458 121 618 165 565 121 l 226 121 l 226 581 l 458 581 b 618 419 565 581 618 538 z "},"Є":{"ha":861,"x_min":0,"x_max":0,"o":"m 389 858 l 486 858 b 649 694 590 858 649 817 b 667 676 649 683 656 676 l 764 676 b 782 694 775 676 782 683 l 782 701 b 496 979 782 881 697 979 l 382 979 b 93 697 182 979 93 876 l 93 275 b 382 -7 93 96 182 -7 l 496 -7 b 782 263 697 -7 782 90 l 782 269 b 764 288 782 281 775 288 l 667 288 b 649 269 656 288 649 281 b 486 114 649 154 590 114 l 389 114 b 226 279 282 114 226 160 l 226 425 l 414 425 b 435 446 428 425 435 432 l 435 526 b 414 547 435 540 428 547 l 226 547 l 226 693 b 389 858 226 811 282 858 z "},"Э":{"ha":861,"x_min":0,"x_max":0,"o":"m 479 979 l 365 979 b 79 701 164 979 79 881 l 79 694 b 97 676 79 683 86 676 l 194 676 b 213 694 206 676 213 683 b 375 858 213 817 271 858 l 472 858 b 635 693 579 858 635 811 l 635 547 l 447 547 b 426 526 433 547 426 540 l 426 446 b 447 425 426 432 433 425 l 635 425 l 635 279 b 472 114 635 160 579 114 l 375 114 b 213 269 271 114 213 154 b 194 288 213 281 206 288 l 97 288 b 79 269 86 288 79 281 l 79 263 b 365 -7 79 90 164 -7 l 479 -7 b 768 275 679 -7 768 96 l 768 697 b 479 979 768 876 679 979 z "},"І":{"ha":319,"x_min":0,"x_max":0,"o":"m 113 0 l 207 0 b 226 19 221 0 226 6 l 226 953 b 207 972 226 967 221 972 l 113 972 b 93 953 99 972 93 967 l 93 19 b 113 0 93 6 99 0 z "},"Ї":{"ha":319,"x_min":0,"x_max":0,"o":"m -86 1113 l 11 1113 b 32 1133 25 1113 32 1119 l 32 1231 b 11 1250 32 1244 25 1250 l -86 1250 b -106 1231 -100 1250 -106 1244 l -106 1133 b -86 1113 -106 1119 -100 1113 z m 308 1113 l 406 1113 b 425 1133 419 1113 425 1119 l 425 1231 b 406 1250 425 1244 419 1250 l 308 1250 b 288 1231 294 1250 288 1244 l 288 1133 b 308 1113 288 1119 294 1113 z m 113 0 l 207 0 b 226 19 221 0 226 6 l 226 953 b 207 972 226 967 221 972 l 113 972 b 93 953 99 972 93 967 l 93 19 b 113 0 93 6 99 0 z "},"Ј":{"ha":517,"x_min":0,"x_max":0,"o":"m 79 -7 l 135 -7 b 424 275 335 -7 424 96 l 424 953 b 404 972 424 967 418 972 l 310 972 b 290 953 296 972 290 967 l 290 279 b 128 114 290 160 235 114 l 79 114 b 58 94 65 114 58 108 l 58 13 b 79 -7 58 -1 65 -7 z "},"Ю":{"ha":1218,"x_min":0,"x_max":0,"o":"m 836 979 l 715 979 b 426 697 515 979 426 876 l 426 546 l 226 546 l 226 953 b 207 972 226 967 221 972 l 113 972 b 93 953 99 972 93 967 l 93 19 b 113 0 93 6 99 0 l 207 0 b 226 19 221 0 226 6 l 226 428 l 426 428 l 426 275 b 715 -7 426 96 515 -7 l 836 -7 b 1125 275 1036 -7 1125 96 l 1125 697 b 836 979 1125 876 1036 979 z m 992 279 b 829 114 992 160 936 114 l 722 114 b 560 279 614 114 560 160 l 560 693 b 722 858 560 811 614 858 l 829 858 b 992 693 936 858 992 811 z "},"Я":{"ha":828,"x_min":0,"x_max":0,"o":"m 715 972 l 363 972 b 76 693 161 972 76 874 l 76 550 b 203 301 76 428 115 343 l 81 29 b 100 0 72 11 81 0 l 186 0 b 215 18 199 0 210 6 l 328 272 b 363 271 339 271 351 271 l 601 271 l 601 19 b 621 0 601 6 607 0 l 715 0 b 735 19 729 0 735 6 l 735 953 b 715 972 735 967 729 972 z m 369 392 b 210 553 263 392 210 435 l 210 689 b 369 851 210 807 263 851 l 601 851 l 601 392 z "},"Ӏ":{"ha":319,"x_min":0,"x_max":0,"o":"m 113 0 l 207 0 b 226 19 221 0 226 6 l 226 953 b 207 972 226 967 221 972 l 113 972 b 93 953 99 972 93 967 l 93 19 b 113 0 93 6 99 0 z "},"Ӣ":{"ha":875,"x_min":0,"x_max":0,"o":"m 206 1131 l 656 1131 b 676 1151 668 1131 676 1138 l 676 1229 b 656 1250 676 1243 668 1250 l 206 1250 b 185 1229 192 1250 185 1243 l 185 1151 b 206 1131 185 1138 192 1131 z m 763 0 b 782 19 776 0 782 6 l 782 953 b 763 972 782 967 776 972 l 593 972 b 568 957 582 972 572 968 l 239 168 l 226 168 l 226 953 b 207 972 226 967 221 972 l 113 972 b 93 953 99 972 93 967 l 93 19 b 113 0 93 6 99 0 l 282 0 b 307 15 293 0 303 4 l 636 804 l 649 804 l 649 19 b 668 0 649 6 654 0 z "},"Ө":{"ha":885,"x_min":0,"x_max":0,"o":"m 503 979 l 382 979 b 93 697 182 979 93 876 l 93 275 b 382 -7 93 96 182 -7 l 503 -7 b 792 275 703 -7 792 96 l 792 697 b 503 979 792 876 703 979 z m 389 858 l 496 858 b 658 693 603 858 658 811 l 658 546 l 226 546 l 226 693 b 389 858 226 811 281 858 z m 496 114 l 389 114 b 226 279 281 114 226 160 l 226 428 l 658 428 l 658 279 b 496 114 658 160 603 114 z "},"Ӭ":{"ha":861,"x_min":0,"x_max":0,"o":"m 179 1113 l 276 1113 b 297 1133 290 1113 297 1119 l 297 1231 b 276 1250 297 1244 290 1250 l 179 1250 b 160 1231 165 1250 160 1244 l 160 1133 b 179 1113 160 1119 165 1113 z m 574 1113 l 671 1113 b 690 1133 685 1113 690 1119 l 690 1231 b 671 1250 690 1244 685 1250 l 574 1250 b 553 1231 560 1250 553 1244 l 553 1133 b 574 1113 553 1119 560 1113 z m 479 979 l 365 979 b 79 701 164 979 79 881 l 79 694 b 97 676 79 683 86 676 l 194 676 b 213 694 206 676 213 683 b 375 858 213 817 271 858 l 472 858 b 635 693 579 858 635 811 l 635 547 l 447 547 b 426 526 433 547 426 540 l 426 446 b 447 425 426 432 433 425 l 635 425 l 635 279 b 472 114 635 160 579 114 l 375 114 b 213 269 271 114 213 154 b 194 288 213 281 206 288 l 97 288 b 79 269 86 288 79 281 l 79 263 b 365 -7 79 90 164 -7 l 479 -7 b 768 275 679 -7 768 96 l 768 697 b 479 979 768 876 679 979 z "},"Ӯ":{"ha":814,"x_min":0,"x_max":0,"o":"m 192 1131 l 642 1131 b 663 1151 654 1131 663 1138 l 663 1229 b 642 1250 663 1243 654 1250 l 192 1250 b 171 1229 178 1250 171 1243 l 171 1151 b 192 1131 171 1138 178 1131 z m 747 972 l 646 972 b 619 951 632 972 626 967 l 406 492 l 194 951 b 168 972 188 967 182 972 l 67 972 b 54 949 53 972 46 964 l 336 340 l 189 24 b 201 0 181 8 188 0 l 301 0 b 329 21 317 0 322 6 l 760 949 b 747 972 768 964 761 972 z "},"а":{"ha":724,"x_min":0,"x_max":0,"o":"m 390 700 l 360 700 b 144 667 265 700 189 683 b 133 646 135 664 131 656 l 146 576 b 168 564 149 565 157 560 b 340 585 210 576 276 585 b 507 461 474 585 507 542 l 507 413 l 281 413 b 65 236 140 413 65 361 l 65 197 b 274 -7 65 69 131 -7 l 283 -7 b 493 97 382 -7 447 39 l 507 97 l 507 19 b 526 0 507 7 514 0 l 618 0 b 638 19 632 0 638 7 l 638 468 b 390 700 638 615 565 700 z m 351 107 l 299 107 b 193 203 231 107 193 133 l 193 228 b 297 315 193 297 232 315 l 507 315 l 507 242 b 351 107 507 175 444 107 z "},"б":{"ha":733,"x_min":0,"x_max":0,"o":"m 393 -7 l 426 -7 b 661 228 582 -7 661 75 l 661 465 b 426 700 661 618 582 700 l 393 700 b 229 624 313 700 261 669 l 215 624 l 215 736 b 299 826 215 790 233 826 b 471 817 371 826 425 817 b 624 950 576 817 624 864 b 606 972 624 964 621 972 l 513 972 b 490 964 503 972 496 972 b 404 933 475 940 446 933 b 250 944 353 933 304 944 b 86 747 126 944 86 878 l 86 19 b 106 0 86 7 92 0 l 197 0 b 215 19 210 0 215 7 l 215 69 l 229 69 b 393 -7 261 24 313 -7 z m 340 111 b 215 238 263 111 215 157 l 215 456 b 340 582 215 536 263 582 l 406 582 b 531 454 486 582 531 538 l 531 239 b 406 111 531 156 486 111 z "},"в":{"ha":689,"x_min":0,"x_max":0,"o":"m 513 360 b 599 501 592 392 599 456 b 400 694 599 644 525 694 l 107 694 b 86 674 93 694 86 688 l 86 21 b 107 0 86 7 93 0 l 404 0 b 617 190 540 0 617 50 b 513 349 617 258 597 319 z m 215 579 l 390 579 b 469 493 439 579 469 556 b 399 407 469 440 447 407 l 215 407 z m 396 115 l 215 115 l 215 306 l 400 304 b 488 207 453 304 488 279 b 396 115 488 132 449 115 z "},"г":{"ha":599,"x_min":0,"x_max":0,"o":"m 524 694 l 106 694 l 104 694 b 92 690 99 694 94 693 l 90 690 b 90 689 90 689 90 689 b 86 676 88 686 86 682 b 86 675 86 675 86 675 l 86 19 b 106 0 86 7 92 0 l 197 0 b 215 19 210 0 215 7 l 215 578 l 524 578 b 543 599 536 578 543 585 l 543 675 b 524 694 543 689 536 694 z "},"ѓ":{"ha":599,"x_min":0,"x_max":0,"o":"m 279 763 l 357 763 b 388 788 371 763 378 774 l 513 947 b 499 972 525 963 514 972 l 378 972 b 349 947 364 972 358 964 l 265 788 b 279 763 257 771 264 763 z m 524 694 l 106 694 l 104 694 b 92 690 99 694 94 693 l 90 690 b 90 689 90 689 90 689 b 86 676 88 686 86 682 b 86 675 86 675 86 675 l 86 19 b 106 0 86 7 92 0 l 197 0 b 215 19 210 0 215 7 l 215 578 l 524 578 b 543 599 536 578 543 585 l 543 675 b 524 694 543 689 536 694 z "},"ґ":{"ha":599,"x_min":0,"x_max":0,"o":"m 524 769 l 432 769 b 414 750 419 769 414 763 l 414 694 l 106 694 l 104 694 b 92 690 99 694 94 693 l 90 690 b 90 689 90 689 90 689 b 86 676 88 686 86 682 b 86 675 86 675 86 675 l 86 19 b 106 0 86 7 92 0 l 197 0 b 215 19 210 0 215 7 l 215 578 l 524 578 b 543 599 536 578 543 585 l 543 750 b 524 769 543 763 538 769 z "},"д":{"ha":865,"x_min":0,"x_max":0,"o":"m 810 117 l 742 117 l 742 674 b 721 694 742 688 735 694 l 224 694 b 203 674 210 694 203 688 l 203 361 b 74 117 203 161 135 117 l 56 117 b 35 96 42 117 35 110 l 35 -86 b 54 -106 35 -99 40 -106 l 146 -106 b 164 -86 158 -106 164 -99 l 164 0 l 701 0 l 701 -86 b 719 -106 701 -99 707 -106 l 811 -106 b 831 -86 825 -106 831 -99 l 831 96 b 810 117 831 110 824 117 z m 267 117 b 332 343 307 168 332 242 l 332 578 l 613 578 l 613 117 z "},"е":{"ha":710,"x_min":0,"x_max":0,"o":"m 369 -7 b 610 75 476 -7 565 29 b 608 96 615 79 615 88 l 579 139 b 553 146 574 150 565 153 b 369 106 514 124 465 106 l 356 106 b 201 233 249 106 201 158 l 201 294 l 594 294 b 638 338 622 294 638 311 l 638 461 b 389 700 638 611 556 700 l 321 700 b 72 461 156 700 72 610 l 72 232 b 353 -7 72 88 153 -7 z m 201 392 l 201 458 b 325 582 201 539 247 582 l 385 582 b 508 460 464 582 508 540 l 508 392 z "},"ё":{"ha":710,"x_min":0,"x_max":0,"o":"m 113 835 l 210 835 b 231 856 224 835 231 842 l 231 953 b 210 972 231 967 224 972 l 113 972 b 93 953 99 972 93 967 l 93 856 b 113 835 93 842 99 835 z m 507 835 l 604 835 b 624 856 618 835 624 842 l 624 953 b 604 972 624 967 618 972 l 507 972 b 486 953 493 972 486 967 l 486 856 b 507 835 486 842 493 835 z m 369 -7 b 610 75 476 -7 565 29 b 608 96 615 79 615 88 l 579 139 b 553 146 574 150 565 153 b 369 106 514 124 465 106 l 356 106 b 201 233 249 106 201 158 l 201 294 l 594 294 b 638 338 622 294 638 311 l 638 461 b 389 700 638 611 556 700 l 321 700 b 72 461 156 700 72 610 l 72 232 b 353 -7 72 88 153 -7 z m 201 392 l 201 458 b 325 582 201 539 247 582 l 385 582 b 508 460 464 582 508 540 l 508 392 z "},"ж":{"ha":1061,"x_min":0,"x_max":0,"o":"m 1015 29 l 690 346 l 1003 663 b 996 694 1018 678 1013 694 l 882 694 b 851 679 867 694 860 688 l 590 407 l 590 675 b 571 694 590 688 585 694 l 479 694 b 461 675 467 694 461 688 l 461 407 l 200 679 b 169 694 190 688 183 694 l 54 694 b 49 663 38 694 33 678 l 361 346 l 35 29 b 43 0 24 18 26 0 l 160 0 b 193 17 174 0 181 4 l 461 286 l 461 19 b 479 0 461 7 467 0 l 571 0 b 590 19 585 0 590 7 l 590 286 l 858 17 b 892 0 871 4 878 0 l 1008 0 b 1015 29 1025 0 1028 18 z "},"з":{"ha":663,"x_min":0,"x_max":0,"o":"m 267 -8 l 382 -8 b 600 183 511 -8 600 57 b 508 343 600 250 586 315 l 508 356 b 594 504 586 382 594 436 b 382 699 594 624 511 699 l 267 699 b 63 499 139 699 63 632 b 78 483 63 489 67 483 l 181 483 b 196 499 190 483 196 489 b 288 581 196 544 222 581 l 363 581 b 461 493 422 581 461 557 b 385 400 461 432 447 400 l 282 400 b 267 385 272 400 267 396 l 267 311 b 282 296 267 300 272 296 l 385 296 b 463 197 447 296 463 253 b 363 110 463 129 422 110 l 288 110 b 196 182 224 110 196 139 b 181 199 196 194 190 199 l 78 199 b 63 182 67 199 63 194 b 267 -8 63 50 139 -8 z "},"и":{"ha":772,"x_min":0,"x_max":0,"o":"m 106 0 l 256 0 b 281 15 267 0 275 4 l 544 549 l 557 549 l 557 19 b 575 0 557 7 563 0 l 667 0 b 686 19 681 0 686 7 l 686 675 b 667 694 686 688 681 694 l 517 694 b 492 679 506 694 497 690 l 228 146 l 215 146 l 215 675 b 197 694 215 688 210 694 l 106 694 b 86 675 92 694 86 688 l 86 19 b 106 0 86 7 92 0 z "},"й":{"ha":772,"x_min":0,"x_max":0,"o":"m 364 768 l 435 768 b 614 954 557 768 614 829 b 594 972 614 967 608 972 l 525 972 b 506 954 511 972 507 967 b 421 860 503 901 481 860 l 379 860 b 294 954 319 860 297 901 b 274 972 293 967 288 972 l 206 972 b 186 954 192 972 186 967 b 364 768 186 829 244 768 z m 106 0 l 256 0 b 281 15 267 0 275 4 l 544 549 l 557 549 l 557 19 b 575 0 557 7 563 0 l 667 0 b 686 19 681 0 686 7 l 686 675 b 667 694 686 688 681 694 l 517 694 b 492 679 506 694 497 690 l 228 146 l 215 146 l 215 675 b 197 694 215 688 210 694 l 106 694 b 86 675 92 694 86 688 l 86 19 b 106 0 86 7 92 0 z "},"ѝ":{"ha":772,"x_min":0,"x_max":0,"o":"m 371 947 b 342 972 363 964 356 972 l 221 972 b 207 947 206 972 194 963 l 332 788 b 364 763 343 774 350 763 l 440 763 b 454 788 456 763 464 771 z m 106 0 l 256 0 b 281 15 267 0 275 4 l 544 549 l 557 549 l 557 19 b 575 0 557 7 563 0 l 667 0 b 686 19 681 0 686 7 l 686 675 b 667 694 686 688 681 694 l 517 694 b 492 679 506 694 497 690 l 228 146 l 215 146 l 215 675 b 197 694 215 688 210 694 l 106 694 b 86 675 92 694 86 688 l 86 19 b 106 0 86 7 92 0 z "},"к":{"ha":686,"x_min":0,"x_max":0,"o":"m 642 29 l 315 346 l 628 663 b 622 694 643 678 639 694 l 507 694 b 476 679 493 694 486 688 l 215 407 l 215 675 b 197 694 215 688 210 694 l 106 694 b 86 675 92 694 86 688 l 86 19 b 106 0 86 7 92 0 l 197 0 b 215 19 210 0 215 7 l 215 286 l 483 17 b 517 0 496 4 503 0 l 633 0 b 642 29 650 0 653 18 z "},"ќ":{"ha":686,"x_min":0,"x_max":0,"o":"m 315 763 l 393 763 b 424 788 407 763 414 774 l 549 947 b 535 972 561 963 550 972 l 414 972 b 385 947 400 972 394 964 l 301 788 b 315 763 293 771 300 763 z m 642 29 l 315 346 l 628 663 b 622 694 643 678 639 694 l 507 694 b 476 679 493 694 486 688 l 215 407 l 215 675 b 197 694 215 688 210 694 l 106 694 b 86 675 92 694 86 688 l 86 19 b 106 0 86 7 92 0 l 197 0 b 215 19 210 0 215 7 l 215 286 l 483 17 b 517 0 496 4 503 0 l 633 0 b 642 29 650 0 653 18 z "},"л":{"ha":785,"x_min":0,"x_max":0,"o":"m 72 -14 b 246 190 215 -14 246 64 l 246 578 l 568 578 l 568 19 b 588 0 568 7 574 0 l 679 0 b 699 19 692 0 699 7 l 699 675 b 679 694 699 688 692 694 l 135 694 b 117 675 122 694 117 688 l 117 193 b 31 101 117 124 92 101 b 0 74 8 101 0 92 l 0 24 b 72 -14 0 -3 17 -14 z "},"м":{"ha":904,"x_min":0,"x_max":0,"o":"m 799 694 l 675 694 b 650 678 664 694 656 690 l 451 238 l 254 678 b 229 694 249 690 240 694 l 106 694 b 86 675 92 694 86 688 l 86 19 b 106 0 86 7 92 0 l 197 0 b 215 19 210 0 215 7 l 215 496 l 397 76 b 421 61 401 65 408 61 l 482 61 b 507 76 496 61 501 65 l 688 496 l 688 19 b 707 0 688 7 694 0 l 799 0 b 818 19 813 0 818 7 l 818 675 b 799 694 818 688 813 694 z "},"н":{"ha":754,"x_min":0,"x_max":0,"o":"m 649 694 l 557 694 b 539 675 544 694 539 688 l 539 406 l 215 406 l 215 675 b 197 694 215 688 210 694 l 106 694 b 86 675 92 694 86 688 l 86 19 b 106 0 86 7 92 0 l 197 0 b 215 19 210 0 215 7 l 215 289 l 539 289 l 539 19 b 557 0 539 7 544 0 l 649 0 b 668 19 663 0 668 7 l 668 675 b 649 694 668 688 663 694 z "},"о":{"ha":719,"x_min":0,"x_max":0,"o":"m 321 -7 l 397 -7 b 647 232 564 -7 647 82 l 647 461 b 397 700 647 611 565 700 l 321 700 b 72 461 154 700 72 611 l 72 232 b 321 -7 72 82 154 -7 z m 325 111 b 201 233 246 111 201 153 l 201 460 b 325 582 201 540 246 582 l 393 582 b 517 460 474 582 517 540 l 517 233 b 393 111 517 153 474 111 z "},"п":{"ha":754,"x_min":0,"x_max":0,"o":"m 104 0 l 197 0 b 215 19 210 0 215 7 l 215 578 l 539 578 l 539 19 b 557 0 539 7 544 0 l 649 0 b 668 19 663 0 668 7 l 668 675 b 649 694 668 688 663 694 l 106 694 b 86 675 92 694 86 688 l 86 19 b 104 0 86 7 90 0 z "},"р":{"ha":733,"x_min":0,"x_max":0,"o":"m 426 700 l 393 700 b 229 624 313 700 261 669 l 215 624 l 215 675 b 197 694 215 688 210 694 l 106 694 b 86 675 92 694 86 688 l 86 -226 b 106 -246 86 -239 92 -246 l 197 -246 b 215 -226 210 -246 215 -239 l 215 69 l 229 69 b 393 -7 261 24 313 -7 l 426 -7 b 661 228 582 -7 661 75 l 661 465 b 426 700 661 618 582 700 z m 531 239 b 406 111 531 156 486 111 l 340 111 b 215 238 263 111 215 157 l 215 456 b 340 582 215 536 263 582 l 406 582 b 531 454 486 582 531 538 z "},"с":{"ha":699,"x_min":0,"x_max":0,"o":"m 351 -7 l 364 -7 b 624 124 493 -7 581 31 b 611 151 629 136 626 144 l 553 179 b 521 169 535 186 528 181 b 365 107 492 124 458 107 l 356 107 b 201 242 249 107 201 157 l 201 458 b 325 582 201 539 247 582 l 388 582 b 508 479 464 582 508 544 l 508 472 b 528 453 508 460 514 453 l 614 453 b 633 472 628 453 633 460 l 633 481 b 392 700 633 615 546 700 l 321 700 b 72 461 156 700 72 610 l 72 232 b 351 -7 72 85 156 -7 z "},"т":{"ha":632,"x_min":0,"x_max":0,"o":"m 557 694 l 75 694 b 56 675 63 694 56 689 l 56 593 b 75 574 56 581 63 574 l 251 574 l 251 19 b 271 0 251 7 257 0 l 361 0 b 381 19 375 0 381 7 l 381 574 l 557 574 b 576 593 569 574 576 581 l 576 675 b 557 694 576 689 569 694 z "},"у":{"ha":751,"x_min":0,"x_max":0,"o":"m 683 694 l 589 694 b 565 671 575 694 571 686 l 381 154 l 371 154 l 185 671 b 161 694 179 686 175 694 l 67 694 b 53 672 53 694 47 686 l 310 -12 l 231 -224 b 244 -246 225 -237 231 -246 l 338 -246 b 361 -224 353 -246 357 -237 l 699 672 b 683 694 703 686 697 694 z "},"ў":{"ha":751,"x_min":0,"x_max":0,"o":"m 339 768 l 410 768 b 589 954 532 768 589 829 b 569 972 589 967 583 972 l 500 972 b 481 954 486 972 482 967 b 396 860 478 901 456 860 l 354 860 b 269 954 294 860 272 901 b 249 972 268 967 263 972 l 181 972 b 161 954 167 972 161 967 b 339 768 161 829 219 768 z m 683 694 l 589 694 b 565 671 575 694 571 686 l 381 154 l 371 154 l 185 671 b 161 694 179 686 175 694 l 67 694 b 53 672 53 694 47 686 l 310 -12 l 231 -224 b 244 -246 225 -237 231 -246 l 338 -246 b 361 -224 353 -246 357 -237 l 699 672 b 683 694 703 686 697 694 z "},"ф":{"ha":1164,"x_min":0,"x_max":0,"o":"m 858 700 l 825 700 b 661 624 744 700 693 669 l 647 624 l 647 953 b 628 972 647 965 640 972 l 536 972 b 517 953 522 972 517 965 l 517 624 l 503 624 b 339 700 471 669 419 700 l 307 700 b 72 465 151 700 72 618 l 72 228 b 307 -7 72 75 151 -7 l 339 -7 b 503 69 419 -7 471 24 l 517 69 l 517 19 b 518 10 517 15 517 13 l 518 -226 b 538 -246 518 -239 524 -246 l 628 -246 b 647 -226 642 -246 647 -239 l 647 69 l 661 69 b 825 -7 693 24 744 -7 l 858 -7 b 1092 228 1014 -7 1092 75 l 1092 465 b 858 700 1092 618 1014 700 z m 392 111 l 328 111 b 201 239 247 111 201 156 l 201 454 b 328 582 201 538 247 582 l 392 582 b 517 456 471 582 517 536 l 517 238 b 392 111 517 157 471 111 z m 963 239 b 836 111 963 156 918 111 l 772 111 b 647 238 693 111 647 157 l 647 456 b 772 582 647 536 693 582 l 836 582 b 963 454 918 582 963 538 z "},"х":{"ha":650,"x_min":0,"x_max":0,"o":"m 71 0 l 164 0 b 194 22 175 0 183 4 l 319 243 l 331 243 l 456 22 b 486 0 465 4 475 0 l 579 0 b 594 24 597 0 601 11 l 404 349 l 593 671 b 579 694 600 683 596 694 l 486 694 b 454 672 474 694 465 690 l 331 454 l 319 454 l 196 672 b 164 694 185 690 176 694 l 71 694 b 57 671 54 694 50 683 l 246 349 l 56 24 b 71 0 49 11 53 0 z "},"ч":{"ha":750,"x_min":0,"x_max":0,"o":"m 553 0 l 644 0 b 664 19 658 0 664 7 l 664 675 b 644 694 664 688 658 694 l 553 694 b 535 675 540 694 535 688 l 535 401 b 404 274 535 319 488 274 l 329 274 b 215 403 249 274 215 319 l 215 675 b 197 694 215 688 210 694 l 106 694 b 86 675 92 694 86 688 l 86 385 b 301 153 86 239 146 153 l 379 153 b 535 231 454 153 508 189 l 535 19 b 553 0 535 7 540 0 z "},"ц":{"ha":792,"x_min":0,"x_max":0,"o":"m 736 117 l 668 117 l 668 675 b 649 694 668 688 663 694 l 557 694 b 539 675 544 694 539 688 l 539 117 l 215 117 l 215 675 b 197 694 215 688 210 694 l 104 694 b 86 675 90 694 86 688 l 86 19 b 106 0 86 7 92 0 l 628 0 l 628 -86 b 646 -106 628 -99 633 -106 l 738 -106 b 757 -86 751 -106 757 -99 l 757 96 b 736 117 757 110 750 117 z "},"ш":{"ha":1043,"x_min":0,"x_max":0,"o":"m 106 0 l 938 0 b 957 19 951 0 957 7 l 957 675 b 938 694 957 688 951 694 l 846 694 b 828 675 833 694 828 688 l 828 117 l 586 117 l 586 675 b 567 694 586 688 581 694 l 474 694 b 457 675 461 694 457 688 l 457 117 l 215 117 l 215 675 b 197 694 215 688 210 694 l 104 694 b 86 675 90 694 86 688 l 86 19 b 106 0 86 7 92 0 z "},"щ":{"ha":1071,"x_min":0,"x_max":0,"o":"m 1015 117 l 957 117 l 957 675 b 938 694 957 688 951 694 l 846 694 b 828 675 833 694 828 688 l 828 117 l 586 117 l 586 675 b 567 694 586 688 581 694 l 474 694 b 457 675 461 694 457 688 l 457 117 l 215 117 l 215 675 b 197 694 215 688 210 694 l 104 694 b 86 675 90 694 86 688 l 86 19 b 106 0 86 7 92 0 l 907 0 l 907 -86 b 925 -106 907 -99 913 -106 l 1017 -106 b 1036 -86 1031 -106 1036 -99 l 1036 96 b 1015 117 1036 110 1029 117 z "},"ь":{"ha":728,"x_min":0,"x_max":0,"o":"m 422 474 l 215 474 l 215 675 b 197 694 215 688 210 694 l 106 694 b 86 675 92 694 86 688 l 86 19 b 106 0 86 7 92 0 l 422 0 b 656 236 588 0 656 61 b 422 474 656 413 588 474 z m 401 117 l 215 117 l 215 357 l 401 357 b 526 236 483 357 526 333 b 401 117 526 140 483 117 z "},"ъ":{"ha":769,"x_min":0,"x_max":0,"o":"m 464 474 l 257 474 l 257 675 b 239 694 257 688 251 694 l 54 694 b 35 675 42 694 35 689 l 35 599 b 54 578 35 585 42 578 l 128 578 l 128 19 b 147 0 128 7 133 0 l 464 0 b 697 236 629 0 697 61 b 464 474 697 413 629 474 z m 443 117 l 257 117 l 257 357 l 443 357 b 568 236 525 357 568 333 b 443 117 568 140 525 117 z "},"ы":{"ha":944,"x_min":0,"x_max":0,"o":"m 422 474 l 215 474 l 215 675 b 197 694 215 688 210 694 l 106 694 b 86 675 92 694 86 688 l 86 19 b 106 0 86 7 92 0 l 422 0 b 656 236 588 0 656 61 b 422 474 656 413 588 474 z m 839 694 l 747 694 b 729 675 735 694 729 688 l 729 19 b 747 0 729 7 735 0 l 839 0 b 858 19 853 0 858 7 l 858 675 b 839 694 858 688 853 694 z m 401 117 l 215 117 l 215 357 l 401 357 b 526 236 483 357 526 333 b 401 117 526 140 483 117 z "},"є":{"ha":699,"x_min":0,"x_max":0,"o":"m 392 700 l 321 700 b 72 461 156 700 72 610 l 72 232 b 351 -7 72 85 156 -7 l 364 -7 b 624 124 493 -7 581 31 b 611 151 629 136 626 144 l 553 179 b 521 169 535 186 528 181 b 365 107 492 124 458 107 l 356 107 b 201 242 249 107 201 157 l 201 283 l 335 283 b 354 303 349 283 354 289 l 354 379 b 335 399 354 393 349 399 l 201 399 l 201 458 b 325 582 201 539 247 582 l 388 582 b 508 479 464 582 508 544 l 508 472 b 528 453 508 460 514 453 l 614 453 b 633 472 628 453 633 460 l 633 481 b 392 700 633 615 546 700 z "},"э":{"ha":699,"x_min":0,"x_max":0,"o":"m 378 700 l 307 700 b 65 481 153 700 65 615 l 65 472 b 85 453 65 460 71 453 l 171 453 b 190 472 185 453 190 460 l 190 479 b 311 582 190 544 235 582 l 374 582 b 497 458 451 582 497 539 l 497 399 l 364 399 b 344 379 350 399 344 393 l 344 303 b 364 283 344 289 350 283 l 497 283 l 497 242 b 343 107 497 157 450 107 l 333 107 b 178 169 240 107 207 124 b 146 179 171 181 164 186 l 88 151 b 75 124 72 144 69 136 b 335 -7 118 31 206 -7 l 347 -7 b 626 232 543 -7 626 85 l 626 461 b 378 700 626 610 543 700 z "},"і":{"ha":303,"x_min":0,"x_max":0,"o":"m 106 846 l 197 846 b 217 865 211 846 217 853 l 217 953 b 197 972 217 965 211 972 l 106 972 b 86 953 92 972 86 965 l 86 865 b 106 846 86 853 92 846 z m 106 0 l 197 0 b 217 19 211 0 217 7 l 217 675 b 197 694 217 688 211 694 l 106 694 b 86 675 93 694 86 688 l 86 19 b 106 0 86 7 93 0 z "},"ї":{"ha":282,"x_min":0,"x_max":0,"o":"m -106 835 l -8 835 b 13 856 6 835 13 842 l 13 953 b -8 972 13 967 6 972 l -106 972 b -125 953 -119 972 -125 967 l -125 856 b -106 835 -125 842 -119 835 z m 289 835 l 386 835 b 406 856 400 835 406 842 l 406 953 b 386 972 406 967 400 972 l 289 972 b 268 953 275 972 268 967 l 268 856 b 289 835 268 842 275 835 z m 96 0 l 188 0 b 206 19 200 0 206 7 l 206 675 b 188 694 206 688 200 694 l 96 694 b 76 675 82 694 76 688 l 76 19 b 96 0 76 7 82 0 z "},"ј":{"ha":314,"x_min":0,"x_max":0,"o":"m 117 846 l 208 846 b 228 865 222 846 228 853 l 228 953 b 208 972 228 965 222 972 l 117 972 b 97 953 103 972 97 965 l 97 865 b 117 846 97 853 103 846 z m 54 -257 b 228 -53 197 -257 228 -179 l 228 675 b 208 694 228 688 222 694 l 117 694 b 99 675 104 694 99 688 l 99 -50 b 13 -142 99 -119 74 -142 b -18 -169 -10 -142 -18 -151 l -18 -219 b 54 -257 -18 -246 -1 -257 z "},"ю":{"ha":1013,"x_min":0,"x_max":0,"o":"m 692 700 l 615 700 b 365 461 447 700 365 611 l 365 399 l 215 399 l 215 675 b 197 694 215 688 210 694 l 106 694 b 86 675 92 694 86 688 l 86 18 b 106 0 86 6 92 0 l 197 0 b 215 18 210 0 215 6 l 215 283 l 365 283 l 365 232 b 615 -7 365 82 447 -7 l 692 -7 b 940 232 858 -7 940 82 l 940 461 b 692 700 940 611 858 700 z m 811 233 b 688 111 811 153 767 111 l 619 111 b 496 233 539 111 496 153 l 496 460 b 619 582 496 540 539 582 l 688 582 b 811 460 767 582 811 540 z "},"я":{"ha":715,"x_min":0,"x_max":0,"o":"m 610 694 l 279 694 b 78 494 140 694 78 618 b 171 326 78 425 93 360 l 171 318 b 72 149 93 289 72 228 l 72 21 b 92 0 72 7 79 0 l 182 0 b 201 21 196 0 201 7 l 201 139 b 294 254 201 211 218 254 l 500 254 l 500 19 b 518 0 500 7 506 0 l 610 0 b 629 19 624 0 629 7 l 629 675 b 610 694 629 688 624 694 z m 293 369 b 204 478 229 369 204 407 b 293 574 204 543 232 574 l 500 574 l 500 369 z "},"ӣ":{"ha":772,"x_min":0,"x_max":0,"o":"m 175 853 l 625 853 b 646 874 638 853 646 860 l 646 951 b 625 972 646 965 638 972 l 175 972 b 154 951 161 972 154 965 l 154 874 b 175 853 154 860 161 853 z m 106 0 l 256 0 b 281 15 267 0 275 4 l 544 549 l 557 549 l 557 19 b 575 0 557 7 563 0 l 667 0 b 686 19 681 0 686 7 l 686 675 b 667 694 686 688 681 694 l 517 694 b 492 679 506 694 497 690 l 228 146 l 215 146 l 215 675 b 197 694 215 688 210 694 l 106 694 b 86 675 92 694 86 688 l 86 19 b 106 0 86 7 92 0 z "},"ө":{"ha":719,"x_min":0,"x_max":0,"o":"m 397 700 l 321 700 b 72 461 154 700 72 611 l 72 232 b 321 -7 72 82 154 -7 l 397 -7 b 647 232 565 -7 647 82 l 647 461 b 397 700 647 611 564 700 z m 325 582 l 393 582 b 517 460 474 582 517 540 l 517 404 l 201 404 l 201 460 b 325 582 201 540 246 582 z m 393 111 l 325 111 b 201 233 246 111 201 153 l 201 288 l 517 288 l 517 233 b 393 111 517 153 474 111 z "},"ӭ":{"ha":699,"x_min":0,"x_max":0,"o":"m 97 835 l 194 835 b 215 856 208 835 215 842 l 215 953 b 194 972 215 967 208 972 l 97 972 b 78 953 83 972 78 967 l 78 856 b 97 835 78 842 83 835 z m 492 835 l 589 835 b 608 856 603 835 608 842 l 608 953 b 589 972 608 967 603 972 l 492 972 b 471 953 478 972 471 967 l 471 856 b 492 835 471 842 478 835 z m 378 700 l 307 700 b 65 481 153 700 65 615 l 65 472 b 85 453 65 460 71 453 l 171 453 b 190 472 185 453 190 460 l 190 479 b 311 582 190 544 235 582 l 374 582 b 497 458 451 582 497 539 l 497 399 l 364 399 b 344 379 350 399 344 393 l 344 303 b 364 283 344 289 350 283 l 497 283 l 497 242 b 343 107 497 157 450 107 l 333 107 b 178 169 240 107 207 124 b 146 179 171 181 164 186 l 88 151 b 75 124 72 144 69 136 b 335 -7 118 31 206 -7 l 347 -7 b 626 232 543 -7 626 85 l 626 461 b 378 700 626 610 543 700 z "},"ӯ":{"ha":751,"x_min":0,"x_max":0,"o":"m 158 853 l 608 853 b 629 874 621 853 629 860 l 629 951 b 608 972 629 965 621 972 l 158 972 b 138 951 144 972 138 965 l 138 874 b 158 853 138 860 144 853 z m 683 694 l 589 694 b 565 671 575 694 571 686 l 381 154 l 371 154 l 185 671 b 161 694 179 686 175 694 l 67 694 b 53 672 53 694 47 686 l 310 -12 l 231 -224 b 244 -246 225 -237 231 -246 l 338 -246 b 361 -224 353 -246 357 -237 l 699 672 b 683 694 703 686 697 694 z "},"Δ":{"ha":829,"x_min":0,"x_max":0,"o":"m 796 22 l 500 990 b 474 1013 496 1004 486 1013 l 396 1013 b 369 990 383 1013 374 1004 l 72 22 b 88 0 68 7 74 0 l 779 0 b 796 22 793 0 800 7 z m 233 133 l 436 814 l 633 133 z "},"Ω":{"ha":839,"x_min":0,"x_max":0,"o":"m 746 340 l 746 739 b 467 1025 746 922 626 1025 l 372 1025 b 93 739 213 1025 93 922 l 93 340 b 204 133 93 232 135 175 l 114 133 b 93 113 100 133 93 126 l 93 21 b 114 0 93 7 100 0 l 363 0 b 383 21 376 0 383 7 l 383 124 b 363 144 383 138 376 144 l 358 144 b 226 360 276 144 226 258 l 226 733 b 376 892 226 850 283 892 l 463 892 b 613 733 556 892 613 850 l 613 360 b 481 144 613 258 563 144 l 476 144 b 456 124 463 144 456 138 l 456 21 b 476 0 456 7 463 0 l 725 0 b 746 21 739 0 746 7 l 746 113 b 725 133 746 126 739 133 l 635 133 b 746 340 704 175 746 232 z "},"μ":{"ha":747,"x_min":0,"x_max":0,"o":"m 642 694 l 550 694 b 532 675 539 694 532 688 l 532 240 b 396 113 532 158 481 113 l 339 113 b 217 240 257 113 217 157 l 217 675 b 197 694 217 688 211 694 l 106 694 b 86 675 94 694 86 688 l 86 -257 b 107 -278 86 -271 93 -278 l 194 -278 b 215 -257 208 -278 215 -271 l 215 7 b 308 -6 242 -1 272 -6 l 340 -6 b 514 75 419 -6 482 25 l 532 75 l 532 19 b 550 0 532 7 539 0 l 642 0 b 661 19 656 0 661 7 l 661 675 b 642 694 661 688 656 694 z "},"π":{"ha":824,"x_min":0,"x_max":0,"o":"m 747 694 l 75 694 b 56 674 61 694 56 688 l 56 582 b 76 561 56 568 61 561 l 144 561 l 144 21 b 165 0 144 7 151 0 l 257 0 b 278 21 271 0 278 7 l 278 561 l 544 561 l 544 21 b 565 0 544 7 551 0 l 657 0 b 678 21 671 0 678 7 l 678 561 l 747 561 b 768 581 761 561 768 568 l 768 674 b 747 694 768 686 761 694 z "},"¹":{"ha":419,"x_min":0,"x_max":0,"o":"m 167 951 l 167 564 b 188 543 167 550 174 543 l 232 543 b 253 564 246 543 253 550 l 253 951 b 232 972 253 965 246 972 l 188 972 b 167 951 174 972 167 965 z "},"²":{"ha":444,"x_min":0,"x_max":0,"o":"m 340 624 l 190 624 l 268 692 b 360 847 317 733 360 776 b 240 972 360 913 322 972 l 206 972 b 83 857 129 972 83 924 l 83 839 b 104 818 83 825 90 818 l 146 818 b 167 839 160 818 167 825 l 167 849 b 218 893 167 878 188 893 b 275 839 253 893 275 874 b 226 761 275 807 250 783 l 106 647 b 86 608 92 635 86 628 l 86 563 b 107 542 86 549 93 542 l 340 542 b 361 563 354 542 361 549 l 361 603 b 340 624 361 617 354 624 z "},"³":{"ha":449,"x_min":0,"x_max":0,"o":"m 301 757 b 360 853 343 778 360 810 b 243 972 360 913 322 972 l 208 972 b 86 857 132 972 86 924 l 86 839 b 107 818 86 825 93 818 l 149 818 b 169 839 163 818 169 825 l 169 849 b 224 893 169 878 190 893 b 278 840 258 893 278 874 b 226 793 278 810 264 793 l 204 793 b 185 772 192 793 185 786 l 185 742 b 204 721 185 728 192 721 l 226 721 b 281 674 267 721 281 704 b 224 621 281 640 261 621 b 167 665 188 621 167 636 l 167 675 b 146 696 167 689 160 696 l 104 696 b 83 675 90 696 83 689 l 83 657 b 208 542 83 590 129 542 l 243 542 b 368 661 331 542 368 601 b 301 757 368 704 346 736 z "},"⁄":{"ha":175,"x_min":0,"x_max":0,"o":"m 321 951 l -240 21 b -226 0 -249 7 -240 0 l -174 0 b -146 21 -160 0 -154 7 l 415 951 b 401 972 424 965 415 972 l 349 972 b 321 951 335 972 329 965 z "},"½":{"ha":1039,"x_min":0,"x_max":0,"o":"m 167 951 l 167 564 b 188 543 167 550 174 543 l 232 543 b 253 564 246 543 253 550 l 253 951 b 232 972 253 965 246 972 l 188 972 b 167 951 174 972 167 965 z m 740 951 l 179 21 b 193 0 171 7 179 0 l 246 0 b 274 21 260 0 265 7 l 835 951 b 821 972 843 965 835 972 l 768 972 b 740 951 754 972 749 965 z m 935 82 l 785 82 l 863 150 b 954 306 911 192 954 235 b 835 431 954 371 917 431 l 800 431 b 678 315 724 431 678 382 l 678 297 b 699 276 678 283 685 276 l 740 276 b 761 297 754 276 761 283 l 761 307 b 813 351 761 336 782 351 b 869 297 847 351 869 332 b 821 219 869 265 844 242 l 700 106 b 681 67 686 93 681 86 l 681 21 b 701 0 681 7 688 0 l 935 0 b 956 21 949 0 956 7 l 956 61 b 935 82 956 75 949 82 z "},"¼":{"ha":1061,"x_min":0,"x_max":0,"o":"m 167 951 l 167 564 b 188 543 167 550 174 543 l 232 543 b 253 564 246 543 253 550 l 253 951 b 232 972 253 965 246 972 l 188 972 b 167 951 174 972 167 965 z m 740 951 l 179 21 b 193 0 171 7 179 0 l 246 0 b 274 21 260 0 265 7 l 835 951 b 821 972 843 965 835 972 l 768 972 b 740 951 754 972 749 965 z m 957 150 l 938 150 l 938 410 b 917 431 938 424 931 431 l 847 431 b 824 415 839 431 829 426 l 685 151 b 678 126 682 146 678 138 l 678 92 b 701 71 678 78 686 71 l 854 71 l 854 21 b 875 0 854 7 861 0 l 917 0 b 938 21 931 0 938 7 l 938 71 l 957 71 b 978 92 971 71 978 78 l 978 129 b 957 150 978 143 971 150 z m 854 153 l 774 153 l 854 315 z "},"¾":{"ha":1090,"x_min":0,"x_max":0,"o":"m 301 757 b 360 853 343 778 360 810 b 243 972 360 913 322 972 l 208 972 b 86 857 132 972 86 924 l 86 839 b 107 818 86 825 93 818 l 149 818 b 169 839 163 818 169 825 l 169 849 b 224 893 169 878 190 893 b 278 840 258 893 278 874 b 226 793 278 810 264 793 l 204 793 b 185 772 192 793 185 786 l 185 742 b 204 721 185 728 192 721 l 226 721 b 281 674 267 721 281 704 b 224 621 281 640 261 621 b 167 665 188 621 167 636 l 167 675 b 146 696 167 689 160 696 l 104 696 b 83 675 90 696 83 689 l 83 657 b 208 542 83 590 129 542 l 243 542 b 368 661 331 542 368 601 b 301 757 368 704 346 736 z m 769 951 l 208 21 b 222 0 200 7 208 0 l 275 0 b 303 21 289 0 294 7 l 864 951 b 850 972 872 965 864 972 l 797 972 b 769 951 783 972 778 965 z m 986 150 l 967 150 l 967 410 b 946 431 967 424 960 431 l 876 431 b 853 415 868 431 858 426 l 714 151 b 707 126 711 146 707 138 l 707 92 b 731 71 707 78 715 71 l 883 71 l 883 21 b 904 0 883 7 890 0 l 946 0 b 967 21 960 0 967 7 l 967 71 l 986 71 b 1007 92 1000 71 1007 78 l 1007 129 b 986 150 1007 143 1000 150 z m 883 153 l 803 153 l 883 315 z "},"⅛":{"ha":1043,"x_min":0,"x_max":0,"o":"m 167 951 l 167 564 b 188 543 167 550 174 543 l 232 543 b 253 564 246 543 253 550 l 253 951 b 232 972 253 965 246 972 l 188 972 b 167 951 174 972 167 965 z m 740 951 l 179 21 b 193 0 171 7 179 0 l 246 0 b 274 21 260 0 265 7 l 835 951 b 821 972 843 965 835 972 l 768 972 b 740 951 754 972 749 965 z m 903 226 b 949 317 931 244 949 274 b 831 431 949 381 907 431 l 807 431 b 689 317 735 431 689 381 b 735 226 689 274 707 244 b 678 122 707 210 678 182 b 806 0 678 50 721 0 l 832 0 b 960 122 917 0 960 50 b 903 226 960 182 931 210 z m 822 258 l 815 258 b 769 307 788 258 769 276 b 815 356 769 338 788 356 l 822 356 b 868 307 850 356 868 338 b 822 258 868 276 850 258 z m 811 78 b 763 131 782 78 763 94 b 811 186 763 165 782 186 l 826 186 b 875 131 856 186 875 165 b 826 78 875 94 856 78 z "},"⅜":{"ha":1072,"x_min":0,"x_max":0,"o":"m 301 757 b 360 853 343 778 360 810 b 243 972 360 913 322 972 l 208 972 b 86 857 132 972 86 924 l 86 839 b 107 818 86 825 93 818 l 149 818 b 169 839 163 818 169 825 l 169 849 b 224 893 169 878 190 893 b 278 840 258 893 278 874 b 226 793 278 810 264 793 l 204 793 b 185 772 192 793 185 786 l 185 742 b 204 721 185 728 192 721 l 226 721 b 281 674 267 721 281 704 b 224 621 281 640 261 621 b 167 665 188 621 167 636 l 167 675 b 146 696 167 689 160 696 l 104 696 b 83 675 90 696 83 689 l 83 657 b 208 542 83 590 129 542 l 243 542 b 368 661 331 542 368 601 b 301 757 368 704 346 736 z m 769 951 l 208 21 b 222 0 200 7 208 0 l 275 0 b 303 21 289 0 294 7 l 864 951 b 850 972 872 965 864 972 l 797 972 b 769 951 783 972 778 965 z m 932 226 b 978 317 960 244 978 274 b 860 431 978 381 936 431 l 836 431 b 718 317 764 431 718 381 b 764 226 718 274 736 244 b 707 122 736 210 707 182 b 835 0 707 50 750 0 l 861 0 b 989 122 946 0 989 50 b 932 226 989 182 960 210 z m 851 258 l 844 258 b 799 307 817 258 799 276 b 844 356 799 338 817 356 l 851 356 b 897 307 879 356 897 338 b 851 258 897 276 879 258 z m 840 78 b 792 131 811 78 792 94 b 840 186 792 165 811 186 l 856 186 b 904 131 885 186 904 165 b 856 78 904 94 885 78 z "},"⅝":{"ha":1075,"x_min":0,"x_max":0,"o":"m 238 824 b 169 799 215 824 188 818 l 169 892 l 332 892 b 353 913 346 892 353 899 l 353 951 b 332 972 353 965 346 972 l 110 972 b 89 951 96 972 89 965 l 89 757 b 110 736 89 743 96 736 l 168 736 b 221 754 181 749 201 754 b 281 682 268 754 281 726 b 224 621 281 640 261 621 b 167 665 188 621 167 636 l 167 675 b 146 696 167 689 160 696 l 104 696 b 83 675 90 696 83 689 l 83 657 b 208 542 83 590 129 542 l 243 542 b 368 682 331 542 368 601 b 238 824 368 769 325 824 z m 772 951 l 211 21 b 225 0 203 7 211 0 l 278 0 b 306 21 292 0 297 7 l 867 951 b 853 972 875 965 867 972 l 800 972 b 772 951 786 972 781 965 z m 935 226 b 981 317 963 244 981 274 b 863 431 981 381 939 431 l 839 431 b 721 317 767 431 721 381 b 767 226 721 274 739 244 b 710 122 739 210 710 182 b 838 0 710 50 753 0 l 864 0 b 992 122 949 0 992 50 b 935 226 992 182 963 210 z m 854 258 l 847 258 b 801 307 819 258 801 276 b 847 356 801 338 819 356 l 854 356 b 900 307 882 356 900 338 b 854 258 900 276 882 258 z m 843 78 b 794 131 814 78 794 94 b 843 186 794 165 814 186 l 858 186 b 907 131 888 186 907 165 b 858 78 907 94 888 78 z "},"⅞":{"ha":1060,"x_min":0,"x_max":0,"o":"m 353 908 l 353 951 b 332 972 353 965 346 972 l 104 972 b 83 951 90 972 83 965 l 83 910 b 104 889 83 896 90 889 l 260 889 l 104 561 b 117 542 100 551 104 542 l 175 542 b 197 561 186 542 193 551 l 347 885 b 353 908 353 896 353 903 z m 757 951 l 196 21 b 210 0 188 7 196 0 l 263 0 b 290 21 276 0 282 7 l 851 951 b 838 972 860 965 851 972 l 785 972 b 757 951 771 972 765 965 z m 919 226 b 965 317 947 244 965 274 b 847 431 965 381 924 431 l 824 431 b 706 317 751 431 706 381 b 751 226 706 274 724 244 b 694 122 724 210 694 182 b 822 0 694 50 738 0 l 849 0 b 976 122 933 0 976 50 b 919 226 976 182 947 210 z m 839 258 l 832 258 b 786 307 804 258 786 276 b 832 356 786 338 804 356 l 839 356 b 885 307 867 356 885 338 b 839 258 885 276 867 258 z m 828 78 b 779 131 799 78 779 94 b 828 186 779 165 799 186 l 843 186 b 892 131 872 186 892 165 b 843 78 892 94 872 78 z "},".":{"ha":235,"x_min":0,"x_max":0,"o":"m 68 0 l 165 0 b 186 19 179 0 186 6 l 186 117 b 165 138 186 131 179 138 l 68 138 b 49 117 54 138 49 131 l 49 19 b 68 0 49 6 54 0 z "}}}
